<svg width="179" height="162" viewBox="0 0 179 162" fill="none" xmlns="http://www.w3.org/2000/svg">
<g opacity="0.7">
<path fill-rule="evenodd" clip-rule="evenodd" d="M133.998 38.8543C133.999 38.7364 134 38.6182 134 38.5C134 17.237 108.48 0 77 0C45.5198 0 20 17.237 20 38.5C20 44.0178 21.7185 49.2645 24.8138 54.0092C9.9948 60.6302 0 73.148 0 87.5C0 108.763 21.938 126 49 126C66.2411 126 81.4024 119.004 90.136 108.427C99.2322 112.577 110.197 115 122 115C153.48 115 179 97.763 179 76.5C179 58.0169 159.717 42.5759 133.998 38.8543Z" fill="white"/>
</g>
</svg>
