<svg width="1439" height="678" viewBox="0 0 1439 678" fill="none" xmlns="http://www.w3.org/2000/svg">
<ellipse cx="174" cy="596" rx="22" ry="15" fill="white" fill-opacity="0.7"/>
<ellipse cx="116" cy="588.5" rx="22" ry="7.5" fill="white" fill-opacity="0.7"/>
<g opacity="0.7">
<path fill-rule="evenodd" clip-rule="evenodd" d="M1485.18 111.387C1484.71 108.104 1484.08 104.835 1483.27 101.591C1478.85 83.8213 1469.63 68.4093 1457.32 56.1582C1456.48 53.0599 1455.63 49.9598 1454.78 46.8616C1454.49 45.7686 1454.17 44.648 1453.5 43.7375C1452.3 42.1119 1450.22 41.4631 1448.32 40.7996C1441.14 38.3022 1434.5 34.2566 1428.99 29.0185C1427.44 27.544 1425.62 25.8502 1423.51 26.169C1422.61 26.3036 1421.82 26.792 1421.04 27.2436C1418.95 28.4471 1416.73 29.4387 1414.45 30.2091C1395.89 24.243 1375.55 23.1611 1355.79 28.0822C1347.64 30.1096 1339.95 33.1397 1332.79 37.0083C1331.69 36.848 1330.6 36.6305 1329.52 36.3374C1325.45 35.2297 1321.55 32.9203 1319.36 29.3171C1316.54 31.7868 1313.73 34.2584 1310.91 36.73C1313.45 40.0089 1314.62 44.3144 1314.1 48.4264C1314.01 49.0733 1313.88 49.7128 1313.72 50.3432C1292.21 69.3235 1278.63 96.959 1277.18 125.898C1275.3 128.085 1273.41 130.273 1271.53 132.461C1270.63 133.506 1269.71 134.586 1269.29 135.896C1268.72 137.653 1269.11 139.559 1269.5 141.363C1270.83 147.447 1272.16 153.531 1273.49 159.615C1273.73 160.703 1273.98 161.821 1274.61 162.739C1275.99 164.757 1278.7 165.215 1281 166.066C1282 166.438 1282.96 166.918 1283.87 167.489C1287.54 176.92 1292.58 185.623 1298.69 193.418C1298.95 195.204 1299.01 197.008 1298.76 198.8C1298.17 202.956 1295.73 207.011 1291.9 208.721C1291.6 208.857 1291.25 209.016 1291.15 209.337C1291.06 209.657 1291.51 210.035 1291.71 209.77L1297.6 213.557C1301.22 209.744 1306.35 207.536 1311.59 207.167C1336.75 229.618 1372.26 240.14 1406.47 231.625C1431.14 225.482 1451.95 209.576 1466.11 188.945C1470.82 186.298 1476.19 184.809 1481.6 184.731C1482.56 181.874 1483.83 179.124 1485.39 176.546C1482.52 173.761 1480.25 169.496 1481.92 165.863C1482.49 164.612 1483.47 163.6 1484.3 162.5C1487.76 157.899 1488.52 151.402 1486.21 146.127C1488.74 143.811 1489.71 140.253 1490.15 136.849C1491.27 128.109 1489.36 119.143 1485.19 111.39L1485.18 111.387Z" fill="#A079FF"/>
<path fill-rule="evenodd" clip-rule="evenodd" d="M1426.47 60.766C1426.4 60.5706 1426.29 60.4656 1426.11 60.508C1425.32 60.7052 1424.79 63.2468 1425.21 63.8126C1425.64 62.8045 1426.06 61.7889 1426.47 60.766Z" fill="#240057"/>
<path fill-rule="evenodd" clip-rule="evenodd" d="M1414.88 76.3402C1411.03 77.4221 1406.96 77.8644 1402.98 78.1649C1398.06 78.5353 1392.35 78.6256 1387.97 76.0305C1387.96 76.025 1387.95 76.0176 1387.94 76.0103C1387.55 76.8176 1387.33 77.975 1387.71 78.2699C1390.22 80.2033 1393.24 81.2908 1396.42 81.2815C1397.92 81.2779 1399.42 81.0456 1400.85 80.5683C1402.07 80.1591 1403.79 79.3297 1404.9 80.3987C1405.43 80.9166 1405.97 79.3021 1406.05 79.0551C1405.7 80.1425 1406 79.6043 1406.78 79.549C1407.17 79.5214 1407.57 79.5453 1407.96 79.5361C1408.92 79.514 1409.87 79.4403 1410.82 79.3279C1412.91 79.0772 1414.95 78.5832 1416.94 77.8976C1417.55 77.6857 1417.94 76.0729 1417.88 75.2233C1416.94 75.7449 1415.86 76.0674 1414.88 76.342L1414.88 76.3402Z" fill="#240057"/>
<path fill-rule="evenodd" clip-rule="evenodd" d="M1420.05 74.3994C1420.2 73.9737 1420.3 73.7248 1420.56 73.3101C1420.75 73.0134 1420.96 72.7425 1421.2 72.4844C1421.29 72.278 1421.39 72.0716 1421.49 71.8652C1421.47 71.7085 1421.5 71.5371 1421.61 71.362C1421.86 70.9418 1422.1 70.516 1422.33 70.0902C1422.34 70.0663 1422.34 70.0423 1422.34 70.0184C1422.37 69.6903 1422.27 68.6932 1421.74 69.2222C1420.69 70.2561 1419.89 71.5094 1419.35 72.8752C1419.64 73.0982 1419.77 73.476 1419.49 73.8594C1419.31 74.11 1419.1 74.3331 1418.87 74.5358C1418.84 74.8473 1418.87 75.1385 1419.04 75.3228C1419.45 75.7781 1419.97 74.6243 1420.05 74.3994H1420.05Z" fill="#240057"/>
<path fill-rule="evenodd" clip-rule="evenodd" d="M1442.16 72.2208C1441.4 69.458 1439.95 66.3173 1437.67 64.4798C1435.69 62.8781 1433.21 62.9205 1431.66 65.1046C1430.96 66.0925 1430.51 67.2334 1430.23 68.4314C1429.44 69.6699 1428.98 71.15 1428.8 72.5968C1428.38 75.9328 1429.78 79.0366 1431.3 81.9174C1431.81 82.8813 1432.46 84.3503 1433.32 85.4838C1433.36 85.5059 1433.4 85.5335 1433.44 85.5538C1433.77 85.7215 1433.86 85.5685 1433.6 85.7694C1434.4 85.1483 1435.51 86.1952 1434.85 86.8569C1435.48 87.172 1436.18 87.2495 1436.98 86.9343C1439.37 85.9906 1440.99 83.3716 1441.82 81.0732C1442.86 78.2275 1442.96 75.1421 1442.16 72.2263V72.2208ZM1431.31 70.5104C1431.22 70.6892 1431.15 70.879 1431.1 71.0781C1431.06 70.6062 1431.05 70.1233 1431.07 69.6497C1431.19 69.528 1431.33 69.4138 1431.47 69.3032C1431.4 69.705 1431.35 70.1086 1431.31 70.5104ZM1433.4 73.0299C1433.3 72.9636 1433.2 72.8714 1433.13 72.7553C1433.03 71.9296 1433 70.879 1433.27 70.2247C1433.38 69.9648 1433.72 69.5483 1434.12 69.2147C1433.63 70.4496 1433.36 71.7268 1433.4 73.0299ZM1441.4 78.7528C1441.15 80.6493 1440.13 82.3542 1438.62 83.519C1437.86 84.1088 1436.84 84.6617 1435.86 84.2563C1434.98 83.8876 1434.43 82.9808 1433.95 82.203C1433.82 81.9892 1433.68 81.7552 1433.53 81.5082C1433.64 81.5709 1433.75 81.628 1433.87 81.6796C1435.15 82.2381 1435.87 81.4197 1436.28 80.3489C1437.69 79.5987 1438.5 77.9492 1438.74 76.4083C1438.78 76.1263 1438.94 75.1956 1438.42 75.2767C1437.95 75.3522 1437.65 76.5337 1437.6 76.8728C1437.6 76.8839 1437.59 76.8894 1437.59 76.8986C1437.48 77.0147 1437.41 77.1474 1437.29 77.2598C1437.17 77.3631 1437.05 77.4497 1436.93 77.5289C1437.1 76.3807 1437.2 75.2103 1437.36 74.1026C1437.41 73.7745 1437.57 72.9451 1437.04 72.9709C1436.59 72.9931 1436.26 74.274 1436.22 74.5671C1436.06 75.6822 1435.89 76.7972 1435.73 77.9141C1435.7 78.0819 1435.68 78.2514 1435.65 78.4191C1435.53 78.6698 1435.43 78.9776 1435.37 79.2854C1435.31 79.2338 1434.98 79.055 1434.97 79.0495C1434.58 78.8523 1434.29 78.773 1433.93 78.4855C1433.86 78.4265 1433.79 78.362 1433.72 78.2975C1434.09 78.2256 1434.47 77.9934 1434.8 77.6045C1435.78 76.4544 1436.13 74.7809 1436.42 73.3193C1436.47 73.1829 1436.53 73.0502 1436.57 72.9212C1437.12 71.4301 1437.44 69.8156 1437.4 68.2231C1437.4 68.0572 1437.39 67.884 1437.37 67.707C1438.59 68.9419 1439.47 70.5602 1440.16 72.125C1441.06 74.1671 1441.69 76.506 1441.4 78.7509L1441.4 78.7528Z" fill="#240057"/>
<path fill-rule="evenodd" clip-rule="evenodd" d="M1428.46 85.4266C1427.37 83.5264 1426.2 81.0917 1426.06 78.7767C1426 79.0587 1425.98 79.3352 1426 79.5564C1426.26 82.1975 1427.08 84.6636 1428.51 86.9011C1428.69 87.1813 1428.95 86.8772 1429.14 86.5657C1428.9 86.1786 1428.67 85.7934 1428.46 85.4285V85.4266Z" fill="#240057"/>
<path fill-rule="evenodd" clip-rule="evenodd" d="M1440.19 208.653C1437.95 210.758 1435.7 212.864 1433.46 214.969C1433 215.399 1432.78 216.193 1432.75 216.803C1432.73 217.096 1432.8 217.926 1433.27 217.487C1435.51 215.382 1437.75 213.275 1439.99 211.171C1440.45 210.741 1440.67 209.947 1440.71 209.337C1440.72 209.044 1440.66 208.214 1440.19 208.653Z" fill="#240057"/>
<path fill-rule="evenodd" clip-rule="evenodd" d="M1412.3 82.6675C1407.9 83.7052 1403.31 84.2305 1398.79 84.1439C1394.95 84.0701 1390.62 83.6425 1387.35 81.44C1386.95 81.1691 1386.9 80.7212 1387.06 80.3747C1386.73 80.0559 1386.4 79.7167 1386.07 79.3573C1385.73 78.985 1384.91 80.8595 1385.31 81.2926C1386.87 82.9993 1388.45 84.4277 1390.77 84.9309C1393.21 85.4598 1395.81 85.2 1398.28 85.1336C1401.01 85.0599 1403.76 85.0728 1406.49 84.8737C1407.71 84.7853 1408.93 84.6304 1410.1 84.2766C1411.39 83.8858 1412.6 83.2629 1413.89 82.8463C1414.09 82.7818 1414.26 82.4777 1414.37 82.1238C1413.68 82.3229 1412.99 82.5017 1412.3 82.6638L1412.3 82.6675Z" fill="#240057"/>
<path fill-rule="evenodd" clip-rule="evenodd" d="M1358.91 35.0934C1358.59 35.4252 1358.25 35.744 1357.89 36.0537C1358.07 35.4307 1358.07 34.6861 1357.79 34.7856C1357.55 34.8704 1357.32 34.9607 1357.09 35.0529C1357.08 35.0529 1357.08 35.051 1357.08 35.051C1354.28 35.1082 1351.55 35.8012 1349.1 37.1853C1347.62 38.0258 1344.56 39.7731 1345.21 41.9664C1345.49 42.9285 1346.61 42.7589 1347.39 42.6649C1348.81 42.4953 1350.2 42.1599 1351.54 41.6715C1354.27 40.6725 1356.73 39.0543 1358.77 36.9826C1359.09 36.649 1359.29 36.0721 1359.3 35.6077C1359.3 35.4086 1359.26 34.7432 1358.91 35.0953V35.0934ZM1347.57 40.643C1347.46 40.6541 1347.01 40.5969 1346.62 40.6338C1346.93 40.4034 1347.26 40.1749 1347.32 40.1288C1348.15 39.5279 1349.05 39.0174 1349.98 38.5916C1350.16 38.5069 1350.35 38.4313 1350.53 38.3539C1350.23 38.5658 1349.92 38.7778 1349.61 38.9879C1349.37 39.1519 1349.19 39.8855 1349.16 40.4126C1348.64 40.514 1348.1 40.5914 1347.57 40.643H1347.57Z" fill="#240057"/>
<path fill-rule="evenodd" clip-rule="evenodd" d="M1353.74 46.2608C1351.47 47.6302 1349.76 52.1772 1351.93 54.2857C1353 55.3215 1354.73 55.2994 1355.94 54.5419C1356.29 54.3207 1356.6 54.0534 1356.88 53.753C1358.52 53.3143 1359.47 51.3791 1359.25 49.7277C1359.26 49.6374 1359.27 49.5489 1359.27 49.4623C1359.42 46.4856 1356.27 44.731 1353.74 46.2626V46.2608ZM1356.74 50.1129C1356.75 50.1405 1356.75 50.1682 1356.75 50.1958C1356.59 50.2106 1356.33 50.2308 1356.09 50.2179C1355.98 50.1368 1355.84 50.017 1355.73 49.9193C1355.96 49.8714 1356.22 49.8788 1356.44 49.9415C1356.53 49.9654 1356.64 50.0447 1356.75 50.111L1356.74 50.1129ZM1354.17 52.9992C1352.13 52.7264 1351.24 50.3783 1352.7 48.854C1353.39 48.1316 1354.38 47.7463 1355.36 47.7666C1353.97 48.7213 1353.57 51.6187 1354.69 52.684C1354.81 52.8056 1354.95 52.9033 1355.1 52.9826C1354.8 53.0342 1354.49 53.0434 1354.17 52.9992H1354.17Z" fill="#240057"/>
<path fill-rule="evenodd" clip-rule="evenodd" d="M1321.41 44.7568C1321.39 45.0296 1321.37 45.6636 1321.66 45.4958C1322.98 44.7162 1324.3 43.9347 1325.63 43.1533C1325.97 42.9542 1326.13 42.4861 1326.21 42.0972C1324.59 42.9487 1322.96 43.791 1321.41 44.7549L1321.41 44.7568Z" fill="#240057"/>
<path fill-rule="evenodd" clip-rule="evenodd" d="M1307.92 166.962C1305.44 161.418 1301.74 156.198 1297.74 151.644C1297.15 150.969 1296.42 150.256 1295.46 150.289C1294.39 150.328 1293.67 151.233 1293.25 152.127C1292.39 153.972 1292.8 155.938 1293.49 157.768C1293.07 156.91 1292.72 156.014 1292.47 155.078C1292.27 154.337 1292.13 153.581 1292.06 152.818C1292.02 152.407 1292 151.992 1292 151.579C1292.01 151.378 1292.01 151.178 1292.02 150.977C1292.01 151.22 1292.13 151.384 1292.37 151.467C1292.5 151.93 1292.87 151.421 1292.97 151.238C1293.2 150.864 1293.37 150.227 1293.25 149.79C1293.01 148.905 1292.13 149.132 1291.7 149.749C1291.05 150.702 1291.05 151.996 1291.08 153.1C1291.14 156.058 1292.07 158.919 1293.7 161.385C1293.86 161.637 1294.36 160.789 1294.5 160.102C1297.29 165.869 1302 170.431 1306.57 174.812C1306.61 174.88 1306.68 174.898 1306.76 174.867C1308 174.31 1308.15 172.421 1307.85 171.262C1307.4 169.507 1306.61 167.754 1305.78 166.099C1307.21 168.759 1308.37 171.549 1309.07 174.5C1309.45 176.098 1309.94 178.004 1309.71 179.659C1309.42 181.681 1307.23 181.834 1305.64 181.345C1302.65 180.426 1300.25 177.685 1298.77 175.042C1298.58 174.714 1297.7 176.428 1298.01 176.977C1299.3 179.294 1301.17 181.392 1303.49 182.722C1305.49 183.869 1308.16 184.223 1309.6 182.062C1310.9 180.109 1310.75 177.593 1310.43 175.383C1310.01 172.464 1309.13 169.649 1307.92 166.96V166.962ZM1297.13 161.471C1296.34 160.26 1295.62 158.998 1295.03 157.68C1294.55 156.637 1292.97 153.599 1294.05 152.694C1295.03 151.867 1296.08 152.634 1296.82 153.415C1296.75 153.439 1296.69 153.467 1296.63 153.502C1296.18 153.751 1295.91 154.626 1295.97 155.186C1295.76 156.119 1295.9 156.989 1296.35 157.929C1296.93 159.114 1297.58 160.27 1298.23 161.423C1298.94 163.007 1299.74 164.547 1300.62 166.04C1299.36 164.594 1298.18 163.082 1297.13 161.473V161.471Z" fill="#240057"/>
<path fill-rule="evenodd" clip-rule="evenodd" d="M1332.53 190.847C1332.22 191.158 1332.09 191.883 1332.12 192.306C1332.35 196.721 1333.24 201.046 1334.79 205.186C1335.04 205.853 1335.86 204.01 1335.67 203.509C1334.16 199.482 1333.27 195.289 1333.05 190.992C1333.02 190.541 1332.79 190.594 1332.54 190.845L1332.53 190.847Z" fill="#240057"/>
<path fill-rule="evenodd" clip-rule="evenodd" d="M1330.17 197.926C1327.83 195.303 1324.32 192.605 1320.8 191.906C1319.48 191.645 1318.08 191.862 1317.43 193.165C1316.75 194.54 1316.83 196.033 1318.15 196.958C1318.4 197.139 1318.68 197.29 1318.96 197.421C1318.97 197.519 1318.99 197.605 1319.03 197.672C1320.88 200.74 1324.43 201.914 1327.73 202.707C1329.04 203.02 1330.65 203.411 1331.38 201.948C1332.2 200.291 1331.26 199.148 1330.16 197.924L1330.17 197.926ZM1326.44 197.181C1326.61 197.297 1326.79 197.421 1326.96 197.55C1326.77 197.511 1326.58 197.46 1326.4 197.408C1326.41 197.331 1326.43 197.255 1326.44 197.181H1326.44ZM1318.13 194.096C1318.25 194.037 1318.38 193.991 1318.52 193.963C1318.91 193.849 1319.34 193.856 1319.75 193.899C1319.91 193.917 1320.08 193.945 1320.24 193.98C1320.21 194.269 1320.25 194.514 1320.42 194.61C1320.5 194.658 1320.58 194.706 1320.66 194.754C1320.63 195.027 1320.66 195.261 1320.77 195.368C1321.03 195.617 1321.31 195.852 1321.58 196.081C1320.29 195.731 1318.97 195.287 1318.12 194.284C1317.71 194.361 1317.71 194.299 1318.13 194.096ZM1327.65 200.477C1325.98 200.049 1324.28 199.504 1322.8 198.63C1323.6 198.859 1324.4 199.085 1325.2 199.306C1326.61 199.695 1327.79 199.878 1328.57 198.98C1329.08 199.489 1329.56 200.023 1330.01 200.582C1330.1 200.689 1330.18 200.799 1330.27 200.908C1330.1 200.936 1329.95 200.958 1329.9 200.956C1329.15 200.923 1328.37 200.663 1327.64 200.477H1327.65Z" fill="#240057"/>
<path fill-rule="evenodd" clip-rule="evenodd" d="M1312.75 180.813C1312.34 180.617 1311.61 182.612 1312.16 182.877C1312.5 183.043 1312.9 183.38 1312.92 183.802C1312.93 184.285 1312.44 184.523 1312.02 184.694C1310.89 185.153 1309.61 184.901 1308.47 184.617C1307.93 184.484 1307.37 186.554 1307.88 186.681C1309.89 187.181 1312.25 187.253 1313.31 185.14C1313.97 183.837 1314.35 181.579 1312.75 180.811L1312.75 180.813Z" fill="#240057"/>
<path fill-rule="evenodd" clip-rule="evenodd" d="M1289.12 144.493C1287.42 145.856 1287.02 148.302 1287.13 150.367C1287.3 153.45 1288.16 156.572 1289.18 159.471C1289.41 160.135 1290.23 158.301 1290.06 157.794C1289.34 155.745 1288.77 153.653 1288.39 151.515C1288.1 149.893 1287.49 147.571 1288.98 146.38C1289.39 146.052 1289.68 144.048 1289.13 144.493H1289.12Z" fill="#240057"/>
<path fill-rule="evenodd" clip-rule="evenodd" d="M1282.96 133.917C1282.47 133.62 1281.98 133.322 1281.49 133.025C1281.15 132.818 1280.35 134.754 1280.9 135.089C1281.39 135.386 1281.87 135.684 1282.36 135.981C1282.7 136.188 1283.51 134.252 1282.96 133.917Z" fill="#240057"/>
<path fill-rule="evenodd" clip-rule="evenodd" d="M1363.42 39.7011C1363.86 39.421 1364.29 39.1482 1364.74 38.8846C1364.22 39.104 1363.71 39.3233 1363.19 39.5426C1363.23 39.6919 1363.29 39.7841 1363.42 39.7011Z" fill="#240057"/>
<path fill-rule="evenodd" clip-rule="evenodd" d="M1423.63 37.7548C1422.91 37.13 1422.12 36.496 1421.25 36.0942C1420.79 35.8804 1419.71 35.6979 1419.56 36.402C1419.52 36.6158 1419.58 36.8517 1419.7 37.0913C1419.72 37.0452 1419.74 36.9973 1419.77 36.9512C1420.1 36.3393 1421.03 36.8849 1420.7 37.4968C1420.52 37.8267 1421.13 38.5271 1421.31 38.7593C1421.5 38.9952 1421.71 39.22 1421.93 39.4357C1422.27 39.6864 1422.63 39.9094 1423.01 40.0882C1423.23 40.1914 1423.3 40.3738 1423.28 40.5545C1423.86 40.9673 1425.47 42.075 1425.93 41.4004C1426.25 40.9397 1425.86 40.1766 1425.6 39.8006C1425.05 39.0339 1424.34 38.3685 1423.63 37.7548Z" fill="#240057"/>
<path fill-rule="evenodd" clip-rule="evenodd" d="M1489.53 139.278C1490.81 135.813 1491.45 132.179 1490.64 128.482C1490.58 128.209 1490.44 128.192 1490.29 128.273C1490.28 127.779 1490.25 127.287 1490.19 126.791C1489.78 123.208 1488.38 119.883 1487.09 116.551C1486.38 114.734 1485.48 112.616 1485.01 110.489C1485.1 110.113 1485.14 109.717 1485.05 109.4C1484.82 108.659 1484.7 107.92 1484.73 107.173C1484.76 106.794 1484.81 106.418 1484.9 106.049C1484.97 105.76 1485.28 104.669 1484.82 104.534C1484.57 104.462 1484.35 104.772 1484.19 105.105C1483.88 102.971 1483.46 100.863 1482.9 98.7818C1483.07 98.3247 1483.16 97.7883 1483.03 97.3921C1480.97 91.0592 1478.48 84.8737 1475.59 78.8781C1475.63 78.5666 1475.61 78.292 1475.49 78.1261C1475.46 78.0727 1475.42 78.0211 1475.38 77.9695C1475.38 77.7925 1475.35 77.6414 1475.28 77.5308C1474.8 76.788 1474.31 76.0526 1473.81 75.3228C1473.18 74.0953 1472.53 72.877 1471.87 71.6679C1471.74 71.4301 1471.53 71.5923 1471.36 71.8319C1469.08 68.7134 1466.65 65.7073 1464.09 62.8228C1464.15 62.4708 1464.14 62.1556 1464.01 61.975C1461.27 58.3349 1458.22 54.9362 1454.92 51.8158C1454.96 51.7403 1454.99 51.6813 1455 51.6518C1455.21 51.1357 1455.41 50.3948 1455.15 49.8621L1454.89 49.3461C1454.82 48.1056 1454.53 46.8947 1454.03 45.776C1454.21 45.3226 1454.29 44.7733 1454.27 44.366C1454.2 42.792 1453.11 41.9865 1451.85 41.2364C1451.75 41.1811 1451.66 41.1258 1451.56 41.0705C1451.41 40.7554 1451.26 40.442 1451.1 40.1305C1450.95 39.8449 1450.61 40.2375 1450.53 40.3499C1450.51 40.3775 1450.49 40.407 1450.48 40.4347C1449.45 39.8412 1448.41 39.2606 1447.36 38.7169C1445.77 37.8986 1444.14 37.1613 1442.45 36.6028C1440.83 36.0683 1439.14 35.7384 1437.58 35.0178C1432.89 32.8484 1429.86 28.3531 1425.53 25.6474C1425.17 25.1664 1424.76 24.9065 1424.17 24.842C1424.06 24.7296 1423.96 24.6042 1423.86 24.466C1423.8 24.372 1423.7 24.3904 1423.59 24.4863C1423.58 24.4642 1423.57 24.4402 1423.56 24.4199C1423.27 23.9205 1422.97 24.3481 1422.76 24.7241C1420.62 28.5559 1415.3 28.8379 1411.5 28.1246C1409.23 27.697 1407.03 26.9579 1404.8 26.3663C1402.35 25.7175 1399.86 25.288 1397.35 24.9508C1387.53 23.6219 1377.41 22.4073 1367.49 23.3141C1361.93 23.8228 1356.48 25.1203 1351.44 27.5587C1351.21 27.6693 1351.04 27.8997 1350.91 28.1651C1344.28 30.1078 1337.87 32.7342 1331.78 36.0131C1326.81 35.3514 1322.34 32.5646 1319.59 28.3421C1319.49 28.1836 1319.28 28.2702 1319.18 28.3734C1317.6 30.0248 1316.02 31.6781 1314.44 33.3295C1313.26 34.5515 1312.13 35.6831 1311.77 37.3991C1311 41.0355 1314.79 44.014 1313.51 47.7591C1312.47 50.7874 1309.85 53.2295 1307.63 55.4209C1304.73 58.2796 1301.94 61.2341 1299.31 64.3379C1289.5 75.9144 1282.6 89.5423 1279.26 104.357C1277.61 111.695 1276.87 119.233 1277.07 126.749C1272.66 127.934 1270.19 132.774 1269.57 137.032C1268.73 142.874 1270.59 148.999 1271.69 154.696C1272.29 157.776 1272.67 160.996 1273.52 164.015C1273.84 165.124 1274.37 166.073 1275.35 166.719C1276.41 167.419 1277.69 167.725 1278.8 168.329C1283.49 170.867 1286.1 176.325 1288.77 180.684C1292.47 186.705 1296.16 192.727 1299.86 198.746C1297.28 202.125 1294.33 205.195 1291.07 207.934C1290.59 208.33 1289.91 210.125 1290.57 210.568C1292.32 211.742 1294.07 212.916 1295.81 214.09C1296.43 214.505 1297.25 215.345 1298.06 215.023C1298.74 214.75 1299.28 213.9 1299.81 213.408C1302.48 210.938 1305.98 209.462 1309.59 209.18C1309.83 209.364 1310.06 209.543 1310.31 209.714C1310.64 209.943 1311.18 208.376 1311.04 207.84C1311.09 207.873 1311.15 207.905 1311.2 207.938C1310.98 208.551 1310.91 209.228 1311.17 209.44C1319.26 216.029 1328.45 221.031 1337.8 225.591C1342.51 227.893 1347.26 230.193 1352.23 231.889C1357.16 233.568 1362.28 234.469 1367.46 234.834C1372.59 235.194 1377.72 235.079 1382.85 234.902C1382.76 235.264 1382.72 235.636 1382.82 235.964C1383 236.557 1383.49 235.936 1383.62 235.66C1383.64 235.619 1383.75 235.448 1383.7 235.512C1383.73 235.474 1383.76 235.429 1383.77 235.418C1383.79 235.394 1383.82 235.372 1383.84 235.348C1383.95 235.713 1384.06 236.08 1384.17 236.445C1384.35 237.038 1384.83 236.415 1384.97 236.141C1385.16 235.761 1385.36 235.238 1385.39 234.747C1385.8 234.502 1386.07 233.653 1386.15 232.976C1387.43 232.939 1388.41 232.521 1388.84 231.211C1389.39 229.524 1388.52 228.612 1387.07 227.884C1385.21 226.944 1383.29 226.101 1381.34 225.353C1382.17 225.232 1383 224.979 1383.77 224.586C1383.94 224.502 1384.12 224.234 1384.26 223.916C1384.26 223.916 1384.27 223.919 1384.27 223.919L1385.61 224.046C1385.83 224.067 1386 223.788 1386.07 223.624C1386.51 222.671 1386.78 221.612 1385.98 220.771C1385.11 219.863 1383.51 219.509 1382.34 219.234C1381.24 218.974 1380.12 218.84 1379 218.823C1378.73 218.712 1378.47 218.607 1378.2 218.508C1377.05 218.082 1375.87 217.76 1374.66 217.553C1373.91 217.426 1372.97 217.247 1372.34 217.804C1371.83 218.252 1371.56 219.109 1371.58 219.774C1371.59 220.436 1372.01 220.919 1372.5 221.332C1372.61 221.844 1373.03 222.115 1373.62 222.509C1373.69 222.557 1373.76 222.598 1373.83 222.644C1373.97 222.804 1374.12 222.961 1374.28 223.108C1370.94 222.255 1367.54 221.665 1364.13 221.344C1363.79 221.313 1363.45 221.287 1363.11 221.26C1363.6 221.136 1364.09 220.954 1364.57 220.699C1365.7 220.1 1366.65 219.227 1367.41 218.207C1367.42 218.373 1367.47 218.504 1367.59 218.528C1367.61 218.532 1367.63 218.534 1367.65 218.532C1367.41 219.171 1367.28 220.681 1367.85 219.934C1372.51 213.795 1373.9 205.221 1371.12 197.998C1370.86 197.331 1370.05 199.176 1370.24 199.675C1372.55 205.674 1371.88 212.409 1368.22 217.68C1368.23 217.647 1368.24 217.62 1368.25 217.597C1368.35 217.266 1368.46 216.934 1368.56 216.602C1368.74 216.315 1368.9 216.018 1369.04 215.712C1369.91 213.847 1370.32 211.762 1370.22 209.707C1370.31 209.036 1370.37 208.363 1370.38 207.685C1370.47 204.482 1369.61 201.435 1367.84 198.759C1366.02 196 1363.49 193.777 1360.82 191.86C1357.99 189.824 1354.98 188.097 1351.47 187.605C1347.75 187.083 1343.97 187.686 1340.29 188.275C1339.75 188.362 1339.35 190.412 1339.91 190.321C1340.56 190.218 1341.2 190.115 1341.86 190.017C1339.63 190.638 1337.76 192.059 1336.83 194.673C1334.69 200.68 1338.87 207.449 1342.14 212.199C1342.39 212.555 1343.26 210.771 1342.91 210.264C1341.31 207.938 1339.88 205.483 1338.73 202.904C1337.83 200.897 1337.02 198.586 1337.21 196.356C1337.33 194.949 1337.92 193.932 1338.79 193.211C1337.97 195.29 1338 197.747 1338.76 199.813C1339.38 201.516 1343.08 209.244 1345.51 205.864C1345.76 205.507 1346.02 204.85 1345.93 204.404C1345.85 204.047 1345.69 203.881 1345.42 204.257C1343.91 206.354 1340.76 200.503 1340.28 199.577C1339.36 197.815 1338.66 195.565 1339.48 193.755C1339.06 195.489 1339.91 197.178 1341.29 198.556C1341.57 198.836 1341.86 199.111 1342.15 199.382C1343.64 201.496 1345.99 203.112 1348.46 204.178C1349.07 204.578 1349.7 204.952 1350.33 205.297C1351.96 206.192 1353.75 206.88 1355.6 207.151C1355.77 207.204 1355.94 207.259 1356.11 207.309C1357.22 207.634 1358.85 208.295 1359.9 207.482C1360.08 207.346 1360.23 207.178 1360.36 206.988C1361.41 206.539 1361.85 205.265 1361.96 204.209C1361.99 203.798 1361.97 203.378 1361.91 202.954C1362.16 202.082 1362.18 201.098 1362.06 200.189C1362.33 200.574 1362.59 200.976 1362.82 201.391C1363.07 202.191 1363.22 203.013 1363.27 203.835C1363.22 204.056 1363.19 204.279 1363.17 204.427C1363.01 205.781 1362.58 207.073 1361.91 208.264C1361.26 209.418 1360.27 210.903 1359.06 211.519C1357.2 212.463 1355.27 210.36 1353.31 210.771C1352.84 210.87 1352.41 212.426 1352.74 212.761C1354.09 214.121 1355.82 214.8 1357.66 215.188C1358.08 215.277 1358.54 215.38 1359.01 215.474C1359.06 215.542 1359.12 215.609 1359.18 215.662C1360.3 216.578 1362.61 216.927 1363.98 216.67C1364.34 216.602 1364.67 216.481 1364.97 216.313C1364.97 216.381 1364.98 216.449 1364.99 216.512C1365.07 216.869 1365.23 217.033 1365.5 216.659C1365.97 216.01 1366.39 215.327 1366.75 214.619C1367.58 213.944 1367.89 212.809 1367.93 211.628C1368.12 210.984 1368.26 210.332 1368.36 209.67C1368.41 210.111 1368.46 210.553 1368.49 210.999C1368.51 211.346 1368.62 211.401 1368.75 211.318C1368.77 211.594 1368.79 211.871 1368.79 212.151C1368.8 212.656 1368.75 213.159 1368.64 213.651C1368.57 213.941 1368.49 214.23 1368.41 214.518C1368.2 215.113 1367.93 215.682 1367.59 216.21C1366.45 217.642 1364.78 218.674 1362.77 219.066C1361.69 219.275 1360.6 219.267 1359.56 219.044C1358.74 218.816 1357.93 218.488 1357.17 218.108C1356.76 217.905 1356.06 219.864 1356.58 220.172C1357.28 220.589 1358 220.88 1358.74 221.061C1358.52 221.059 1358.3 221.053 1358.09 221.053C1356.77 221.053 1355.01 220.889 1354.1 222.06C1353.91 222.307 1353.76 222.548 1353.65 222.784C1353.59 222.78 1353.53 222.778 1353.48 222.775C1352.75 222.659 1352.02 222.59 1351.33 222.666C1351.21 222.66 1351.09 222.655 1350.96 222.649C1349.73 222.601 1348.49 222.585 1347.75 223.726C1347.49 224.131 1347.11 225.027 1347.42 225.497C1348.89 227.696 1351.61 228.282 1354.03 228.811C1357.16 229.493 1360.34 229.985 1363.53 230.289C1366.76 230.997 1370.02 231.572 1373.3 232.003C1374.12 232.112 1374.95 232.213 1375.77 232.311C1368.86 232.316 1361.95 231.826 1355.28 229.854C1350.23 228.361 1345.44 226.142 1340.71 223.864C1337.52 222.331 1334.35 220.76 1331.22 219.107C1331.68 219.042 1332.12 218.88 1332.53 218.6C1332.57 218.62 1332.62 218.641 1332.66 218.661C1332.59 219.081 1332.62 219.455 1332.82 219.496L1336.3 220.167C1337.11 220.323 1338.11 220.672 1338.86 220.146C1338.91 220.111 1338.95 220.073 1339 220.034C1339.04 220.052 1339.08 220.071 1339.13 220.089C1339.71 220.32 1339.95 218.419 1339.81 218.095C1339.83 217.666 1339.76 217.245 1339.62 216.897C1339.15 215.765 1337.98 214.827 1336.89 214.022C1334.29 211.395 1330.85 209.469 1327.8 207.562C1322.6 204.32 1317.31 201.245 1311.93 198.324C1305.57 192.754 1299.52 186.836 1293.81 180.593C1293.51 180.276 1292.96 181.473 1292.96 182.164C1292.75 181.9 1292.54 181.637 1292.33 181.371C1291.98 180.616 1291.65 179.856 1291.33 179.089L1288.76 171.94C1288.52 171.258 1287.74 173.131 1287.88 173.617C1288.1 174.314 1288.32 175.007 1288.55 175.696C1287.87 174.548 1287.21 173.387 1286.57 172.215C1286.56 172.178 1286.56 172.141 1286.55 172.106L1281.48 153.29C1281.37 152.871 1281.07 153.256 1280.94 153.422C1280.66 153.776 1280.58 154.355 1280.58 154.786C1280.58 154.858 1280.58 154.932 1280.58 155.004C1280.54 155.094 1280.5 155.188 1280.46 155.282C1280.45 155.26 1280.45 155.236 1280.44 155.214C1280.2 154.475 1279.49 156.371 1279.54 156.709C1279.55 156.769 1279.55 156.828 1279.56 156.889L1279.57 156.902C1280.15 160.804 1281.33 164.505 1282.85 168.068C1281.58 166.796 1280.12 165.738 1278.44 165.032C1277.93 164.813 1277.38 164.619 1276.86 164.37C1276.99 164.275 1277.13 164.087 1277.17 164.007C1277.42 163.604 1277.54 163.023 1277.45 162.559L1276.45 157.092C1276.67 156.698 1276.87 156.054 1276.88 155.94C1277.25 152.14 1276.36 148.453 1275.36 144.811C1274.3 140.934 1273.04 136.892 1273.68 132.831C1273.91 131.383 1272.96 132.3 1272.82 133.18C1272.3 136.503 1272.77 139.739 1273.55 142.955C1273.43 143.057 1273.31 143.217 1273.27 143.289C1273.03 143.693 1272.91 144.273 1272.99 144.738L1276.57 164.217C1276.15 163.989 1275.76 163.714 1275.45 163.342C1274.53 162.251 1274.43 160.564 1274.17 159.217C1273.08 153.61 1271.81 148.006 1270.95 142.36C1270.52 139.533 1270.22 136.318 1271.56 133.679C1272.43 131.95 1273.84 130.57 1275.58 129.821C1275.67 132.182 1275.76 134.542 1275.85 136.903C1275.79 137.159 1275.77 137.422 1275.78 137.621C1275.9 139.885 1276.03 142.15 1276.15 144.413C1276.17 144.865 1276.41 144.811 1276.66 144.561C1276.98 144.246 1277.09 143.529 1277.08 143.101C1277.06 142.635 1277.04 142.167 1277.02 141.7C1277.31 141.767 1277.85 140.467 1277.8 140.069C1277.75 139.708 1277.71 139.347 1277.66 138.985C1277.64 138.797 1277.62 138.609 1277.6 138.423C1277.6 135.113 1277.78 131.808 1278.13 128.52C1278.32 127.984 1278.39 127.315 1278.38 127.04C1278.37 126.88 1278.37 126.72 1278.36 126.561C1278.37 126.498 1278.37 126.436 1278.38 126.373C1278.4 126.211 1278.4 126.026 1278.33 125.912C1277.85 112.187 1280.68 98.3837 1286.62 85.9906C1289.81 79.3315 1293.88 73.1645 1298.59 67.4804C1299.85 65.9524 1301.16 64.4632 1302.51 63.0053C1301.68 64.148 1300.92 65.3405 1300.23 66.5772C1299.93 67.1044 1299.88 68.9935 1300.55 67.7974C1302.19 64.8853 1304.24 62.2423 1306.62 59.9273C1305.94 60.8268 1305.32 61.7188 1304.71 62.5003C1303.25 64.3913 1301.69 66.2418 1300.31 68.1918C1299.61 69.0249 1298.91 69.8727 1298.25 70.7371C1298.09 70.9436 1297.48 72.4973 1297.99 72.5728C1298.37 72.6281 1298.74 72.6208 1299.08 72.5655C1299.14 72.7166 1299.2 72.8677 1299.28 73.0134C1299.35 73.135 1299.52 73.065 1299.59 72.9894C1299.83 72.7148 1300.07 72.4402 1300.31 72.1655C1300.34 72.1508 1300.37 72.136 1300.4 72.1195C1300.4 72.1803 1300.4 72.2429 1300.41 72.3056C1300.42 72.4936 1300.46 72.6982 1300.53 72.8935C1300.76 72.7203 1300.98 72.5507 1301.21 72.3793C1302.9 71.0928 1304.67 69.8985 1306.46 68.7539C1310.52 63.9324 1314.15 58.7367 1316.06 52.6618C1316.08 52.5936 1316.32 51.3182 1315.89 51.5357C1313.83 52.5715 1311.9 53.7916 1310.09 55.1758C1311.11 54.0386 1312.06 52.8443 1312.86 51.532C1314.6 48.6789 1315.61 45.1825 1314.67 41.8815C1314.37 40.8033 1313.88 39.7896 1313.45 38.7574C1313.33 38.4699 1312.87 37.6718 1312.93 37.3235C1313 36.9567 1313.66 36.4499 1313.91 36.1881C1315.52 34.5091 1317.12 32.83 1318.73 31.1528C1321.35 35.0399 1325.47 37.74 1330.05 38.6118C1330.05 38.9786 1330.12 39.3693 1330.4 39.2145C1330.66 39.0708 1330.93 38.9289 1331.19 38.7869C1331.36 38.8072 1331.52 38.833 1331.69 38.8478C1331.97 38.8736 1332.22 38.5602 1332.41 38.1363C1338.38 35.0252 1344.63 32.5277 1351.11 30.6846C1351.34 30.6201 1351.54 30.316 1351.68 29.9327C1361.04 25.653 1371.48 25.3507 1381.6 26.1064C1381.71 26.1156 1381.82 26.1248 1381.94 26.134C1380.86 26.3202 1379.78 26.5672 1378.69 26.8787C1376.36 27.1109 1374.03 27.3468 1371.71 27.6104C1369.86 27.8205 1368.01 28.0877 1366.24 28.6757C1365.84 28.8084 1365.45 28.9779 1365.07 29.1512C1365.38 28.3163 1365.64 27.1146 1365.05 27.2675C1363.57 27.6546 1362.09 28.0416 1360.61 28.4287C1360.47 28.4655 1360.34 28.5706 1360.24 28.7107C1360.05 28.801 1359.87 28.9024 1359.69 29.0148C1359.31 29.2562 1358.24 31.6375 1359.04 31.7555C1359.4 31.8071 1359.76 31.8292 1360.11 31.8255C1360.2 31.9656 1360.32 32.0854 1360.44 32.1886C1360.46 32.172 1360.48 32.1554 1360.5 32.1389C1361.24 31.5638 1362.03 31.0901 1362.85 30.7049C1364.83 29.6838 1367.04 28.9724 1369.08 28.4342C1371.85 27.7044 1376.06 26.8197 1378.36 29.1457C1378.57 29.3595 1378.66 29.7244 1378.55 30.0137C1380.08 30.1483 1381.61 30.305 1383.13 30.4819C1383.13 30.5538 1383.13 30.6238 1383.14 30.6902C1381.84 30.8782 1380.55 31.1067 1379.27 31.385C1379.3 30.939 1379.24 30.5962 1379.07 30.6036C1378.75 30.6165 1378.44 30.6312 1378.12 30.6441C1376.61 32.6217 1374.51 34.0833 1372.34 35.3053C1376.57 33.7737 1381.01 32.8392 1385.5 32.4098C1385.49 32.384 1385.49 32.36 1385.48 32.3342C1384.96 31.702 1384.78 30.88 1385.29 30.1225C1385.31 29.6986 1385.63 29.2747 1386.1 29.3244C1386.11 29.3244 1386.13 29.3263 1386.14 29.3281C1387.57 28.4342 1389.75 28.4766 1391.29 28.5282C1393.51 28.6019 1395.97 28.8968 1397.98 29.9234C1398.32 30.0967 1398.63 30.3216 1398.88 30.5777C1399.36 30.8192 1399.82 31.1012 1400.21 31.4385C1400.6 31.7647 1400.5 32.5148 1400.05 32.7323C1400.02 32.7434 1400 32.7526 1399.98 32.7637C1399.93 32.8614 1399.88 32.9517 1399.8 33.0199C1399.49 33.2853 1399.16 33.5046 1398.8 33.6852C1399.03 33.7755 1399.25 33.8658 1399.48 33.9525C1399.6 33.9985 1399.73 33.934 1399.85 33.7976C1401.46 34.3616 1403.06 34.9293 1404.66 35.4952C1402.87 35.2666 1401.08 35.0381 1399.28 34.8114C1398.18 34.6731 1397.08 34.5404 1395.98 34.4169C1394.81 34.581 1393.59 34.5662 1392.55 34.5367C1391.65 34.5109 1390.4 34.5073 1389.28 34.2695C1388.47 34.2289 1387.66 34.1073 1386.95 33.8253C1386.17 33.8235 1385.4 33.8327 1384.63 33.864C1376.74 34.181 1366.07 36.8609 1363.61 45.5364C1362.44 49.676 1363.48 53.9852 1365.47 57.6898C1365.66 58.0492 1366.08 57.1958 1366.12 57.0963C1366.27 56.7222 1366.44 56.1416 1366.23 55.7545C1364.58 52.6821 1363.23 48.6143 1364.52 45.1751C1365.86 41.6198 1369.68 39.4191 1373.08 38.0792C1368.04 42.7699 1366.57 50.5183 1368.37 56.9839C1370.85 65.8308 1378.22 71.7601 1385.15 77.1714C1385.92 77.7686 1387.13 74.4971 1386.42 73.946C1385.91 73.546 1385.4 73.1461 1384.89 72.7406C1385.23 71.9665 1385.42 70.9657 1385.08 70.6376C1382.69 68.3392 1380.25 66.0833 1377.93 63.7204C1375.81 61.5621 1373.84 59.1919 1372.72 56.3517C1371.91 54.3298 1371.47 52.1642 1371.44 50.0059C1371.58 50.6031 1371.76 51.1892 1372 51.7569C1372.12 53.4304 1372.76 55.0265 1373.81 56.5858C1375.85 59.6232 1378.45 62.351 1380.79 65.1617C1381.21 65.6557 1382.32 63.1933 1381.81 62.5814C1380.4 60.882 1378.97 59.1919 1377.56 57.4889C1381.28 59.2859 1385.92 59.3504 1389.92 58.5855C1393.14 57.9699 1396.6 57.0834 1399.27 55.091C1401.69 53.2737 1403.14 50.2437 1403.22 47.2283C1403.24 46.5703 1403.16 45.9732 1403.01 45.4258C1403.74 46.915 1404.06 48.5904 1403.73 50.2234C1403.66 50.4685 1403.6 50.7118 1403.54 50.9569C1403.45 51.2924 1403.1 52.5678 1403.64 52.7245C1404.17 52.8775 1404.57 51.5559 1404.66 51.2795C1404.84 50.7413 1404.98 50.1921 1405.08 49.6354L1405.45 48.2126C1405.63 48.6475 1405.79 49.0954 1405.92 49.5525C1406.12 50.2602 1406.68 49.4972 1406.85 49.1968C1407.18 48.5978 1407.48 47.6338 1407.28 46.9427C1407.25 46.8247 1407.21 46.7086 1407.17 46.5925C1407.31 44.9576 1406.96 43.5827 1406.28 42.4123C1411.82 45.4958 1416.25 50.4703 1418.53 56.4402C1418.78 57.1037 1419.27 56.4328 1419.46 56.0845C1419.77 55.5352 1420.14 54.4699 1419.89 53.8303C1418.03 48.9516 1414.84 44.6978 1410.77 41.5461C1411.16 41.6917 1411.55 41.8446 1411.93 42.0105C1418.59 44.9171 1423.52 51.0952 1425 58.1893C1425.17 58.98 1425.85 58.0916 1426 57.8096C1426.38 57.1276 1426.63 56.1729 1426.46 55.3933C1426.42 55.1813 1426.37 54.9694 1426.32 54.7593H1426.32C1426.41 54.8846 1426.55 54.8993 1426.76 54.7814C1427.16 54.5639 1427.37 53.6847 1427.43 53.2903C1427.63 52.0241 1427.5 50.8648 1427.17 49.7681C1426.88 48.2623 1426.38 46.8081 1425.7 45.4461C1428.92 46.9353 1432.14 48.4245 1435.36 49.9156C1435.5 50.0022 1435.65 50.0907 1435.79 50.1828C1435.72 50.6289 1435.74 51.038 1435.87 51.215C1436.81 52.5107 1438.12 53.3511 1439.7 53.6294C1439.81 53.6497 1439.92 53.611 1440.02 53.5318C1439.99 53.635 1439.96 53.7382 1439.93 53.8414C1439.55 54.1086 1439.25 54.527 1439.04 55.0265C1438.94 54.3833 1438.35 55.1334 1438.24 55.3343C1437.92 55.902 1437.78 56.6226 1437.87 57.2659C1438.56 61.7981 1440.67 65.945 1443.84 69.1668C1443.84 69.3493 1443.89 69.5207 1443.97 69.6589C1445.92 72.7092 1447.86 75.7596 1449.81 78.8117C1450.82 81.3276 1451.96 83.7808 1453.26 86.162C1453.45 86.5159 1453.81 85.9833 1454 85.6312C1453.14 84.0167 1452.36 82.3726 1451.74 80.6272C1450.78 77.9326 1449.97 75.0629 1448.17 72.7811C1447.93 72.4899 1447.93 72.1545 1448.05 71.8798C1447.88 71.6144 1447.72 71.3509 1447.55 71.0855C1448.01 71.2643 1448.51 71.3582 1449.04 71.3066C1450.73 71.1481 1451.58 69.6755 1451.88 68.1476C1452.21 66.4593 1451.82 64.6715 1451.06 63.0201C1452.5 64.1757 1454.07 65.2189 1455.54 66.3174C1455.79 65.0088 1456.92 63.9526 1458.59 63.9766C1461.75 64.019 1463.66 67.849 1464.6 70.3832C1465.19 71.9517 1465.69 74.4344 1464.77 75.8683C1465.01 76.224 1465.25 76.5834 1465.48 76.9484C1467.83 80.6972 1469.4 85.0193 1469.58 89.4649C1469.61 90.2906 1469.85 92.1632 1469.31 92.8599C1468.88 93.4165 1467.86 93.3981 1467.26 93.352C1465.67 93.2285 1464.14 92.6903 1462.55 93.0442C1462.55 93.0405 1462.54 93.0368 1462.54 93.0331C1462.47 92.9815 1462.37 93.0313 1462.26 93.1474C1462.02 93.3188 1461.83 93.7409 1461.7 94.1998C1461.5 94.7822 1461.42 95.4218 1461.67 95.7149C1461.7 95.748 1461.72 95.7738 1461.75 95.7904C1462.75 96.5129 1463.83 97.0585 1465 97.4234C1465.37 97.5395 1465.77 96.7802 1465.95 96.0356C1467.39 96.2088 1468.74 96.1277 1469.66 94.6864C1470.59 93.2451 1470.75 91.3633 1470.81 89.6953C1470.88 87.8964 1470.75 86.1049 1470.44 84.3337C1469.66 80.0024 1467.78 76.0655 1465.25 72.56C1465.26 72.571 1465.27 72.5839 1465.28 72.595C1465.32 72.6374 1465.36 72.6558 1465.4 72.6576C1468.18 76.6682 1470.67 80.865 1472.85 85.2202C1472.87 85.2165 1472.89 85.2092 1472.91 85.2055C1473.18 84.6986 1473.54 84.2544 1474.03 83.989C1475.37 83.2794 1476.62 84.4166 1477.36 85.4322C1478 86.3077 1479.12 88.2927 1479.8 90.3238C1480.2 91.1476 1480.5 91.9051 1480.67 92.3807C1481.4 94.4431 1482.2 97.6667 1481.48 100.105C1481.62 100.595 1481.75 101.087 1481.88 101.58C1481.87 101.602 1481.86 101.626 1481.84 101.648C1481.64 101.41 1481.25 101.933 1481.13 102.142C1480.84 102.673 1480.61 103.465 1480.76 104.075L1481.74 107.997C1481.89 108.615 1482.41 107.938 1482.54 107.693C1482.55 107.671 1482.56 107.643 1482.58 107.621C1482.73 107.485 1482.88 107.282 1482.93 107.19C1482.95 107.162 1482.96 107.135 1482.98 107.105C1483.01 107.35 1483.05 107.595 1483.08 107.842C1483.13 108.25 1483.28 108.37 1483.5 108.255C1483.45 109.072 1483.49 109.89 1483.65 110.705C1484.19 115.886 1487.09 120.753 1488.41 125.816C1488.69 126.895 1488.86 127.949 1488.93 128.99C1488.8 129.259 1488.71 129.493 1488.7 129.554C1488.47 130.872 1488.15 132.155 1487.74 133.406C1488.06 131.152 1488.19 128.876 1487.97 126.576C1487.95 126.31 1487.89 126.174 1487.81 126.128C1487.78 125.949 1487.75 125.772 1487.72 125.593C1487.61 125.026 1487.13 125.56 1486.99 125.77C1486.66 126.275 1486.49 126.987 1486.51 127.588C1486.53 127.925 1486.53 128.262 1486.53 128.599C1485.58 132.317 1484.75 136.064 1484.04 139.837C1483.93 139.724 1483.8 139.618 1483.66 139.52C1482.07 138.361 1481.2 139.603 1480.55 141.064C1478.96 144.627 1477.96 148.431 1477.27 152.261C1476.91 154.213 1476.64 156.178 1476.39 158.146C1476.17 159.84 1475.63 161.847 1475.97 163.55C1476.26 164.973 1477.46 165.591 1478.72 164.811C1478.9 164.702 1479.06 164.582 1479.22 164.452C1479.21 164.931 1479.31 165.279 1479.64 164.929C1480.54 163.991 1481.31 162.981 1481.97 161.915C1482.01 161.993 1482.08 162.028 1482.18 162.02C1481.93 162.485 1481.76 163.021 1481.78 163.536C1481.79 163.777 1481.91 164.52 1482.3 164.068C1482.35 164.005 1482.41 163.941 1482.46 163.876V163.88C1482.46 163.88 1482.46 163.871 1482.47 163.867C1482.48 163.854 1482.49 163.84 1482.5 163.827C1482.5 163.838 1482.51 163.847 1482.52 163.858C1481.61 166.037 1480.96 168.307 1480.99 170.687C1481.03 173.374 1482.14 176.166 1484.47 177.571C1483.24 179.779 1482.09 182.029 1481.02 184.318C1478.33 183.144 1475.33 182.978 1472.56 183.693C1473.19 182.566 1473.66 181.356 1473.97 180.074C1474.04 179.784 1474.35 178.693 1473.88 178.559C1473.74 178.518 1473.61 178.603 1473.49 178.745C1473.39 178.35 1473.1 178.234 1472.71 178.92C1472.59 179.134 1472.46 179.346 1472.34 179.558C1472.28 179.567 1472.21 179.607 1472.13 179.694C1472.11 179.723 1472.08 179.751 1472.06 179.781C1471.94 179.77 1471.81 179.862 1471.69 180.057C1471.56 180.262 1471.42 180.463 1471.29 180.665C1470.56 181.535 1469.85 182.425 1469.17 183.34C1469.62 182.556 1470.05 181.769 1470.48 180.977C1470.56 180.879 1470.64 180.757 1470.7 180.636L1471.92 178.258C1472.15 177.812 1472.56 176.817 1472.29 176.325C1472.01 175.835 1471.69 176.24 1471.49 176.629C1464.88 189.514 1456.2 201.262 1445.84 211.382C1445.39 211.825 1445.16 212.597 1445.13 213.216C1445.12 213.27 1445.12 213.342 1445.13 213.423C1440.79 217.594 1434.68 220.038 1429.35 222.471C1429.62 222.155 1429.8 221.733 1429.93 221.363C1430 221.153 1430.2 220.323 1429.86 220.228C1429.65 220.167 1429.48 220.46 1429.36 220.738C1429.32 220.766 1429.3 220.784 1429.23 220.817C1429.08 220.884 1428.94 220.898 1428.78 220.871C1428.42 220.81 1428.19 221.556 1428.13 221.8C1428.06 222.045 1428 222.305 1428.02 222.559C1428.03 222.668 1428.05 222.911 1428.19 222.935C1428.23 222.942 1428.27 222.944 1428.31 222.948C1424.24 224.819 1420.18 226.713 1416.09 228.534C1414.08 229.428 1412.05 230.291 1409.99 231.063C1410.51 230.788 1411.01 230.46 1411.48 230.079C1411.89 229.749 1412.18 227.746 1411.63 228.192C1410.44 229.148 1409.08 229.734 1407.62 229.939C1407.87 229.331 1408.02 228.534 1407.7 228.547C1407.45 228.556 1407.22 228.586 1406.98 228.621C1406.95 228.479 1406.89 228.4 1406.79 228.439C1406.72 228.468 1406.65 228.494 1406.57 228.521C1406.56 228.516 1406.55 228.51 1406.54 228.505C1406.46 228.461 1406.37 228.52 1406.26 228.639C1402.49 230.051 1398.49 230.534 1394.48 230.044C1393.88 229.972 1393.43 232.053 1393.89 232.108C1395.99 232.364 1398.09 232.359 1400.16 232.099C1399.76 232.298 1399.35 232.475 1398.92 232.613C1395.67 233.655 1392.06 232.414 1388.96 233.977C1388.14 233.878 1387.33 233.758 1386.51 233.61C1385.76 233.472 1385.07 236.246 1385.72 236.362C1390.39 237.206 1395.17 237.267 1399.84 236.486C1404.87 235.645 1409.66 233.846 1414.31 231.822C1418.97 229.791 1423.57 227.613 1428.2 225.491C1432.12 223.694 1436.12 221.988 1439.8 219.73C1443.55 217.435 1446.82 214.551 1448.97 210.675C1449.01 210.592 1449.07 210.489 1449.12 210.371C1454.85 204.346 1460.03 197.81 1464.58 190.858C1464.58 190.863 1464.58 190.869 1464.58 190.872C1464.59 191.118 1464.71 191.853 1465.1 191.405C1465.86 190.53 1466.61 189.634 1467.33 188.727C1467.37 188.698 1467.41 188.668 1467.44 188.64C1467.5 188.631 1467.57 188.592 1467.65 188.508C1467.66 188.489 1467.68 188.471 1467.7 188.452C1471.35 185.778 1476.34 185.251 1480.51 187.199C1480.75 187.313 1481.06 186.777 1481.12 186.637C1482.57 183.493 1484.16 180.424 1485.9 177.432C1486.11 177.08 1486.7 175.497 1486.08 175.243C1483.81 174.303 1482.47 172.005 1482.26 169.607C1482.01 166.805 1483.49 164.149 1484.72 161.735C1484.87 161.444 1485.1 160.916 1485.16 160.45C1485.27 160.229 1485.38 160.01 1485.49 159.787C1486.5 158.614 1487.23 157.162 1487.69 155.677C1488.72 152.337 1488.28 148.87 1487.53 145.525C1487.49 145.35 1487.42 145.28 1487.34 145.272C1487.57 144.824 1487.76 144.364 1487.92 143.982C1488.57 142.461 1489.1 140.884 1489.52 139.284L1489.53 139.278ZM1384.31 222.148C1384.34 222.165 1384.38 222.181 1384.41 222.198C1384.36 222.299 1384.3 222.413 1384.26 222.539C1384.25 222.537 1384.25 222.533 1384.25 222.531C1384.24 222.524 1384.23 222.518 1384.22 222.511C1384.23 222.349 1384.22 222.205 1384.19 222.096C1384.23 222.115 1384.27 222.128 1384.31 222.146L1384.31 222.148ZM1340.56 194.874C1340.35 194.505 1340.2 194.109 1340.32 193.786C1340.38 193.624 1340.54 193.473 1340.72 193.338C1340.61 193.843 1340.56 194.361 1340.56 194.874ZM1344.34 192.236C1344.64 192.225 1344.93 192.227 1345.23 192.242C1345.07 192.34 1344.92 192.446 1344.77 192.557C1344.63 192.446 1344.49 192.34 1344.34 192.236ZM1345.08 199.01C1345.09 198.951 1345.11 198.89 1345.12 198.831C1345.27 199.034 1345.42 199.235 1345.57 199.432C1345.4 199.294 1345.24 199.152 1345.08 199.01ZM1354.07 203.404C1353.73 203.31 1353.4 203.186 1353.07 203.044C1353.12 202.958 1353.16 202.869 1353.2 202.779C1353.26 202.748 1353.33 202.713 1353.39 202.672C1353.54 202.749 1353.7 202.827 1353.86 202.897C1354.19 203.042 1354.53 203.168 1354.87 203.26C1354.79 203.466 1354.56 203.54 1354.07 203.404ZM1355.81 203.697C1355.83 203.603 1355.84 203.509 1355.85 203.413C1356.25 203.418 1356.62 203.343 1356.96 203.159C1357.58 203.181 1358.18 202.993 1358.64 202.46C1358.7 202.381 1358.77 202.301 1358.83 202.222C1359.01 202.628 1359.17 203.037 1359.32 203.455C1358.21 203.715 1356.99 203.763 1355.81 203.699V203.697ZM1361.01 212.077C1360.69 212.551 1360.35 213.008 1359.97 213.447C1359.89 213.436 1359.81 213.423 1359.74 213.412C1359.76 213.143 1359.74 212.918 1359.67 212.82C1359.97 212.547 1360.25 212.241 1360.52 211.934C1360.7 211.723 1360.87 211.508 1361.04 211.288C1360.99 211.583 1360.97 211.884 1361.01 212.077ZM1363.19 213.386C1363.17 213.421 1363.15 213.48 1363.14 213.552C1363.09 213.561 1363.04 213.572 1362.99 213.579C1363.07 213.489 1363.15 213.395 1363.23 213.299C1363.22 213.329 1363.21 213.356 1363.19 213.386H1363.19ZM1364.75 212.763C1364.7 212.815 1364.64 212.862 1364.59 212.907C1364.75 212.61 1364.91 212.311 1365.06 212.007C1364.96 212.26 1364.86 212.512 1364.75 212.761V212.763ZM1365.4 209.167C1365.44 208.966 1365.48 208.765 1365.52 208.563C1365.53 208.612 1365.54 208.662 1365.55 208.712C1365.5 208.865 1365.45 209.016 1365.4 209.167H1365.4ZM1366.67 200.116C1366.9 200.438 1367.11 200.768 1367.32 201.103C1367.11 200.77 1366.89 200.442 1366.67 200.116ZM1360.31 223.344C1359.57 223.269 1358.83 223.197 1358.09 223.132C1359.36 223.143 1360.63 223.193 1361.9 223.28C1361.37 223.294 1360.84 223.315 1360.31 223.344ZM1362.71 226.758C1364.2 227.051 1365.7 227.34 1367.19 227.635C1368.34 227.86 1369.48 228.083 1370.63 228.308C1367.96 227.987 1365.31 227.469 1362.71 226.759V226.758ZM1336.41 216.254C1336.52 216.37 1336.63 216.486 1336.73 216.604C1335.88 216.132 1335.05 215.622 1334.23 215.08C1334.06 214.766 1333.88 214.464 1333.69 214.169C1334.62 214.831 1335.53 215.526 1336.41 216.254ZM1323.02 212.593C1323.37 212.803 1323.72 213.012 1324.08 213.218C1324.06 213.316 1324.05 213.412 1324.05 213.5C1323.68 213.255 1323.31 213.012 1322.94 212.77C1322.97 212.713 1323 212.654 1323.02 212.593ZM1315.66 207.571C1315.77 207.635 1315.88 207.698 1316 207.763C1316.02 207.847 1316.07 207.917 1316.13 207.965C1316.66 208.358 1317.19 208.741 1317.72 209.119C1317.71 209.2 1317.71 209.276 1317.71 209.348L1314.36 207.162C1314.79 207.317 1315.22 207.453 1315.66 207.571ZM1309.47 204.543C1308.8 204.194 1308.12 203.876 1307.42 203.582C1307.23 203.367 1307.05 203.151 1306.86 202.936C1307.72 203.494 1308.59 204.03 1309.48 204.545L1309.47 204.543ZM1301.23 199.188C1301.35 199.024 1301.46 198.822 1301.56 198.602C1302.1 199.133 1302.67 199.649 1303.25 200.149C1303.26 200.302 1303.29 200.42 1303.37 200.475C1303.39 200.497 1303.42 200.517 1303.45 200.538L1303.46 200.541C1303.84 200.829 1304.22 201.115 1304.61 201.393C1304.35 201.89 1304.16 202.624 1304.39 202.886C1305.04 203.64 1305.68 204.392 1306.33 205.145C1306.34 205.274 1306.35 205.379 1306.38 205.433C1306.68 205.96 1307.01 206.454 1307.36 206.922C1305.14 207.484 1303.06 208.478 1301.2 209.891C1300.52 210.407 1299.89 210.975 1299.3 211.585C1298.76 212.133 1298.51 212.398 1297.72 212.098C1297.33 211.95 1296.93 211.572 1296.6 211.342C1295.32 210.487 1294.05 209.631 1292.78 208.774C1295.93 205.894 1298.76 202.681 1301.23 199.19V199.188ZM1276 154.674L1274.52 146.629C1275.24 149.263 1275.93 151.926 1276.02 154.644C1276.01 154.654 1276 154.665 1276 154.674ZM1276.77 131.174C1276.71 130.607 1276.66 130.039 1276.6 129.471C1276.74 129.433 1276.88 129.398 1277.03 129.368C1276.93 129.969 1276.84 130.57 1276.77 131.174ZM1300.52 70.2118C1300.35 70.2874 1300.18 70.3519 1300.01 70.4035C1300.04 70.3132 1300.08 70.2229 1300.13 70.1326C1302.03 67.8692 1304.06 65.722 1306.21 63.7001C1304.31 65.8713 1302.42 68.0425 1300.52 70.2118ZM1304.73 69.0212C1304.22 69.6128 1303.69 70.2045 1303.17 70.7906C1302.85 71.1463 1301.81 72.0255 1301.46 71.432C1301.65 71.2845 1301.83 71.1316 1302.01 70.973C1303.37 69.7713 1304.62 68.4222 1305.86 67.1044C1307.44 65.4364 1308.96 63.7186 1310.42 61.9584C1308.68 64.4319 1306.71 66.7652 1304.73 69.0212ZM1314.81 53.952C1314.72 54.1879 1314.63 54.422 1314.54 54.6542C1314.51 54.5731 1314.47 54.5197 1314.41 54.5197C1314.17 54.5178 1313.95 54.5326 1313.72 54.5547C1314.08 54.3482 1314.44 54.1455 1314.81 53.952H1314.81ZM1313.66 56.5876C1313.58 56.7461 1313.51 56.9065 1313.43 57.0631C1313.38 56.8843 1313.28 56.7424 1313.08 56.9489C1312.86 57.1848 1312.64 57.4189 1312.42 57.6548C1312.54 57.0945 1312.54 56.5895 1312.19 56.8604C1310.42 58.2114 1308.73 59.638 1307.09 61.1327C1308.78 58.9413 1310.78 56.6411 1313.66 56.5876H1313.66ZM1370.49 56.1305C1368.67 51.3864 1368.57 46.0783 1371.94 42.1506C1370.03 46.5095 1369.44 51.4785 1370.49 56.1305ZM1373.35 45.2783C1373.22 45.9732 1373.14 46.6773 1373.13 47.3832C1373 47.4053 1372.87 47.5214 1372.77 47.667C1372.49 46.622 1372.44 45.5437 1372.74 44.5061C1372.9 43.9439 1373.19 43.4205 1373.54 42.9321C1373.41 43.7117 1373.35 44.4969 1373.35 45.2802L1373.35 45.2783ZM1377.67 39.2274C1377.41 39.2274 1377.14 39.2366 1376.88 39.2588C1376.82 39.2643 1376.77 39.2698 1376.72 39.2753C1376.72 39.2588 1376.73 39.2422 1376.73 39.2238C1377.01 38.986 1377.33 38.7906 1377.7 38.6542C1377.92 38.5713 1378.15 38.5068 1378.39 38.457C1378.14 38.6948 1377.9 38.9528 1377.68 39.2256L1377.67 39.2274ZM1384.02 48.3932C1383.74 48.2992 1383.47 48.1849 1383.21 48.0633C1383.27 47.9748 1383.33 47.8771 1383.4 47.7702C1383.42 47.7241 1383.44 47.6744 1383.47 47.6265C1383.84 47.7665 1384.2 47.8937 1384.54 48.0135C1385.17 48.2347 1385.9 48.4817 1386.68 48.6881C1385.8 48.8042 1384.89 48.6881 1384.02 48.3932H1384.02ZM1401.13 41.7838C1401.09 42.0197 1401.06 42.2409 1401.07 42.4307C1400.4 41.8115 1399.61 41.2622 1398.78 40.7351C1399.55 41.0355 1400.36 41.382 1401.13 41.7838H1401.13ZM1396.59 39.2532C1396.59 39.3251 1396.59 39.3951 1396.6 39.4615C1396.46 39.3859 1396.32 39.3085 1396.18 39.2348C1396.32 39.2403 1396.46 39.2477 1396.59 39.2532ZM1391.1 45.4903C1391.18 45.5401 1391.26 45.588 1391.35 45.6396C1391.39 45.6654 1391.43 45.6912 1391.47 45.717C1391.34 45.7465 1391.22 45.7723 1391.09 45.7944C1391.1 45.693 1391.1 45.5917 1391.1 45.4903ZM1390.08 49.1102C1390.96 49.0493 1391.79 48.8116 1392.47 48.2918C1392.88 47.9822 1393.21 47.608 1393.48 47.1915C1393.48 47.1952 1393.49 47.197 1393.49 47.2007C1393.63 47.3242 1393.8 47.5195 1393.96 47.6375C1393.85 47.7518 1393.75 47.8568 1393.68 47.9121C1392.61 48.7655 1391.27 49.2336 1389.86 49.4493C1389.93 49.3387 1390.01 49.2263 1390.08 49.112V49.1102ZM1388.59 45.6672C1388.63 45.5603 1388.66 45.4534 1388.69 45.3447C1388.8 45.47 1388.91 45.599 1389 45.7336C1388.87 45.7133 1388.73 45.6912 1388.59 45.6672H1388.59ZM1398.7 52.6802C1395.96 54.3114 1392.46 55.2477 1389.18 55.6532C1389.58 54.8864 1389.74 53.6442 1389.57 53.2203C1390.39 53.0433 1391.21 52.8461 1392.02 52.6489C1393.29 52.3356 1394.64 52.0186 1395.65 51.1228C1396.79 50.1091 1397.37 48.4411 1397.46 46.9482C1397.57 45.1327 1396.79 43.767 1395.65 42.6538C1396.7 43.2196 1397.73 43.8333 1398.72 44.5042C1400.18 45.494 1401.77 46.8136 1401.78 48.7434C1401.78 50.4925 1400.07 51.8656 1398.7 52.6784L1398.7 52.6802ZM1395.23 48.6107C1395.47 48.1775 1395.64 47.7297 1395.75 47.2818C1395.86 47.5638 1395.9 47.8402 1395.97 48.1296C1395.94 48.148 1395.91 48.1683 1395.87 48.1868C1395.7 48.2715 1395.55 48.4282 1395.39 48.5259C1395.34 48.5554 1395.28 48.583 1395.23 48.6107H1395.23ZM1419.44 29.9695C1419.36 30.2497 1419.32 30.5372 1419.31 30.7879C1419.26 30.8321 1419.21 30.8874 1419.17 30.9501C1418.82 30.8081 1418.46 30.6699 1418.11 30.5372C1418.56 30.3787 1419.01 30.1888 1419.44 29.9677L1419.44 29.9695ZM1426.62 42.2759C1425.38 43.4647 1423.13 41.8225 1422.14 41.0429C1421.86 40.8236 1421.49 40.5194 1421.11 40.1637C1419.46 38.9178 1417.48 36.7632 1418.94 35.3809C1420.77 33.641 1423.49 36.1439 1424.8 37.3456C1425.57 38.0607 1426.58 38.9565 1426.94 39.985C1427.18 40.6835 1427.2 41.723 1426.62 42.2741V42.2759ZM1444.1 51.7071C1444.25 51.7108 1444.41 51.7126 1444.57 51.7145C1444.54 51.9578 1444.54 52.1752 1444.58 52.3301C1444.39 52.2434 1444.2 52.1568 1444 52.072C1444.04 51.9522 1444.07 51.8287 1444.1 51.7071H1444.1ZM1440.22 56.7517C1440.17 56.6042 1440.15 56.4328 1440.12 56.2669L1440.39 56.2632C1440.71 56.2982 1441.02 56.4052 1441.31 56.5489C1441.21 56.7295 1441.12 56.8991 1441.11 56.9452C1440.9 57.4465 1440.68 58.2169 1440.96 58.7348C1441.48 59.7117 1442.01 60.6959 1442.57 61.6561C1441.52 60.1761 1440.72 58.521 1440.22 56.7517ZM1443.94 59.6822C1443.85 59.4758 1443.76 59.2656 1443.68 59.0555C1444.16 59.367 1444.62 59.7154 1445.04 60.095C1445.82 61.1862 1446.44 62.3657 1446.89 63.6043C1445.76 62.4339 1444.8 61.0903 1443.94 59.6822ZM1450.03 66.7118C1450.05 66.5809 1450.06 66.4832 1450.06 66.4371C1450.06 66.2197 1450.05 66.0022 1450.04 65.7865C1450.19 66.1496 1450.32 66.5201 1450.43 66.8979C1450.32 66.8113 1450.19 66.7468 1450.03 66.7099L1450.03 66.7118ZM1456.03 61.7888C1455.99 62.48 1455.16 62.9039 1454.63 62.3713C1454.33 62.069 1454.03 61.7649 1453.74 61.446C1453.36 61.2083 1453 60.9244 1452.68 60.6019C1451.06 59.5126 1449.51 57.8833 1450.45 56.6171C1450.52 56.254 1450.89 55.9554 1451.26 55.961C1453.59 54.8735 1456.8 58.6021 1456.03 60.9613C1456.04 61.0258 1456.03 61.0885 1456.02 61.1475C1456.04 61.3594 1456.05 61.5732 1456.03 61.787V61.7888ZM1468.95 73.9036C1468.61 73.3543 1468.26 72.8088 1467.9 72.2669C1468.29 72.7313 1468.68 73.1995 1469.06 73.6695C1469.02 73.7451 1468.98 73.8243 1468.95 73.9054V73.9036ZM1488.71 137.767C1488.76 137.572 1488.81 137.376 1488.87 137.179C1488.77 137.78 1488.65 138.373 1488.49 138.96C1488.57 138.563 1488.64 138.165 1488.71 137.765V137.767ZM1478.96 160.526C1478.99 159.982 1479.03 159.435 1479.08 158.885C1479.11 158.92 1479.15 158.948 1479.2 158.963C1479.24 159.394 1479.3 159.825 1479.36 160.255C1479.24 160.36 1479.1 160.45 1478.96 160.524V160.526ZM1481.57 150.188C1481.36 150.494 1481.22 150.956 1481.17 151.133C1480.97 151.734 1480.78 152.337 1480.58 152.938C1480.76 151.248 1481.16 149.605 1481.79 148.028C1481.73 148.75 1481.66 149.471 1481.57 150.188ZM1481.9 142.367C1481.87 142.447 1481.84 142.528 1481.81 142.609C1480.35 144.341 1479.85 147.816 1479.56 149.408C1479.46 149.915 1479.38 150.422 1479.31 150.931C1478.45 154.654 1477.91 158.441 1477.7 162.256C1476.66 161.587 1477.33 159.407 1477.45 158.439C1477.63 156.904 1477.83 155.371 1478.07 153.843C1478.5 151.109 1479.04 148.391 1479.87 145.75C1480.12 144.963 1480.82 141.833 1481.83 141.746C1481.95 141.737 1482.06 141.752 1482.17 141.78C1482.06 141.997 1481.97 142.202 1481.9 142.367H1481.9ZM1402.38 233.369C1401.76 233.505 1401.14 233.623 1400.51 233.728C1401.99 232.856 1403.36 231.749 1404.92 231.115C1404.82 231.585 1404.84 232.029 1405.05 232.047C1405.91 232.127 1406.76 232.082 1407.57 231.926C1405.87 232.493 1404.14 232.985 1402.38 233.369H1402.38ZM1483.96 145.368C1484 145.329 1484.04 145.291 1484.09 145.252C1484.08 145.366 1484.08 145.475 1484.09 145.582C1484.02 145.687 1483.96 145.812 1483.9 145.947C1483.92 145.753 1483.94 145.562 1483.96 145.368ZM1482.45 154.565C1482.47 154.51 1482.48 154.455 1482.49 154.397C1482.93 152.602 1483.27 150.792 1483.54 148.969C1483.35 150.872 1482.96 152.733 1482.45 154.565H1482.45ZM1482.75 158.061C1483.51 156.113 1484.13 154.112 1484.6 152.073C1484.18 154.143 1483.62 156.176 1482.75 158.061ZM1485.8 144.36C1485.8 144.36 1485.8 144.36 1485.79 144.36C1485.77 144.052 1485.74 143.748 1485.7 143.442C1485.91 143.167 1486.11 142.891 1486.3 142.605C1486.14 143.191 1485.97 143.776 1485.8 144.362V144.36ZM1487.78 136.696C1487.47 137.992 1486.95 139.216 1486.24 140.338C1486.38 139.818 1486.51 139.297 1486.65 138.775C1487.09 137.905 1487.49 137.019 1487.85 136.114C1487.83 136.307 1487.81 136.501 1487.78 136.696Z" fill="#240057"/>
<path fill-rule="evenodd" clip-rule="evenodd" d="M1373.84 29.3465C1373.64 29.3483 1373.43 29.3575 1373.23 29.3686C1373.71 29.4147 1374.18 29.4663 1374.65 29.5289C1374.91 29.564 1375.1 29.6893 1375.23 29.8589C1375.61 29.8202 1375.99 29.7851 1376.37 29.7483C1375.6 29.3907 1374.67 29.3336 1373.84 29.3446V29.3465Z" fill="#240057"/>
<path fill-rule="evenodd" clip-rule="evenodd" d="M1419.75 224.349C1418.66 225.589 1417.2 226.337 1415.55 226.465C1414.89 226.514 1414.61 228.556 1414.96 228.529C1416.78 228.389 1418.39 227.613 1419.6 226.236C1419.92 225.869 1420.11 225.348 1420.14 224.861C1420.15 224.679 1420.08 223.976 1419.75 224.349Z" fill="#240057"/>
</g>
<path opacity="0.7" d="M79.2056 11.7493C79.33 10.8694 80.0876 9.64672 81.0147 9.44102C81.0712 9.32675 81.1164 9.21249 81.1843 9.09822C82.982 5.93285 87.0975 5.55573 90.2859 6.36707C93.5648 7.20127 96.6967 9.70386 96.9793 13.3035C97.2394 16.5831 95.012 20.2741 92.2758 21.9768C89.0422 23.9765 84.4631 22.8224 81.7496 20.4341C78.923 17.9429 78.7081 15.3032 79.2169 11.7607L79.2056 11.7493Z" fill="#B2DDFF"/>
<path opacity="0.7" d="M211.709 63.169C211.709 62.4755 212.134 61.905 213.007 61.5247C213.387 61.357 213.813 61.2563 214.26 61.2004C214.305 60.8648 214.54 60.574 215.11 60.3727C218.445 59.1982 224.498 60.8201 224.945 64.9474C225.236 67.6207 224.408 70.0143 221.6 70.7414C218.411 71.5691 213.455 70.3946 211.609 67.4417C210.713 66.01 210.859 64.3994 211.698 63.169H211.709Z" fill="#B2DDFF"/>
<path opacity="0.7" d="M969.709 3.169C969.709 2.47552 970.134 1.90504 971.007 1.52474C971.387 1.35696 971.813 1.25632 972.26 1.20039C972.305 0.864833 972.54 0.574028 973.11 0.372694C976.445 -0.801755 982.498 0.820065 982.945 4.94741C983.236 7.62068 982.408 10.0143 979.6 10.7414C976.411 11.5691 971.455 10.3946 969.609 7.4417C968.713 6.00999 968.859 4.39938 969.698 3.169H969.709Z" fill="#B2DDFF"/>
<path opacity="0.7" d="M1004.71 135.169C1004.71 134.476 1005.13 133.905 1006.01 133.525C1006.39 133.357 1006.81 133.256 1007.26 133.2C1007.3 132.865 1007.54 132.574 1008.11 132.373C1011.44 131.198 1017.5 132.82 1017.95 136.947C1018.24 139.621 1017.41 142.014 1014.6 142.741C1011.41 143.569 1006.45 142.395 1004.61 139.442C1003.71 138.01 1003.86 136.399 1004.7 135.169H1004.71Z" fill="#B2DDFF"/>
<g opacity="0.7">
<path d="M1331.98 446.168C1332.91 444.812 1331.02 443.27 1329.81 444.38C1321.59 451.956 1305.35 467.786 1301.09 472.703C1294.77 479.993 1278.73 499.923 1269.5 509.641C1260.27 519.359 1221.95 561.03 1221.95 561.03L1234.5 570.879C1234.5 570.879 1276.31 516.932 1283.11 509.641C1289.22 503.09 1316.16 469.296 1331.98 446.168Z" fill="#515092"/>
<path d="M1221.26 557.847C1222.9 556.028 1225.74 555.419 1228.57 555.55C1229.11 554.887 1230.69 555.003 1231.34 555.095C1236.19 555.774 1240.29 558.956 1240.75 564.051C1241.16 568.69 1238.52 572.99 1234 574.331C1229.57 575.642 1223.61 574.046 1220.72 570.339C1218.2 567.11 1218.5 560.906 1221.26 557.854V557.847Z" fill="#57B6FF"/>
</g>
<path opacity="0.7" d="M1182.71 356.169C1182.71 355.476 1183.13 354.905 1184.01 354.525C1184.39 354.357 1184.81 354.256 1185.26 354.2C1185.3 353.865 1185.54 353.574 1186.11 353.373C1189.44 352.198 1195.5 353.82 1195.95 357.947C1196.24 360.621 1195.41 363.014 1192.6 363.741C1189.41 364.569 1184.45 363.395 1182.61 360.442C1181.71 359.01 1181.86 357.399 1182.7 356.169H1182.71Z" fill="#7DC6FF"/>
<path opacity="0.7" d="M1110.21 298.749C1110.33 297.869 1111.09 296.647 1112.01 296.441C1112.07 296.327 1112.12 296.212 1112.18 296.098C1113.98 292.933 1118.1 292.556 1121.29 293.367C1124.56 294.201 1127.7 296.704 1127.98 300.303C1128.24 303.583 1126.01 307.274 1123.28 308.977C1120.04 310.977 1115.46 309.822 1112.75 307.434C1109.92 304.943 1109.71 302.303 1110.22 298.761L1110.21 298.749Z" fill="#7DC6FF"/>
<path opacity="0.7" d="M184.709 230.169C184.709 229.476 185.134 228.905 186.007 228.525C186.387 228.357 186.813 228.256 187.26 228.2C187.305 227.865 187.54 227.574 188.11 227.373C191.445 226.198 197.498 227.82 197.945 231.947C198.236 234.621 197.408 237.014 194.6 237.741C191.411 238.569 186.455 237.395 184.609 234.442C183.713 233.01 183.859 231.399 184.698 230.169H184.709Z" fill="#B2DDFF"/>
<path opacity="0.7" d="M207.206 184.749C207.33 183.869 208.088 182.647 209.015 182.441C209.071 182.327 209.116 182.212 209.184 182.098C210.982 178.933 215.098 178.556 218.286 179.367C221.565 180.201 224.697 182.704 224.979 186.303C225.239 189.583 223.012 193.274 220.276 194.977C217.042 196.977 212.463 195.822 209.75 193.434C206.923 190.943 206.708 188.303 207.217 184.761L207.206 184.749Z" fill="#B2DDFF"/>
</svg>
