<svg width="295" height="672" viewBox="0 0 295 672" fill="none" xmlns="http://www.w3.org/2000/svg">
<g opacity="0.7">
<path fill-rule="evenodd" clip-rule="evenodd" d="M64.9537 49.6899C64.7806 48.4758 64.5467 47.2666 64.2482 46.0668C62.6122 39.4948 59.2018 33.7947 54.6509 29.2636C54.338 28.1177 54.0251 26.9711 53.7122 25.8252C53.6018 25.421 53.4866 25.0065 53.2385 24.6698C52.7954 24.0685 52.0258 23.8286 51.3202 23.5832C48.6644 22.6595 46.2097 21.1632 44.1722 19.2259C43.5989 18.6806 42.9261 18.0541 42.1442 18.1721C41.8143 18.2218 41.5205 18.4025 41.2315 18.5695C40.4578 19.0146 39.6391 19.3814 38.7931 19.6663C31.9287 17.4597 24.4071 17.0596 17.0975 18.8796C14.0866 19.6295 11.2399 20.7502 8.59162 22.181C8.18466 22.1217 7.78111 22.0412 7.38233 21.9329C5.8772 21.5232 4.43546 20.669 3.62427 19.3364C2.58335 20.2498 1.54312 21.1639 0.502207 22.0781C1.44155 23.2907 1.87441 24.8831 1.67877 26.4039C1.6481 26.6432 1.5997 26.8798 1.53903 27.1129C-6.41609 34.1328 -11.4366 44.3538 -11.9745 55.0567C-12.6704 55.8659 -13.3671 56.675 -14.0631 57.4841C-14.3958 57.8707 -14.7359 58.2701 -14.8934 58.7548C-15.1047 59.4044 -14.9609 60.1093 -14.815 60.7766C-14.3235 63.0268 -13.832 65.277 -13.3398 67.5272C-13.2519 67.9294 -13.1592 68.3432 -12.9261 68.6827C-12.4135 69.4291 -11.4114 69.5982 -10.5627 69.9131C-10.1919 70.0508 -9.83605 70.228 -9.50135 70.4393C-8.14277 73.9275 -6.28044 77.1463 -4.02069 80.0291C-3.92185 80.6897 -3.90208 81.357 -3.99479 82.0196C-4.2102 83.5568 -5.11205 85.0564 -6.52993 85.689C-6.64309 85.7395 -6.77124 85.7981 -6.80669 85.9167C-6.84214 86.0353 -6.67445 86.1751 -6.59946 86.0769L-4.42356 87.4778C-3.08203 86.0674 -1.18493 85.2507 0.753744 85.1144C10.0565 93.4179 23.1917 97.3095 35.8429 94.1602C44.9684 91.8882 52.6631 86.0054 57.9018 78.3747C59.6442 77.3958 61.6292 76.845 63.6285 76.8164C63.9837 75.7598 64.4547 74.7428 65.0307 73.7891C63.97 72.7591 63.1309 71.1817 63.7478 69.8381C63.9605 69.3752 64.3225 69.001 64.6285 68.594C65.9101 66.8926 66.1903 64.4897 65.3341 62.5388C66.2707 61.6819 66.6293 60.3663 66.7915 59.1072C67.2066 55.8747 66.5004 52.5584 64.9578 49.6913L64.9537 49.6899Z" fill="#A079FF"/>
<path fill-rule="evenodd" clip-rule="evenodd" d="M43.239 30.9678C43.2144 30.8955 43.1728 30.8567 43.1088 30.8723C42.815 30.9453 42.62 31.8853 42.7727 32.0946C42.9343 31.7217 43.0897 31.3461 43.239 30.9678Z" fill="#240057"/>
<path fill-rule="evenodd" clip-rule="evenodd" d="M38.9541 36.7279C37.5294 37.1281 36.0236 37.2917 34.5519 37.4028C32.7339 37.5398 30.6214 37.5732 29.0017 36.6134C28.9976 36.6113 28.9942 36.6086 28.9908 36.6059C28.8456 36.9045 28.7638 37.3326 28.9056 37.4416C29.8347 38.1567 30.9486 38.5589 32.1258 38.5555C32.6821 38.5541 33.2363 38.4682 33.7639 38.2917C34.2151 38.1403 34.8539 37.8336 35.2622 38.229C35.4606 38.4205 35.6603 37.8234 35.6896 37.732C35.5601 38.1342 35.6712 37.9352 35.9595 37.9147C36.1034 37.9045 36.252 37.9133 36.3958 37.9099C36.7482 37.9018 37.102 37.8745 37.4524 37.8329C38.2247 37.7402 38.98 37.5575 39.7149 37.3039C39.9412 37.2255 40.0871 36.6291 40.0619 36.3148C39.7156 36.5077 39.3154 36.627 38.9535 36.7286L38.9541 36.7279Z" fill="#240057"/>
<path fill-rule="evenodd" clip-rule="evenodd" d="M40.8661 36.01C40.922 35.8526 40.9581 35.7605 41.0556 35.6072C41.1252 35.4974 41.2042 35.3972 41.2901 35.3018C41.3263 35.2254 41.3631 35.1491 41.3992 35.0727C41.3917 35.0148 41.4033 34.9514 41.4421 34.8866C41.5348 34.7312 41.6235 34.5738 41.7107 34.4163C41.7114 34.4074 41.7128 34.3986 41.7134 34.3897C41.7223 34.2684 41.6882 33.8996 41.4905 34.0952C41.1033 34.4776 40.8075 34.9412 40.6078 35.4463C40.7148 35.5288 40.7639 35.6685 40.6596 35.8103C40.5914 35.903 40.513 35.9855 40.4278 36.0605C40.4169 36.1757 40.4292 36.2834 40.4919 36.3516C40.6446 36.5199 40.8368 36.0932 40.8668 36.01H40.8661Z" fill="#240057"/>
<path fill-rule="evenodd" clip-rule="evenodd" d="M55.1295 41.7014C54.7266 41.1751 54.3688 40.6168 54.0579 40.0258C54.0484 40.0074 54.0375 39.9972 54.0259 39.9904C54.3401 40.5861 54.6292 41.2685 55.1302 41.7007L55.1295 41.7014Z" fill="#240057"/>
<path fill-rule="evenodd" clip-rule="evenodd" d="M55.4685 42.7239C55.1903 42.5344 54.9211 42.3258 54.6668 42.1056C54.3682 41.8466 54.1719 41.4908 53.9763 41.1513C53.8672 40.9618 53.7595 40.7723 53.6545 40.5828C53.6259 40.7211 53.6218 40.867 53.6818 40.9809C54.1869 41.9386 54.8127 42.8125 55.5564 43.5992C55.6743 43.7239 55.8965 43.3367 55.9654 43.0088C55.7854 42.9516 55.6123 42.8221 55.4691 42.7246L55.4685 42.7239Z" fill="#240057"/>
<path fill-rule="evenodd" clip-rule="evenodd" d="M49.0436 35.2045C48.7641 34.1827 48.2249 33.0211 47.3837 32.3415C46.6509 31.7491 45.732 31.7648 45.1601 32.5726C44.9018 32.9379 44.7334 33.3599 44.6318 33.803C44.3394 34.2611 44.1696 34.8084 44.1028 35.3436C43.9481 36.5774 44.4641 37.7253 45.0265 38.7908C45.2146 39.1473 45.4553 39.6906 45.7757 40.1098C45.79 40.118 45.8036 40.1282 45.8186 40.1357C45.9399 40.1978 45.9733 40.1412 45.8779 40.2155C46.1717 39.9857 46.5834 40.3729 46.3408 40.6177C46.5712 40.7342 46.8316 40.7629 47.1267 40.6463C48.0109 40.2973 48.6107 39.3286 48.9195 38.4786C49.3019 37.4261 49.3388 36.2849 49.0436 35.2065V35.2045ZM45.0306 34.5719C44.9985 34.638 44.9726 34.7082 44.9529 34.7819C44.9386 34.6073 44.9331 34.4288 44.9427 34.2536C44.9876 34.2086 45.0374 34.1663 45.0899 34.1254C45.0654 34.274 45.0456 34.4233 45.0306 34.5719ZM45.8022 35.5037C45.7647 35.4792 45.7313 35.4451 45.7027 35.4022C45.6652 35.0968 45.657 34.7082 45.7559 34.4662C45.7954 34.3701 45.9209 34.2161 46.0701 34.0927C45.8895 34.5494 45.7886 35.0218 45.8022 35.5037ZM48.7614 37.6203C48.6707 38.3218 48.2938 38.9523 47.7355 39.3831C47.4526 39.6013 47.0742 39.8058 46.715 39.6558C46.3892 39.5195 46.186 39.1841 46.0088 38.8964C45.9597 38.8174 45.9065 38.7308 45.85 38.6394C45.8909 38.6626 45.9331 38.6838 45.9767 38.7028C46.4491 38.9094 46.7164 38.6067 46.8704 38.2107C47.3919 37.9332 47.6905 37.3231 47.7777 36.7533C47.7941 36.649 47.8534 36.3047 47.6605 36.3347C47.486 36.3627 47.3755 36.7996 47.3565 36.925C47.3565 36.9291 47.3551 36.9312 47.3544 36.9346C47.3142 36.9775 47.2849 37.0266 47.2406 37.0682C47.1997 37.1064 47.1554 37.1384 47.1104 37.1677C47.171 36.743 47.2079 36.3102 47.2685 35.9005C47.2862 35.7791 47.3442 35.4724 47.1513 35.4819C46.9829 35.4901 46.8629 35.9639 46.8472 36.0723C46.7859 36.4847 46.7252 36.8971 46.6639 37.3102C46.6543 37.3722 46.6455 37.4349 46.6359 37.497C46.5909 37.5897 46.5562 37.7035 46.5337 37.8173C46.5098 37.7983 46.3885 37.7321 46.3844 37.7301C46.2412 37.6572 46.1315 37.6278 45.9999 37.5215C45.9727 37.4997 45.9468 37.4758 45.9209 37.452C46.0599 37.4254 46.1997 37.3395 46.3224 37.1957C46.6836 36.7703 46.8118 36.1513 46.9215 35.6108C46.9406 35.5603 46.9597 35.5112 46.9768 35.4635C47.1785 34.9121 47.2978 34.3149 47.2835 33.7259C47.2822 33.6646 47.2781 33.6005 47.2719 33.5351C47.7246 33.9918 48.0484 34.5903 48.3033 35.1691C48.636 35.9243 48.8691 36.7894 48.7621 37.6197L48.7614 37.6203Z" fill="#240057"/>
<path fill-rule="evenodd" clip-rule="evenodd" d="M43.9752 40.0886C43.5744 39.3858 43.1416 38.4853 43.0877 37.6292C43.0673 37.7334 43.0591 37.8357 43.0673 37.9175C43.1627 38.8943 43.4653 39.8064 43.9957 40.634C44.0618 40.7376 44.1593 40.6251 44.2295 40.5099C44.1375 40.3667 44.053 40.2243 43.9752 40.0893V40.0886Z" fill="#240057"/>
<path fill-rule="evenodd" clip-rule="evenodd" d="M60.195 42.7703C60.178 42.7622 60.1582 42.7581 60.1343 42.7581C59.9694 42.7581 59.8453 43.2475 59.8303 43.3484C59.7274 44.0328 59.1548 44.5236 58.5379 44.7676C58.2631 44.8767 58.1404 45.8597 58.3504 45.7765C59.4281 45.3498 60.0832 44.2945 60.2516 43.1766C60.2604 43.118 60.2761 43.026 60.2734 42.9435C60.2461 42.8862 60.2202 42.8289 60.195 42.771V42.7703Z" fill="#240057"/>
<path fill-rule="evenodd" clip-rule="evenodd" d="M62.0074 71.0719C62.0381 70.9499 62.0681 70.8006 62.0231 70.6956C62.0061 70.6561 61.9815 70.6213 61.9522 70.6063C61.9434 70.5852 61.9318 70.5668 61.9161 70.5518C61.7757 70.4168 61.6284 70.7645 61.595 70.8442C61.5753 70.8913 61.5562 70.9376 61.5364 70.9846L61.4151 70.9628C61.1847 70.9212 60.974 71.605 61.0388 71.8749C60.9597 72.0399 60.8881 72.2096 60.8261 72.3841C60.7995 72.4584 60.6046 73.1551 60.8656 73.0733C61.5616 72.8545 61.9256 72.1646 62.0593 71.4898C62.0729 71.4202 62.1233 71.1155 62.0081 71.0712L62.0074 71.0719Z" fill="#240057"/>
<path fill-rule="evenodd" clip-rule="evenodd" d="M58.3416 69.2731C57.602 69.2247 56.9558 69.9323 56.4888 70.4156C55.3763 71.5663 54.5297 72.9439 53.8132 74.3679C53.4417 75.1069 53.1023 75.8615 52.7703 76.6188C52.4431 77.3646 52.1138 78.1226 52.0238 78.9399C51.9679 79.4491 51.9911 80.6693 52.801 80.5309C53.1786 80.4662 53.5733 80.0701 53.848 79.8261C54.2182 79.4989 54.5474 79.1328 54.8528 78.745C54.9878 78.5739 55.0996 78.2432 55.0593 78.0251C55.0246 77.8363 54.9428 77.7811 54.8071 77.9528C54.5392 78.2937 54.2447 78.6086 53.9203 78.8956C53.6701 79.1171 53.1991 79.627 52.8289 79.5064C52.0307 79.2467 52.6626 77.8513 52.8603 77.3898C53.015 77.0292 53.1718 76.6679 53.3327 76.3087C53.3333 76.4068 53.3579 76.49 53.4267 76.5227C53.9407 76.7688 54.4397 76.2459 54.7833 75.9262C55.2284 75.5125 55.6408 75.0653 56.0239 74.5942C56.8351 73.5969 57.4813 72.4817 57.983 71.3004C57.9926 71.2779 58.0076 71.2206 58.0212 71.1484C58.2632 71.3099 58.1098 71.8464 58.0328 72.1143C57.7853 72.9753 57.3525 73.7558 56.8024 74.4593C56.6681 74.631 56.5556 74.9603 56.5958 75.1791C56.6306 75.3673 56.7131 75.4238 56.848 75.2514C57.2557 74.7306 57.6006 74.1627 57.8815 73.5649L57.2366 74.9773C57.1582 75.1484 56.9946 75.5056 57.1003 75.6917C57.2005 75.8683 57.3279 75.7286 57.3961 75.5793C57.8092 74.6747 58.2223 73.7694 58.6354 72.8648C58.9626 72.1477 59.3409 71.4006 59.3218 70.5901C59.3082 70.0073 58.998 69.3161 58.3395 69.2731H58.3416ZM54.3783 75.4129C54.2604 75.4893 54.137 75.5431 54.0096 75.5554C54.257 75.0639 54.5338 74.5881 54.8385 74.1307C54.6408 74.5315 54.484 74.9569 54.3783 75.4129ZM55.2475 74.2125C55.2379 74.2684 55.2318 74.3216 55.2291 74.3673C55.2277 74.3911 55.227 74.4184 55.2277 74.4463C55.1541 74.5233 55.0798 74.599 55.0041 74.674C55.075 74.5159 55.1568 74.3618 55.2475 74.2118V74.2125ZM58.4043 72.4224C58.2721 72.7128 58.1391 73.0032 58.0069 73.2936C58.1766 72.8989 58.3184 72.492 58.4295 72.0768C58.5543 71.6092 58.7315 71.0318 58.6074 70.5451C58.6054 70.5383 58.6034 70.5328 58.6013 70.526C59.1303 71.01 58.6552 71.873 58.4043 72.4231V72.4224Z" fill="#240057"/>
<path fill-rule="evenodd" clip-rule="evenodd" d="M48.3139 85.6638C47.4844 86.4423 46.6554 87.2215 45.8258 87.9999C45.6561 88.1588 45.575 88.4526 45.562 88.6782C45.5559 88.7866 45.5798 89.0933 45.7536 88.9311C46.5832 88.1526 47.4121 87.3735 48.2417 86.595C48.4114 86.4362 48.4925 86.1424 48.5055 85.9167C48.5116 85.8084 48.4878 85.5016 48.3139 85.6638Z" fill="#240057"/>
<path fill-rule="evenodd" clip-rule="evenodd" d="M49.6842 85.621C49.5152 85.7662 49.3454 85.9107 49.1764 86.0559C49.0039 86.2031 48.9235 86.5167 48.9126 86.7341C48.9064 86.8514 48.9262 87.1391 49.1041 86.987C49.2732 86.8418 49.4429 86.6973 49.612 86.5521C49.7844 86.4049 49.8649 86.0913 49.8758 85.8739C49.8819 85.7566 49.8621 85.469 49.6842 85.621Z" fill="#240057"/>
<path fill-rule="evenodd" clip-rule="evenodd" d="M64.467 56.484C64.4657 56.4731 64.467 56.4568 64.4684 56.4431C64.5052 56.3245 64.5979 55.9462 64.4343 55.8903C64.27 55.8337 64.1357 56.2686 64.1098 56.3484C64.0008 56.6892 63.9715 57.0471 64.0587 57.3866C63.9237 57.5025 63.8426 57.8147 63.8256 57.9367C63.7888 58.2025 63.7526 58.4684 63.7158 58.7343C63.7036 58.8229 63.6408 59.2032 63.8331 59.1528C64.0103 59.1058 64.1173 58.7049 64.1371 58.5625C64.1739 58.2966 64.21 58.0308 64.2468 57.7649C64.2503 57.7417 64.2564 57.6995 64.2612 57.6504C64.3525 57.5734 64.4548 57.373 64.4657 57.3443C64.5413 57.1439 64.6143 56.8883 64.5209 56.6824C64.4929 56.6211 64.4745 56.5515 64.467 56.4847V56.484Z" fill="#240057"/>
<path fill-rule="evenodd" clip-rule="evenodd" d="M62.0348 56.8359C61.9203 57.0227 61.8058 57.2204 61.6974 57.4269C61.7226 57.3097 61.726 57.1965 61.6817 57.1181C61.5788 56.9368 61.4602 57.0875 61.3859 57.2306C61.0253 57.9259 60.7553 58.6608 60.589 59.427C60.5167 59.7589 60.4636 60.0964 60.4343 60.4352C60.4138 60.6717 60.3579 61.0534 60.574 61.2252C60.9919 61.5579 61.5093 60.8462 61.7097 60.5695C62.1125 60.0118 62.4145 59.3806 62.619 58.7249C62.7908 58.1741 63.0164 57.4079 62.8787 56.8257C62.726 56.1815 62.2911 56.4181 62.0355 56.8352L62.0348 56.8359ZM61.5372 59.0309C61.6879 58.8871 61.784 58.6894 61.8385 58.4801C61.7997 58.8346 61.7192 59.1809 61.5972 59.5163C61.5481 59.3547 61.5304 59.1925 61.5372 59.0309ZM60.8889 60.0098C60.8555 59.6935 61.0014 59.2572 61.0873 58.96C61.1262 58.8251 61.1725 58.6928 61.2209 58.5619C61.0525 59.1257 60.9926 59.7085 61.1432 60.2607C60.9435 60.3172 60.9101 60.2068 60.8889 60.0098ZM62.3975 58.0786C62.347 58.369 62.2618 58.6533 62.1466 58.9253C62.2543 58.4474 62.313 57.958 62.3232 57.4576C62.4288 57.5217 62.4336 57.8721 62.3975 58.0786Z" fill="#240057"/>
<path fill-rule="evenodd" clip-rule="evenodd" d="M37.9997 39.0681C36.3719 39.4519 34.6759 39.6461 33.0037 39.6141C31.5838 39.5868 29.9812 39.4287 28.7712 38.6141C28.6226 38.5139 28.6063 38.3482 28.6642 38.2201C28.5408 38.1021 28.4202 37.9767 28.2988 37.8438C28.1727 37.7061 27.87 38.3994 28.0166 38.5595C28.5933 39.1908 29.1782 39.7191 30.0378 39.9052C30.9403 40.1008 31.8994 40.0047 32.8142 39.9801C33.8251 39.9529 34.8429 39.9577 35.8518 39.884C36.3023 39.8513 36.7516 39.794 37.1851 39.6632C37.6643 39.5187 38.1122 39.2882 38.5887 39.1342C38.663 39.1103 38.7243 38.9979 38.7645 38.867C38.5116 38.9406 38.256 39.0067 38.0004 39.0667L37.9997 39.0681Z" fill="#240057"/>
<path fill-rule="evenodd" clip-rule="evenodd" d="M53.203 50.934C52.867 50.8999 52.5704 51.043 52.3394 51.2666C52.3189 51.2775 52.2985 51.2884 52.2787 51.3C52.1853 51.2584 52.0796 51.2359 51.9604 51.2407C51.3905 51.2639 51.1028 51.951 51.0599 52.4377C51.0169 52.9204 51.2855 53.3471 51.7729 53.3675C51.8745 53.6518 52.0708 53.857 52.4341 53.797C52.4989 53.7861 52.5589 53.7656 52.6161 53.7411C52.8581 53.784 53.1137 53.7581 53.3387 53.6579C53.884 53.4139 54.1451 52.7663 54.1458 52.1985C54.1458 51.6395 53.8179 50.9967 53.203 50.934ZM52.336 52.3055C52.3332 52.3709 52.3312 52.4364 52.3285 52.5018C52.3128 52.4868 52.2971 52.4718 52.2835 52.4568C52.186 52.3464 52.1594 52.2414 52.1792 52.146C52.2385 52.191 52.293 52.2448 52.3353 52.3055H52.336ZM51.4484 52.1344C51.4968 52.039 51.625 52.0069 51.7524 52.0069C51.6979 52.1726 51.6672 52.3484 51.6652 52.5229C51.4723 52.4589 51.3496 52.3294 51.4491 52.1344H51.4484ZM53.2876 52.966C53.2623 52.9722 53.2364 52.9756 53.2105 52.9797C53.291 52.7281 53.321 52.4609 53.3046 52.2428C53.2957 52.1248 53.2726 51.9442 53.2296 51.7649C53.4164 51.844 53.5732 51.9899 53.6754 52.1732C53.9031 52.5829 53.7232 52.8658 53.2882 52.966H53.2876Z" fill="#240057"/>
<path fill-rule="evenodd" clip-rule="evenodd" d="M18.2545 21.4728C18.1338 21.5955 18.0077 21.7134 17.8775 21.8279C17.9423 21.5975 17.9429 21.3221 17.8386 21.3589C17.7514 21.3903 17.6655 21.4237 17.5796 21.4578C17.5782 21.4578 17.5776 21.4571 17.5762 21.4571C16.5407 21.4782 15.5298 21.7345 14.6266 22.2465C14.0779 22.5573 12.9463 23.2035 13.1849 24.0147C13.2898 24.3706 13.7043 24.3078 13.9933 24.2731C14.5162 24.2104 15.0322 24.0863 15.5271 23.9057C16.538 23.5362 17.4467 22.9377 18.1999 22.1715C18.3213 22.0481 18.3942 21.8347 18.3976 21.663C18.399 21.5893 18.3819 21.3432 18.2545 21.4734V21.4728ZM14.0595 23.5253C14.0186 23.5294 13.8509 23.5082 13.7084 23.5219C13.8215 23.4367 13.9443 23.3521 13.9674 23.3351C14.2742 23.1129 14.6055 22.924 14.9497 22.7666C15.0179 22.7352 15.0867 22.7073 15.1556 22.6786C15.0417 22.757 14.9272 22.8354 14.8134 22.9131C14.7248 22.9738 14.6586 23.2451 14.6477 23.4401C14.4535 23.4776 14.2571 23.5062 14.0588 23.5253H14.0595Z" fill="#240057"/>
<path fill-rule="evenodd" clip-rule="evenodd" d="M16.3396 25.603C15.5011 26.1095 14.8685 27.7912 15.6722 28.571C16.0669 28.9541 16.707 28.9459 17.1542 28.6658C17.2844 28.584 17.3996 28.4851 17.5018 28.374C18.1085 28.2118 18.4589 27.496 18.3805 26.8852C18.3839 26.8518 18.3866 26.8191 18.388 26.7871C18.4405 25.6862 17.2755 25.0372 16.3396 25.6037V25.603ZM17.452 27.0277C17.4527 27.0379 17.4534 27.0482 17.4548 27.0584C17.3968 27.0638 17.2987 27.0713 17.2107 27.0666C17.1692 27.0366 17.1187 26.9923 17.0764 26.9561C17.1623 26.9384 17.2571 26.9411 17.3403 26.9643C17.373 26.9732 17.4146 27.0025 17.4527 27.027L17.452 27.0277ZM16.5011 28.0952C15.7472 27.9943 15.4152 27.1259 15.9565 26.5621C16.2128 26.2949 16.5761 26.1524 16.9387 26.1599C16.4261 26.5131 16.2775 27.5846 16.6913 27.9786C16.7383 28.0236 16.7901 28.0598 16.8447 28.0891C16.7349 28.1082 16.6197 28.1116 16.5004 28.0952H16.5011Z" fill="#240057"/>
<path fill-rule="evenodd" clip-rule="evenodd" d="M4.38372 25.0468C4.37554 25.1477 4.37009 25.3821 4.47575 25.3201C4.96519 25.0318 5.45463 24.7427 5.94339 24.4537C6.06882 24.3801 6.13017 24.2069 6.16084 24.0631C5.56029 24.378 4.95837 24.6896 4.38304 25.0461L4.38372 25.0468Z" fill="#240057"/>
<path fill-rule="evenodd" clip-rule="evenodd" d="M-0.604816 70.2444C-1.52167 68.1939 -2.89047 66.2634 -4.3697 64.579C-4.58851 64.3295 -4.85777 64.0657 -5.21361 64.078C-5.6083 64.0923 -5.87551 64.427 -6.02957 64.7576C-6.34859 65.44 -6.1959 66.1673 -5.94095 66.8442C-6.0991 66.5266 -6.22657 66.1953 -6.31928 65.849C-6.39222 65.575 -6.44403 65.2955 -6.46993 65.0133C-6.48425 64.8612 -6.49243 64.7079 -6.49311 64.5552C-6.49106 64.4809 -6.4897 64.4066 -6.48765 64.3323C-6.48902 64.4223 -6.44539 64.4829 -6.35541 64.5136C-6.30838 64.6847 -6.1734 64.4965 -6.13319 64.4291C-6.0507 64.2907 -5.98731 64.0548 -6.03093 63.8933C-6.12023 63.5661 -6.44675 63.6499 -6.60286 63.8783C-6.84485 64.2307 -6.84349 64.7092 -6.83463 65.1175C-6.81077 66.2116 -6.46584 67.2696 -5.86597 68.1817C-5.80462 68.2751 -5.61989 67.9615 -5.56876 67.7072C-4.53875 69.8402 -2.7964 71.5273 -1.10653 73.1477C-1.08812 73.1729 -1.06426 73.1797 -1.03563 73.1681C-0.574823 72.9622 -0.519608 72.2635 -0.630721 71.8348C-0.799094 71.1858 -1.08949 70.5375 -1.39556 69.9254C-0.867261 70.909 -0.438488 71.9411 -0.180135 73.0325C-0.0403914 73.6235 0.141615 74.3283 0.0550423 74.9405C-0.0499353 75.6883 -0.861126 75.7448 -1.44873 75.5642C-2.5544 75.224 -3.44194 74.2104 -3.99001 73.2329C-4.05817 73.1115 -4.38606 73.7455 -4.27222 73.9486C-3.79232 74.8055 -3.1011 75.5812 -2.2422 76.0734C-1.50258 76.4974 -0.514836 76.6283 0.0168691 75.8294C0.497448 75.1068 0.441551 74.1763 0.323622 73.359C0.167519 72.2792 -0.159684 71.2383 -0.604816 70.2437V70.2444ZM-4.59601 68.2137C-4.88845 67.7659 -5.15294 67.2989 -5.3738 66.8115C-5.54899 66.4257 -6.13455 65.3023 -5.73577 64.9676C-5.37107 64.6615 -4.98525 64.9451 -4.7119 65.2341C-4.73507 65.243 -4.75825 65.2532 -4.78143 65.2662C-4.94776 65.3582 -5.04796 65.682 -5.02547 65.8892C-5.10113 66.2341 -5.05273 66.5559 -4.88368 66.9035C-4.66963 67.3419 -4.429 67.7693 -4.18905 68.196C-3.92593 68.7815 -3.63008 69.3514 -3.30356 69.9036C-3.76983 69.3685 -4.20814 68.8095 -4.59601 68.2144V68.2137Z" fill="#240057"/>
<path fill-rule="evenodd" clip-rule="evenodd" d="M8.49821 79.0782C8.38233 79.1934 8.33461 79.4613 8.34347 79.6181C8.43005 81.2507 8.75929 82.8506 9.33258 84.3816C9.42529 84.6284 9.72659 83.9467 9.65706 83.7613C9.09945 82.2718 8.77156 80.721 8.68772 79.1321C8.67886 78.9651 8.5916 78.9848 8.49889 79.0775L8.49821 79.0782Z" fill="#240057"/>
<path fill-rule="evenodd" clip-rule="evenodd" d="M7.62229 81.6965C6.75657 80.7265 5.46139 79.7285 4.15735 79.4702C3.66996 79.3734 3.15052 79.4538 2.91193 79.9358C2.65971 80.4443 2.69107 80.9965 3.17642 81.3387C3.27186 81.4055 3.37275 81.4614 3.47772 81.5098C3.47977 81.5459 3.48795 81.5779 3.50295 81.6025C4.18871 82.7374 5.49957 83.1717 6.7218 83.4648C7.20647 83.5807 7.80021 83.7252 8.06947 83.1839C8.37418 82.5711 8.02585 82.1485 7.62161 81.6958L7.62229 81.6965ZM6.24259 81.4211C6.30803 81.4641 6.37279 81.5097 6.43618 81.5575C6.36597 81.5432 6.29644 81.5241 6.22759 81.505C6.23373 81.4763 6.23918 81.4484 6.24327 81.4211H6.24259ZM3.17029 80.28C3.21596 80.2582 3.26368 80.2412 3.31344 80.2309C3.46068 80.1887 3.61747 80.1914 3.76811 80.2071C3.83015 80.2139 3.89082 80.2241 3.9508 80.2371C3.9399 80.3441 3.95558 80.4348 4.01693 80.4702C4.04692 80.4879 4.07623 80.5056 4.10554 80.5234C4.09464 80.6242 4.10554 80.7108 4.14713 80.7504C4.24461 80.8424 4.34617 80.9296 4.44843 81.0142C3.96853 80.8847 3.48181 80.7204 3.16824 80.3495C3.01555 80.3782 3.01623 80.355 3.17029 80.28ZM6.69045 82.64C6.07285 82.4818 5.44435 82.28 4.89901 81.9569C5.19418 82.0414 5.48934 82.1253 5.78519 82.2071C6.30735 82.3509 6.7443 82.4184 7.0306 82.0864C7.21943 82.2746 7.3987 82.4723 7.5664 82.6788C7.59843 82.7184 7.62911 82.7593 7.66047 82.7995C7.59775 82.8097 7.54254 82.8179 7.52482 82.8172C7.24669 82.8049 6.95766 82.7088 6.68977 82.64H6.69045Z" fill="#240057"/>
<path fill-rule="evenodd" clip-rule="evenodd" d="M1.18115 75.367C1.0305 75.2948 0.758508 76.0323 0.961647 76.1305C1.08844 76.1919 1.23636 76.3166 1.2425 76.4727C1.24931 76.6513 1.06731 76.7392 0.911203 76.8026C0.494019 76.9724 0.0182108 76.879 -0.402381 76.774C-0.600067 76.7249 -0.810021 77.4905 -0.621879 77.5375C0.122508 77.7222 0.997094 77.7488 1.38974 76.9676C1.63241 76.4857 1.77216 75.6506 1.18046 75.3664L1.18115 75.367Z" fill="#240057"/>
<path fill-rule="evenodd" clip-rule="evenodd" d="M54.9257 32.7878C55.0552 32.8117 55.1827 32.8615 55.3013 32.9249C55.4063 32.8874 55.5303 32.8949 55.6244 32.9773C55.6292 32.9814 55.634 32.9862 55.6394 32.9903C55.6517 32.9869 55.6646 32.9842 55.6769 32.9821C55.6524 32.9623 55.6278 32.9433 55.6019 32.9249C55.409 32.7858 55.1595 32.7224 54.9257 32.7878Z" fill="#240057"/>
<path fill-rule="evenodd" clip-rule="evenodd" d="M19.9218 23.177C20.0827 23.0734 20.2449 22.9725 20.4092 22.875C20.219 22.9561 20.0281 23.0372 19.838 23.1184C19.8502 23.1736 19.8748 23.2077 19.9218 23.177Z" fill="#240057"/>
<path fill-rule="evenodd" clip-rule="evenodd" d="M42.1899 22.4571C41.9241 22.2261 41.633 21.9916 41.3106 21.843C41.1388 21.7639 40.7407 21.6964 40.6862 21.9568C40.6698 22.0359 40.693 22.1231 40.7373 22.2117C40.7448 22.1947 40.753 22.177 40.7618 22.1599C40.8845 21.9336 41.2295 22.1354 41.1068 22.3617C41.0406 22.4837 41.2642 22.7428 41.3338 22.8287C41.404 22.9159 41.4803 22.9991 41.5614 23.0788C41.6862 23.1715 41.8191 23.254 41.9595 23.3201C42.0413 23.3583 42.0686 23.4258 42.0604 23.4926C42.2738 23.6453 42.8696 24.055 43.0413 23.8055C43.1586 23.6351 43.0161 23.3529 42.9173 23.2138C42.7162 22.9302 42.451 22.6841 42.1899 22.4571Z" fill="#240057"/>
<path fill-rule="evenodd" clip-rule="evenodd" d="M66.5625 60.0057C67.037 58.7241 67.2749 57.3799 66.9722 56.0124C66.9497 55.9115 66.8986 55.9054 66.8454 55.9354C66.8407 55.7527 66.8291 55.5707 66.8079 55.3873C66.6546 54.0621 66.1392 52.8324 65.66 51.5999C65.3989 50.9278 65.0642 50.1446 64.8911 49.3579C64.9265 49.2189 64.9401 49.0723 64.9047 48.9551C64.8222 48.681 64.7752 48.4077 64.7868 48.1316C64.7984 47.9912 64.8188 47.8521 64.8515 47.7158C64.8767 47.6088 64.9926 47.2052 64.8195 47.1554C64.7275 47.1289 64.6463 47.2434 64.5877 47.3668C64.4739 46.5774 64.3164 45.7976 64.1126 45.0279C64.1726 44.8589 64.208 44.6605 64.1603 44.514C63.3955 42.1717 62.4745 39.884 61.4057 37.6666C61.4227 37.5513 61.4166 37.4498 61.3723 37.3884C61.358 37.3687 61.3436 37.3496 61.33 37.3305C61.33 37.2651 61.3191 37.2092 61.2925 37.1683C61.1153 36.8935 60.934 36.6216 60.7499 36.3516C60.5161 35.8976 60.2768 35.447 60.0307 34.9998C59.9823 34.9119 59.9074 34.9719 59.8419 35.0605C58.9987 33.9071 58.1016 32.7953 57.1541 31.7285C57.1779 31.5983 57.1738 31.4817 57.1241 31.4149C56.1104 30.0686 54.985 28.8116 53.7641 27.6576C53.7778 27.6296 53.788 27.6078 53.7921 27.5969C53.8705 27.406 53.9441 27.132 53.8473 26.935L53.7532 26.7441C53.7266 26.2853 53.6203 25.8375 53.4321 25.4237C53.4996 25.256 53.5283 25.0529 53.5221 24.9022C53.4976 24.3201 53.094 24.0222 52.6264 23.7447C52.5916 23.7243 52.5562 23.7039 52.5214 23.6834C52.4662 23.5668 52.409 23.4509 52.3503 23.3357C52.2958 23.2301 52.1683 23.3753 52.1397 23.4169C52.1329 23.4271 52.1261 23.438 52.1192 23.4482C51.7389 23.2287 51.3551 23.014 50.9652 22.8129C50.3796 22.5102 49.777 22.2376 49.1499 22.031C48.55 21.8333 47.9256 21.7113 47.3503 21.4448C45.6147 20.6425 44.4934 18.9799 42.8921 17.9792C42.7585 17.8012 42.6072 17.7051 42.389 17.6813C42.3495 17.6397 42.312 17.5933 42.2759 17.5422C42.2513 17.5074 42.2152 17.5143 42.1736 17.5497C42.1702 17.5415 42.1668 17.5327 42.1627 17.5252C42.0578 17.3404 41.9446 17.4986 41.8669 17.6376C41.0755 19.0548 39.1088 19.1591 37.7046 18.8953C36.8634 18.7372 36.0502 18.4638 35.224 18.245C34.3194 18.0051 33.3971 17.8462 32.4707 17.7215C28.8367 17.23 25.0943 16.7808 21.4276 17.1162C19.3717 17.3043 17.3539 17.7842 15.4909 18.6861C15.4057 18.727 15.343 18.8122 15.2959 18.9103C12.8419 19.6288 10.4724 20.6002 8.22087 21.8129C6.38171 21.5682 4.72865 20.5375 3.71092 18.9758C3.67274 18.9171 3.59571 18.9492 3.5589 18.9874C2.97403 19.5981 2.38915 20.2096 1.80428 20.8204C1.37142 21.2723 0.95355 21.6909 0.818579 22.3255C0.532276 23.6704 1.93516 24.772 1.4614 26.1572C1.0783 27.2772 0.107594 28.1804 -0.71314 28.9909C-1.78337 30.0482 -2.81678 31.1409 -3.79021 32.2888C-7.41808 36.5704 -9.96821 41.6107 -11.2041 47.09C-11.8162 49.8037 -12.0875 52.5918 -12.0153 55.3716C-13.6452 55.81 -14.5593 57.6 -14.7876 59.1747C-15.1012 61.3356 -14.4114 63.6008 -14.0044 65.7079C-13.7842 66.8469 -13.6411 68.0378 -13.3268 69.1544C-13.2116 69.5648 -13.0153 69.9158 -12.6526 70.1544C-12.2586 70.4134 -11.7876 70.5266 -11.3745 70.7502C-9.63965 71.6889 -8.67713 73.7073 -7.68734 75.3194C-6.32058 77.5465 -4.95315 79.7735 -3.58639 81.9998C-4.5421 83.2493 -5.63005 84.385 -6.83865 85.398C-7.01384 85.5445 -7.2647 86.2085 -7.02134 86.3721C-6.37512 86.8063 -5.72957 87.2405 -5.08335 87.6748C-4.85567 87.8281 -4.55232 88.139 -4.25307 88.0197C-3.99949 87.9188 -3.8018 87.6046 -3.60548 87.4226C-2.61842 86.5091 -1.32392 85.9631 0.0135231 85.8588C0.0994139 85.9269 0.186668 85.9931 0.278013 86.0565C0.39935 86.141 0.601126 85.5616 0.549318 85.3632C0.568405 85.3755 0.587492 85.3871 0.606579 85.3993C0.528186 85.6263 0.50092 85.8765 0.597717 85.9549C3.59026 88.3919 6.98772 90.2419 10.4445 91.9284C12.1882 92.7798 13.9442 93.6306 15.784 94.2577C17.6068 94.8787 19.4991 95.212 21.4174 95.347C23.3117 95.4799 25.2116 95.4377 27.1087 95.3722C27.0732 95.5058 27.0589 95.6435 27.0957 95.7649C27.1625 95.9844 27.3425 95.7546 27.3916 95.6524C27.3984 95.6374 27.442 95.574 27.4222 95.5979C27.4331 95.5835 27.4454 95.5672 27.4475 95.5631C27.4556 95.5542 27.4659 95.546 27.4747 95.5372C27.5149 95.6721 27.5552 95.8078 27.5961 95.9428C27.6615 96.1623 27.8408 95.9319 27.8919 95.8303C27.9628 95.6899 28.0357 95.4963 28.0466 95.3149C28.198 95.2243 28.2995 94.91 28.3275 94.6599C28.8019 94.6462 29.1646 94.4915 29.3234 94.0068C29.5279 93.3831 29.2028 93.0457 28.669 92.7764C27.9798 92.4287 27.2709 92.1172 26.5483 91.8405C26.8571 91.7955 27.1618 91.7021 27.4488 91.5569C27.5108 91.5255 27.579 91.4267 27.6295 91.3088C27.6308 91.3088 27.6315 91.3101 27.6322 91.3101L28.1291 91.3572C28.2096 91.3647 28.2709 91.2617 28.2989 91.2011C28.4597 90.8486 28.5613 90.4567 28.2641 90.1458C27.9423 89.8098 27.352 89.6789 26.9185 89.5773C26.5108 89.4812 26.0964 89.4314 25.6819 89.4253C25.5851 89.3844 25.4876 89.3456 25.3881 89.3087C24.9641 89.1513 24.5258 89.032 24.08 88.9556C23.8026 88.9086 23.4535 88.8425 23.2197 89.0483C23.0316 89.214 22.9307 89.531 22.9375 89.777C22.9443 90.0218 23.0991 90.2004 23.2797 90.3531C23.3206 90.5426 23.4774 90.6428 23.6928 90.7887C23.7187 90.8064 23.746 90.8214 23.7726 90.8384C23.825 90.8977 23.8803 90.9557 23.9368 91.0102C22.7037 90.6946 21.446 90.4764 20.1835 90.3578C20.0574 90.3462 19.932 90.3367 19.8059 90.3265C19.9893 90.2808 20.1706 90.2133 20.3478 90.1192C20.7664 89.8977 21.1147 89.5746 21.3956 89.1976C21.3997 89.259 21.4181 89.3074 21.4637 89.3162C21.4719 89.3176 21.4794 89.3183 21.4869 89.3176C21.3969 89.5541 21.3492 90.1124 21.5592 89.8363C23.2817 87.5657 23.7957 84.3946 22.7678 81.7231C22.6723 81.4763 22.3724 82.1587 22.4433 82.3434C23.2974 84.5622 23.05 87.0531 21.6975 89.0027C21.7016 88.9904 21.705 88.9802 21.7071 88.972C21.7459 88.8493 21.7848 88.7266 21.8237 88.6039C21.8877 88.4975 21.9484 88.3878 22.0016 88.2746C22.322 87.5848 22.4719 86.8138 22.4378 86.0537C22.4692 85.8056 22.4903 85.5568 22.4971 85.306C22.5299 84.1212 22.2102 82.9944 21.5571 82.0046C20.8836 80.9841 19.9477 80.162 18.9613 79.4531C17.9129 78.6999 16.7997 78.0611 15.5032 77.8791C14.1262 77.6862 12.7274 77.9091 11.3675 78.1273C11.1684 78.1593 11.0198 78.9173 11.227 78.8839C11.4656 78.8457 11.7049 78.8076 11.9455 78.7714C11.1227 79.0012 10.4302 79.5267 10.0859 80.4933C9.29382 82.7149 10.8426 85.2187 12.0525 86.9754C12.1432 87.1069 12.4643 86.4471 12.3348 86.2596C11.7424 85.3993 11.2155 84.4914 10.788 83.5377C10.4554 82.7954 10.1575 81.9405 10.2284 81.1157C10.2734 80.5956 10.4915 80.2193 10.8126 79.9528C10.5079 80.7217 10.5215 81.6304 10.8003 82.3945C11.03 83.0244 12.3968 85.8826 13.2966 84.6325C13.3914 84.5002 13.4868 84.2575 13.4513 84.0926C13.4227 83.9603 13.3627 83.899 13.2625 84.038C12.7042 84.8138 11.542 82.6495 11.3634 82.3073C11.0225 81.6556 10.7656 80.8233 11.0682 80.1539C10.9101 80.7953 11.2243 81.4197 11.7356 81.9296C11.8399 82.0332 11.9462 82.1348 12.0532 82.235C12.6047 83.0169 13.4766 83.6147 14.3873 84.0087C14.615 84.1566 14.846 84.295 15.0785 84.4225C15.6845 84.7538 16.345 85.008 17.0288 85.1083C17.0922 85.128 17.1549 85.1485 17.2183 85.1669C17.63 85.2869 18.2326 85.5316 18.6212 85.231C18.6859 85.1805 18.7411 85.1185 18.7882 85.0483C19.1767 84.882 19.3424 84.4109 19.3799 84.0203C19.3942 83.8683 19.3867 83.7129 19.3628 83.5561C19.4569 83.2337 19.4617 82.8696 19.4173 82.5336C19.5189 82.676 19.6137 82.8247 19.6996 82.978C19.7902 83.2739 19.8461 83.5779 19.8666 83.8819C19.8461 83.9637 19.8345 84.0462 19.8284 84.1008C19.7684 84.6018 19.6116 85.0796 19.3642 85.52C19.1242 85.9467 18.7568 86.4962 18.3076 86.7238C17.6205 87.0729 16.9088 86.2951 16.1835 86.4471C16.009 86.4839 15.8495 87.0592 15.9722 87.1833C16.4691 87.6864 17.1092 87.9372 17.7916 88.081C17.947 88.1138 18.1147 88.1519 18.2885 88.1867C18.3083 88.2119 18.3294 88.2365 18.3539 88.2562C18.7691 88.595 19.6205 88.7239 20.1283 88.6291C20.2633 88.6039 20.3853 88.5589 20.4951 88.4969C20.4951 88.5221 20.4971 88.5473 20.5019 88.5705C20.5305 88.7027 20.5905 88.7634 20.6907 88.625C20.8645 88.3851 21.0186 88.1322 21.1536 87.8704C21.4603 87.6209 21.5762 87.201 21.5912 86.764C21.658 86.5261 21.7098 86.2848 21.7466 86.0401C21.7684 86.203 21.7848 86.3666 21.795 86.5316C21.8032 86.6598 21.8434 86.6802 21.8918 86.6495C21.9007 86.7518 21.9075 86.854 21.9089 86.9576C21.9116 87.1444 21.8918 87.3305 21.8536 87.5125C21.8257 87.6195 21.7957 87.7266 21.7657 87.8329C21.6907 88.0531 21.5898 88.2637 21.463 88.4587C21.0404 88.9883 20.4255 89.3701 19.6798 89.5153C19.2817 89.5923 18.8795 89.5896 18.493 89.5071C18.1897 89.4226 17.8924 89.3012 17.6095 89.1608C17.4589 89.0858 17.1992 89.8104 17.39 89.9243C17.6491 90.0783 17.9177 90.1861 18.1897 90.2529C18.1092 90.2522 18.0295 90.2501 17.949 90.2501C17.4609 90.2501 16.812 90.1895 16.4752 90.6223C16.4037 90.7137 16.3491 90.803 16.3069 90.8902C16.2864 90.8889 16.2653 90.8882 16.2448 90.8868C15.9756 90.8439 15.7043 90.8186 15.4514 90.8466C15.4057 90.8446 15.36 90.8425 15.3137 90.8405C14.8597 90.8227 14.3995 90.8166 14.1276 91.2386C14.0308 91.3885 13.8876 91.7198 14.0035 91.8936C14.5475 92.7069 15.5516 92.9236 16.4487 93.1193C17.6075 93.3715 18.7807 93.5535 19.9613 93.666C21.1563 93.9277 22.3615 94.1404 23.5756 94.2999C23.8789 94.3402 24.1843 94.3776 24.4904 94.4138C21.932 94.4158 19.3778 94.2345 16.9115 93.5051C15.0444 92.953 13.2714 92.1322 11.5208 91.2897C10.3415 90.7225 9.16839 90.1417 8.01159 89.5303C8.18133 89.5064 8.34357 89.4464 8.4949 89.3428C8.51126 89.3503 8.5283 89.3578 8.54466 89.3653C8.51739 89.5207 8.5283 89.6591 8.60328 89.6741L9.8896 89.9222C10.1909 89.9802 10.5604 90.109 10.8364 89.9147C10.8548 89.9018 10.8719 89.8875 10.8883 89.8732C10.9046 89.88 10.921 89.8868 10.9373 89.8936C11.1527 89.9788 11.2414 89.276 11.1889 89.156C11.1957 88.9972 11.1725 88.8418 11.1193 88.713C10.9469 88.2944 10.5133 87.9474 10.1098 87.6495C9.14658 86.6782 7.87526 85.9658 6.74573 85.2603C4.82477 84.0612 2.86633 82.9242 0.876521 81.8437C-1.47593 79.7837 -3.71387 77.5949 -5.82569 75.286C-5.93339 75.1688 -6.13721 75.6112 -6.13994 75.8668C-6.21765 75.7693 -6.29536 75.6719 -6.37239 75.5737C-6.49918 75.2942 -6.62256 75.0134 -6.74049 74.7298L-7.69143 72.0856C-7.78209 71.8334 -8.07044 72.5259 -8.0159 72.7059C-7.93683 72.9636 -7.85435 73.2199 -7.76914 73.4748C-8.02067 73.0502 -8.26676 72.6207 -8.50262 72.1872C-8.50466 72.1735 -8.50671 72.1599 -8.51012 72.1469L-10.3834 65.1877C-10.4249 65.033 -10.536 65.1755 -10.5838 65.2368C-10.686 65.3677 -10.7167 65.5817 -10.7174 65.7413C-10.7174 65.7678 -10.7167 65.7951 -10.7167 65.8217C-10.7324 65.8551 -10.7474 65.8899 -10.761 65.9246C-10.7637 65.9164 -10.7665 65.9076 -10.7692 65.8994C-10.8592 65.6261 -11.1216 66.3275 -11.1032 66.4522C-11.0998 66.4747 -11.0964 66.4965 -11.093 66.519L-11.0916 66.5238C-10.8748 67.9669 -10.4413 69.3357 -9.87687 70.6534C-10.3486 70.183 -10.8878 69.7917 -11.5068 69.5307C-11.6983 69.4495 -11.9021 69.378 -12.093 69.286C-12.0446 69.2505 -11.9941 69.181 -11.9764 69.1517C-11.8871 69.0024 -11.8428 68.7876 -11.8742 68.6159L-12.2457 66.594C-12.1639 66.4482 -12.0896 66.2102 -12.0855 66.168C-11.9505 64.7624 -12.2777 63.399 -12.6465 62.052C-13.0392 60.6178 -13.5068 59.1229 -13.2702 57.6212C-13.1857 57.0854 -13.5347 57.4249 -13.5859 57.75C-13.7794 58.9791 -13.6063 60.1761 -13.318 61.3656C-13.3623 61.4031 -13.4045 61.4624 -13.4209 61.489C-13.5102 61.6383 -13.5545 61.853 -13.5231 62.0248L-12.2 69.2294C-12.3554 69.1448 -12.4993 69.0433 -12.6158 68.9056C-12.956 68.502 -12.9935 67.8783 -13.0896 67.38C-13.4904 65.3064 -13.9594 63.2334 -14.2771 61.1454C-14.4366 60.0997 -14.5477 58.9109 -14.0542 57.9347C-13.731 57.2953 -13.2089 56.7848 -12.5681 56.508C-12.534 57.3812 -12.4999 58.2538 -12.4652 59.127C-12.487 59.2217 -12.4959 59.3192 -12.4918 59.3928C-12.4468 60.2299 -12.4011 61.0677 -12.3561 61.9048C-12.3473 62.0718 -12.26 62.052 -12.1673 61.9593C-12.05 61.8428 -12.0064 61.5776 -12.0126 61.4194C-12.0194 61.247 -12.0262 61.0738 -12.033 60.9014C-11.926 60.9259 -11.7276 60.4453 -11.746 60.2981C-11.7631 60.1645 -11.7794 60.0309 -11.7958 59.8973C-11.8033 59.8277 -11.8115 59.7582 -11.8183 59.6894C-11.8203 58.4651 -11.7535 57.2428 -11.6226 56.0267C-11.5524 55.8284 -11.5258 55.5809 -11.5306 55.4794C-11.5333 55.42 -11.5354 55.3607 -11.5381 55.3021C-11.5354 55.2789 -11.5327 55.2558 -11.5299 55.2326C-11.5224 55.1726 -11.5238 55.1044 -11.5483 55.0622C-11.7262 49.9857 -10.6806 44.8807 -8.48285 40.2971C-7.30219 37.8343 -5.7991 35.5534 -4.05743 33.4511C-3.58912 32.886 -3.10513 32.3352 -2.60751 31.796C-2.91154 32.2186 -3.19375 32.6597 -3.45074 33.1171C-3.56049 33.312 -3.57957 34.0107 -3.33076 33.5683C-2.72476 32.4913 -1.96537 31.5138 -1.08738 30.6576C-1.33619 30.9903 -1.56796 31.3202 -1.79086 31.6092C-2.33143 32.3086 -2.90881 32.993 -3.42006 33.7142C-3.68046 34.0223 -3.93609 34.3359 -4.18354 34.6556C-4.24284 34.732 -4.46711 35.3066 -4.27624 35.3346C-4.1365 35.355 -4.00221 35.3523 -3.87338 35.3318C-3.85429 35.3877 -3.83043 35.4436 -3.79976 35.4975C-3.77385 35.5425 -3.71046 35.5166 -3.68592 35.4886C-3.5973 35.387 -3.508 35.2855 -3.41938 35.1839C-3.40779 35.1785 -3.3962 35.173 -3.3853 35.1669C-3.3853 35.1894 -3.3853 35.2125 -3.38325 35.2357C-3.3778 35.3052 -3.3628 35.3809 -3.3369 35.4532C-3.25442 35.3891 -3.17193 35.3264 -3.08877 35.263C-2.46095 34.7872 -1.80859 34.3454 -1.14464 33.9221C0.357086 32.1389 1.69998 30.2172 2.40483 27.9704C2.41233 27.9452 2.50095 27.4735 2.34144 27.5539C1.58205 27.937 0.865614 28.3883 0.197575 28.9002C0.575222 28.4796 0.926966 28.0379 1.22281 27.5526C1.86495 26.4973 2.2385 25.2042 1.8929 23.9833C1.77974 23.5846 1.59841 23.2096 1.43958 22.8279C1.39528 22.7216 1.22417 22.4264 1.24871 22.2976C1.27462 22.1619 1.51661 21.9744 1.60932 21.8776C2.20374 21.2566 2.79816 20.6356 3.39258 20.0153C4.36328 21.453 5.88477 22.4516 7.57941 22.774C7.58077 22.9097 7.60532 23.0542 7.70893 22.997C7.80573 22.9438 7.90321 22.8913 8 22.8388C8.06272 22.8463 8.12475 22.8558 8.18746 22.8613C8.29108 22.8708 8.38378 22.755 8.45263 22.5982C10.6585 21.4475 12.9735 20.5238 15.3689 19.8422C15.4534 19.8183 15.527 19.7058 15.5809 19.5641C19.0397 17.9812 22.9027 17.8694 26.6438 18.1489C26.686 18.1523 26.7283 18.1557 26.7706 18.1591C26.3718 18.228 25.9709 18.3193 25.5688 18.4345C24.7078 18.5204 23.8469 18.6077 22.9873 18.7051C22.3042 18.7829 21.6178 18.8817 20.9634 19.0992C20.8148 19.1482 20.6723 19.2109 20.5298 19.275C20.645 18.9662 20.7432 18.5218 20.5244 18.5784C19.977 18.7215 19.4296 18.8647 18.8822 19.0078C18.8291 19.0214 18.7834 19.0603 18.7445 19.1121C18.6764 19.1455 18.6089 19.183 18.5428 19.2246C18.4017 19.3139 18.0042 20.1946 18.3028 20.2382C18.4351 20.2573 18.5666 20.2655 18.6961 20.2641C18.7316 20.3159 18.7732 20.3602 18.8188 20.3984C18.8257 20.3923 18.8325 20.3861 18.84 20.38C19.1167 20.1673 19.4085 19.9921 19.7118 19.8497C20.4433 19.472 21.2585 19.2089 22.0138 19.0099C23.0391 18.7399 24.5981 18.4127 25.4454 19.273C25.5231 19.352 25.5585 19.487 25.5176 19.594C26.0834 19.6438 26.6485 19.7017 27.2123 19.7672C27.2116 19.7938 27.2123 19.8197 27.2143 19.8442C26.7344 19.9137 26.2566 19.9983 25.7828 20.1012C25.7958 19.9362 25.7733 19.8095 25.7085 19.8122C25.5919 19.817 25.4761 19.8224 25.3595 19.8272C24.7998 20.5586 24.022 21.0992 23.2204 21.5511C24.7835 20.9847 26.427 20.639 28.0875 20.4802C28.0855 20.4707 28.0828 20.4618 28.0814 20.4523C27.8878 20.2185 27.8231 19.9144 28.0098 19.6343C28.018 19.4775 28.1359 19.3207 28.3098 19.3391C28.3145 19.3391 28.32 19.3398 28.3248 19.3405C28.8517 19.0098 29.6602 19.0255 30.2273 19.0446C31.0515 19.0719 31.9601 19.1809 32.7045 19.5606C32.8293 19.6247 32.9431 19.7079 33.0372 19.8026C33.2151 19.8919 33.3821 19.9962 33.5293 20.121C33.6718 20.2416 33.6364 20.5191 33.468 20.5995C33.4591 20.6036 33.4503 20.607 33.4414 20.6111C33.4264 20.6472 33.4046 20.6806 33.376 20.7059C33.2628 20.804 33.1394 20.8851 33.0079 20.9519C33.091 20.9853 33.1735 21.0187 33.2567 21.0508C33.301 21.0678 33.3494 21.044 33.3957 20.9935C33.9888 21.2021 34.5818 21.4121 35.1742 21.6213C34.511 21.5368 33.8484 21.4523 33.1851 21.3684C32.7788 21.3173 32.3712 21.2682 31.9629 21.2226C31.5307 21.2832 31.0794 21.2778 30.6936 21.2669C30.363 21.2573 29.9008 21.256 29.487 21.168C29.1844 21.153 28.8858 21.108 28.6227 21.0037C28.337 21.0031 28.0514 21.0065 27.7658 21.0181C24.8489 21.1353 20.9013 22.1265 19.9927 25.3351C19.5591 26.8661 19.9429 28.4599 20.6791 29.83C20.7507 29.963 20.9048 29.6474 20.9198 29.6105C20.9763 29.4722 21.0384 29.2574 20.9613 29.1143C20.3512 27.9779 19.8509 26.4735 20.3287 25.2015C20.823 23.8865 22.2374 23.0726 23.4924 22.577C21.6294 24.3119 21.0847 27.1777 21.7534 29.569C22.6682 32.841 25.3943 35.0339 27.9594 37.0353C28.2423 37.2562 28.6915 36.0462 28.4297 35.8424C28.2402 35.6945 28.0507 35.5466 27.8605 35.3966C27.9873 35.1103 28.0582 34.7401 27.9314 34.6188C27.0487 33.7688 26.1468 32.9344 25.2879 32.0605C24.5033 31.2622 23.7766 30.3856 23.3595 29.3351C23.0623 28.5874 22.8993 27.7864 22.8871 26.9882C22.9375 27.209 23.007 27.4258 23.0943 27.6357C23.14 28.2547 23.3751 28.845 23.763 29.4217C24.519 30.5451 25.4815 31.554 26.3472 32.5935C26.4992 32.7762 26.9123 31.8655 26.7235 31.6392C26.2 31.0107 25.6717 30.3856 25.1495 29.7557C26.5272 30.4204 28.243 30.4442 29.7222 30.1613C30.9117 29.9337 32.1946 29.6058 33.179 28.8689C34.0754 28.1968 34.6118 27.0761 34.6412 25.9609C34.6473 25.7175 34.6193 25.4966 34.5628 25.2942C34.8341 25.845 34.9513 26.4646 34.8286 27.0686C34.8054 27.1592 34.7823 27.2492 34.7591 27.3399C34.727 27.464 34.5962 27.9357 34.7966 27.9936C34.9943 28.0502 35.1415 27.5614 35.1749 27.4592C35.2403 27.2601 35.2928 27.057 35.331 26.8511L35.4667 26.3249C35.5328 26.4858 35.5907 26.6514 35.6384 26.8205C35.7127 27.0822 35.9227 26.8 35.984 26.6889C36.1067 26.4674 36.2151 26.1108 36.1429 25.8552C36.1306 25.8116 36.117 25.7686 36.1033 25.7257C36.1551 25.121 36.0249 24.6125 35.7741 24.1797C37.8218 25.3201 39.4599 27.1599 40.3031 29.3679C40.3972 29.6133 40.5772 29.3651 40.6487 29.2363C40.7612 29.0332 40.8975 28.6392 40.8076 28.4026C40.1191 26.5982 38.9398 25.0249 37.4353 23.8593C37.5785 23.9131 37.7209 23.9697 37.8614 24.0311C40.3243 25.1061 42.1491 27.391 42.6978 30.0148C42.7592 30.3072 43.01 29.9786 43.068 29.8744C43.2077 29.6221 43.2984 29.269 43.2377 28.9807C43.2214 28.9023 43.2036 28.8239 43.1852 28.7462H43.1859C43.2166 28.7925 43.2704 28.798 43.3495 28.7544C43.4961 28.6739 43.5738 28.3488 43.5963 28.2029C43.6685 27.7346 43.6222 27.3058 43.5002 26.9002C43.3911 26.3433 43.2071 25.8055 42.9562 25.3017C44.1471 25.8525 45.3373 26.4033 46.5282 26.9548C46.5813 26.9868 46.6338 27.0195 46.6863 27.0536C46.6631 27.2186 46.6699 27.3699 46.717 27.4353C47.0633 27.9145 47.5493 28.2254 48.1328 28.3283C48.1751 28.3358 48.216 28.3215 48.2535 28.2922C48.2398 28.3304 48.2283 28.3685 48.218 28.4067C48.0769 28.5056 47.9685 28.6603 47.8901 28.845C47.8527 28.6071 47.6359 28.8846 47.5943 28.9589C47.4764 29.1688 47.4225 29.4354 47.458 29.6733C47.7122 31.3495 48.4927 32.8833 49.6639 34.0748C49.6666 34.1423 49.6816 34.2057 49.7143 34.2568C50.4342 35.385 51.1533 36.5132 51.8732 37.642C52.2447 38.5725 52.6694 39.4798 53.1493 40.3605C53.2208 40.4914 53.3517 40.2944 53.4226 40.1642C53.1056 39.5671 52.8173 38.959 52.5862 38.3135C52.2297 37.3169 51.9318 36.2555 51.2644 35.4116C51.1792 35.3039 51.1779 35.1798 51.2228 35.0782C51.1601 34.9801 51.0981 34.8826 51.0354 34.7844C51.2078 34.8506 51.3912 34.8853 51.5889 34.8662C52.2113 34.8076 52.5276 34.263 52.638 33.6979C52.7607 33.0734 52.6169 32.4122 52.3333 31.8014C52.8677 32.2289 53.4471 32.6147 53.9911 33.021C54.0859 32.537 54.5024 32.1464 55.1213 32.1552C56.2897 32.1709 56.9946 33.5874 57.3436 34.5247C57.5597 35.1048 57.7465 36.023 57.4049 36.5534C57.4949 36.6849 57.5829 36.8179 57.6674 36.9528C58.5358 38.3394 59.1187 39.9379 59.1834 41.5821C59.1957 41.8875 59.2857 42.5801 59.0853 42.8377C58.9251 43.0436 58.5501 43.0368 58.3272 43.0197C57.739 42.9741 57.1739 42.775 56.5856 42.9059C56.5835 42.9045 56.5822 42.9032 56.5801 42.9018C56.5535 42.8827 56.5174 42.9011 56.4772 42.9441C56.3892 43.0075 56.317 43.1636 56.2713 43.3333C56.1977 43.5487 56.1663 43.7853 56.2604 43.8936C56.2693 43.9059 56.2788 43.9154 56.2904 43.9216C56.6571 44.1888 57.0586 44.3906 57.4915 44.5256C57.6292 44.5685 57.7751 44.2876 57.8426 44.0123C58.3743 44.0763 58.8726 44.0463 59.2161 43.5133C59.5597 42.9802 59.6156 42.2842 59.6401 41.6673C59.6667 41.002 59.6176 40.3394 59.5011 39.6843C59.2155 38.0824 58.5195 36.6263 57.5822 35.3298C57.5863 35.3339 57.5897 35.3386 57.5938 35.3427C57.6074 35.3584 57.6224 35.3652 57.6387 35.3659C58.666 36.8492 59.587 38.4014 60.3941 40.0122C60.4016 40.0108 60.4084 40.0081 60.4166 40.0067C60.5147 39.8193 60.6477 39.655 60.8324 39.5568C61.3273 39.2944 61.7867 39.715 62.0614 40.0906C62.2987 40.4144 62.7138 41.1485 62.9633 41.8997C63.1119 42.2045 63.223 42.4846 63.2857 42.6605C63.5577 43.4233 63.8529 44.6155 63.5857 45.5174C63.6375 45.6987 63.6859 45.8807 63.7329 46.0627C63.7288 46.0709 63.7247 46.0798 63.7206 46.0879C63.6436 46 63.4998 46.1936 63.4568 46.2706C63.3491 46.467 63.2646 46.7601 63.3205 46.9857L63.6818 48.4363C63.7384 48.6647 63.9286 48.4145 63.9776 48.3238C63.9824 48.3157 63.9865 48.3054 63.9913 48.2972C64.0492 48.2468 64.1044 48.1718 64.1235 48.1377C64.129 48.1275 64.1337 48.1173 64.1392 48.1064C64.1521 48.197 64.1658 48.2877 64.1774 48.379C64.1964 48.5297 64.253 48.574 64.3328 48.5317C64.3137 48.8337 64.3294 49.1364 64.3873 49.4377C64.5884 51.3539 65.66 53.1542 66.1494 55.0267C66.2537 55.4255 66.3137 55.8154 66.3396 56.2006C66.294 56.3001 66.2612 56.3867 66.2571 56.4091C66.1726 56.8965 66.0526 57.371 65.8999 57.8339C66.0213 57.0002 66.0683 56.1583 65.9872 55.3076C65.9777 55.2094 65.9558 55.159 65.9258 55.1419C65.9156 55.0758 65.9047 55.0104 65.8924 54.9442C65.8536 54.7343 65.6764 54.932 65.6252 55.0097C65.5019 55.1965 65.4385 55.4596 65.4473 55.6818C65.4521 55.8066 65.4541 55.9313 65.4555 56.056C65.101 57.431 64.7936 58.8168 64.5346 60.2122C64.4902 60.1706 64.4432 60.1311 64.3928 60.095C63.8038 59.6662 63.4821 60.1256 63.2407 60.6662C62.6531 61.9839 62.2857 63.3909 62.028 64.8074C61.8965 65.5293 61.7956 66.2559 61.7022 66.9839C61.6224 67.6104 61.4241 68.3527 61.5495 68.9826C61.6545 69.5089 62.1003 69.7372 62.5659 69.4489C62.6306 69.4086 62.6913 69.3643 62.7486 69.3159C62.7472 69.4932 62.782 69.622 62.906 69.4925C63.2366 69.1455 63.5216 68.772 63.7684 68.378C63.7834 68.4066 63.8086 68.4195 63.8433 68.4168C63.7534 68.5886 63.6906 68.787 63.6968 68.9772C63.6995 69.0665 63.7452 69.3412 63.889 69.1742C63.9088 69.151 63.9286 69.1271 63.9476 69.1033V69.1046C63.9476 69.1046 63.9497 69.1012 63.9504 69.0999C63.9545 69.0951 63.9585 69.0896 63.9633 69.0849C63.9647 69.089 63.9667 69.0924 63.9688 69.0965C63.6341 69.9022 63.3934 70.742 63.4057 71.6221C63.42 72.6159 63.8311 73.6487 64.692 74.1681C64.2373 74.9847 63.8113 75.8171 63.4146 76.6637C62.4207 76.2295 61.3123 76.1681 60.2857 76.4326C60.5181 76.0154 60.6947 75.5682 60.8078 75.0938C60.8331 74.9868 60.949 74.5832 60.7758 74.5335C60.724 74.5185 60.6749 74.5498 60.6313 74.6023C60.5924 74.4564 60.4854 74.4135 60.3416 74.6671C60.2966 74.7462 60.2502 74.8245 60.2039 74.9029C60.1828 74.9063 60.1575 74.9213 60.1289 74.9534C60.1194 74.9643 60.1105 74.9745 60.101 74.9854C60.056 74.9813 60.0089 75.0154 59.9633 75.0877C59.9155 75.1633 59.8665 75.2376 59.8181 75.3126C59.5454 75.6344 59.2836 75.9636 59.0328 76.3017C59.1977 76.012 59.36 75.7209 59.5188 75.4278C59.5488 75.3917 59.5761 75.3467 59.5992 75.3017L60.0498 74.4224C60.1344 74.2574 60.2884 73.8893 60.1862 73.7073C60.0832 73.526 59.9639 73.6759 59.8903 73.8198C57.4452 78.5853 54.2358 82.9303 50.4042 86.6734C50.2365 86.837 50.1533 87.1226 50.1404 87.3517C50.139 87.3714 50.139 87.398 50.141 87.428C48.5384 88.9706 46.2759 89.8745 44.3045 90.7743C44.4041 90.6578 44.4729 90.5017 44.5193 90.3646C44.5452 90.2869 44.6202 89.9802 44.4954 89.9447C44.4177 89.9222 44.3529 90.0306 44.3086 90.1336C44.293 90.1438 44.2882 90.1506 44.2596 90.1629C44.2043 90.1874 44.1553 90.1929 44.096 90.1826C43.963 90.1601 43.8771 90.4362 43.8526 90.5262C43.8281 90.6169 43.8076 90.713 43.8144 90.8071C43.8172 90.8473 43.8246 90.9373 43.8771 90.9461C43.8921 90.9488 43.9064 90.9495 43.9214 90.9509C42.4163 91.6428 40.9146 92.3435 39.4013 93.017C38.6589 93.3476 37.9084 93.6667 37.1463 93.9523C37.3378 93.8507 37.5212 93.7294 37.6964 93.5883C37.8471 93.4663 37.9548 92.7253 37.7509 92.8903C37.3126 93.244 36.8075 93.4608 36.2697 93.5365C36.3596 93.3115 36.4162 93.017 36.2969 93.0218C36.2063 93.0252 36.119 93.0361 36.0331 93.0491C36.0215 92.9966 35.999 92.9673 35.9629 92.9816C35.9356 92.9925 35.9091 93.002 35.8818 93.0123C35.8777 93.0102 35.8736 93.0082 35.8688 93.0061C35.8402 92.9898 35.8048 93.0116 35.7673 93.0559C34.3712 93.5781 32.8927 93.7567 31.4087 93.5753C31.1885 93.5488 31.0187 94.3184 31.1892 94.3388C31.9663 94.4336 32.7441 94.4315 33.5096 94.3354C33.361 94.409 33.209 94.4745 33.0494 94.5256C31.8497 94.9107 30.5143 94.452 29.367 95.03C29.0644 94.9932 28.7631 94.9489 28.4625 94.8944C28.1823 94.8432 27.9301 95.8691 28.17 95.9121C29.8947 96.2243 31.6629 96.2468 33.393 95.9578C35.2499 95.6469 37.0215 94.9816 38.7414 94.2331C40.4667 93.4819 42.1695 92.6762 43.8799 91.8916C45.3298 91.227 46.809 90.5957 48.1724 89.7607C49.5582 88.912 50.7668 87.8452 51.5616 86.4116C51.5787 86.381 51.5978 86.3428 51.6169 86.2992C53.7375 84.0708 55.651 81.6535 57.3347 79.0823C57.3347 79.0843 57.3347 79.0864 57.3347 79.0877C57.3375 79.1784 57.3818 79.4504 57.527 79.2847C57.8105 78.9609 58.0859 78.6296 58.3538 78.2943C58.3675 78.2834 58.3804 78.2724 58.394 78.2622C58.4152 78.2588 58.4404 78.2445 58.4697 78.2131C58.4758 78.2063 58.482 78.1995 58.4881 78.1927C59.8385 77.2036 61.6865 77.0086 63.2264 77.7291C63.3178 77.7714 63.4289 77.5731 63.4527 77.5213C63.9879 76.3583 64.5775 75.2233 65.221 74.117C65.2967 73.9868 65.5148 73.4012 65.2871 73.3071C64.4459 72.9595 63.9531 72.1094 63.8747 71.2226C63.7827 70.1864 64.3294 69.2042 64.7834 68.3112C64.8386 68.2035 64.9231 68.0085 64.947 67.836C64.9879 67.7542 65.0294 67.6731 65.0683 67.5906C65.4439 67.1571 65.7125 66.6199 65.8822 66.0705C66.2633 64.8353 66.1024 63.5531 65.8236 62.3158C65.8093 62.2511 65.7827 62.2252 65.7527 62.2225C65.8386 62.0568 65.9081 61.8864 65.9688 61.7453C66.2087 61.1829 66.4051 60.5994 66.5605 60.0077L66.5625 60.0057ZM27.6465 90.655C27.6601 90.6612 27.6731 90.6673 27.686 90.6734C27.6642 90.7109 27.6451 90.7532 27.6281 90.7995C27.6267 90.7989 27.6261 90.7975 27.6254 90.7968C27.6213 90.7941 27.6172 90.7921 27.6138 90.7893C27.6192 90.7293 27.6158 90.6762 27.6015 90.636C27.6165 90.6428 27.6322 90.6475 27.6472 90.6544L27.6465 90.655ZM11.4677 80.5676C11.3872 80.4313 11.3327 80.2847 11.377 80.1654C11.3995 80.1055 11.4581 80.0496 11.527 79.9998C11.4861 80.1866 11.4656 80.3781 11.4677 80.5676ZM12.8644 79.5922C12.9742 79.5881 13.0839 79.5888 13.1937 79.5942C13.1357 79.6303 13.0798 79.6699 13.0246 79.7108C12.9721 79.6699 12.919 79.6303 12.8644 79.5922ZM13.1371 82.0973C13.1425 82.0755 13.148 82.053 13.1535 82.0312C13.2073 82.1062 13.2625 82.1805 13.3191 82.2534C13.2577 82.2023 13.1971 82.1498 13.1371 82.0973ZM16.463 83.7224C16.3389 83.6877 16.2155 83.642 16.0949 83.5895C16.1112 83.5575 16.1269 83.5247 16.1405 83.4913C16.1651 83.4797 16.1883 83.4668 16.2108 83.4518C16.268 83.4804 16.326 83.5091 16.3846 83.535C16.5066 83.5888 16.6327 83.6352 16.7588 83.6693C16.7295 83.7456 16.6443 83.7729 16.463 83.7224ZM17.1065 83.8308C17.1126 83.796 17.1181 83.7613 17.1228 83.7258C17.2694 83.7279 17.4078 83.6999 17.5305 83.6318C17.7629 83.6399 17.9851 83.5704 18.1528 83.3734C18.1774 83.3441 18.2006 83.3148 18.2224 83.2855C18.2885 83.4354 18.3505 83.5868 18.4057 83.7415C17.994 83.8376 17.5441 83.8553 17.1065 83.8315V83.8308ZM19.0288 86.9304C18.9122 87.1056 18.7841 87.2746 18.6443 87.4369C18.6157 87.4328 18.5877 87.428 18.5591 87.4239C18.5666 87.3244 18.5591 87.2412 18.5339 87.2051C18.6443 87.1042 18.7486 86.9911 18.8475 86.8772C18.915 86.7995 18.979 86.7197 19.0417 86.6386C19.0233 86.7477 19.0165 86.8588 19.0288 86.9304ZM19.8366 87.4144C19.8298 87.4273 19.8229 87.4491 19.8161 87.4757C19.7977 87.4791 19.78 87.4832 19.7616 87.4859C19.7929 87.4525 19.8229 87.4178 19.8523 87.3823C19.8468 87.3932 19.8427 87.4035 19.8373 87.4144H19.8366ZM20.4146 87.184C20.3949 87.2031 20.3744 87.2208 20.3533 87.2371C20.4146 87.1274 20.4733 87.017 20.5285 86.9045C20.4923 86.9979 20.4549 87.0913 20.4146 87.1833V87.184ZM20.6539 85.854C20.6689 85.7797 20.6839 85.7054 20.6975 85.6304C20.7016 85.6488 20.7057 85.6672 20.7098 85.6856C20.6921 85.7422 20.6737 85.7981 20.6546 85.854H20.6539ZM21.1229 82.5063C21.2081 82.6256 21.2879 82.7476 21.3649 82.8717C21.2865 82.7483 21.2054 82.627 21.1229 82.5063ZM18.7698 91.0975C18.4971 91.0695 18.2244 91.0429 17.9511 91.0191C18.4207 91.0231 18.8897 91.0415 19.3587 91.0736C19.1624 91.079 18.9661 91.0865 18.7698 91.0975ZM19.658 92.3599C20.2108 92.4683 20.7636 92.5753 21.3165 92.6844C21.7405 92.7675 22.1645 92.85 22.5892 92.9332C21.6007 92.8146 20.6205 92.623 19.658 92.3606V92.3599ZM9.9305 88.4751C9.9714 88.518 10.0116 88.5609 10.0512 88.6046C9.73554 88.4301 9.42811 88.2412 9.12681 88.0408C9.06409 87.9249 8.99661 87.8131 8.92708 87.7041C9.27064 87.9488 9.60534 88.2058 9.9305 88.4751ZM4.98087 87.1212C5.11039 87.199 5.23991 87.276 5.37079 87.3523C5.36465 87.3885 5.35988 87.4239 5.3592 87.4566C5.22355 87.366 5.0879 87.276 4.95156 87.1867C4.96179 87.1656 4.97133 87.1437 4.98087 87.1212ZM2.25623 85.2637C2.29781 85.2875 2.34007 85.3107 2.38165 85.3346C2.39188 85.3659 2.40824 85.3918 2.4321 85.4096C2.62638 85.5548 2.82202 85.6966 3.0197 85.8363C3.01629 85.8663 3.01425 85.8942 3.01493 85.9208L1.77633 85.1124C1.9338 85.1696 2.09399 85.2201 2.25623 85.2637ZM-0.0307846 84.1437C-0.278233 84.0149 -0.531133 83.8969 -0.790169 83.7885C-0.859017 83.7088 -0.927185 83.629 -0.996035 83.5493C-0.679056 83.7558 -0.357306 83.9542 -0.0301037 84.1444L-0.0307846 84.1437ZM-3.07855 82.1634C-3.0356 82.1028 -2.9947 82.0278 -2.95925 81.9467C-2.75611 82.143 -2.54616 82.3338 -2.33075 82.5186C-2.3287 82.5752 -2.31643 82.6188 -2.28985 82.6392C-2.27962 82.6474 -2.26872 82.6549 -2.25781 82.6624L-2.25645 82.6638C-2.11534 82.7701 -1.97355 82.8758 -1.8304 82.9787C-1.92584 83.1628 -1.99469 83.4341 -1.91152 83.5309C-1.67157 83.8097 -1.43231 84.0878 -1.19236 84.3666C-1.19099 84.4143 -1.18554 84.4532 -1.17395 84.4729C-1.06488 84.6679 -0.942864 84.8506 -0.811301 85.0237C-1.63204 85.2316 -2.40301 85.5991 -3.0915 86.1219C-3.34235 86.3128 -3.57412 86.5227 -3.7943 86.7484C-3.99199 86.9508 -4.08606 87.049 -4.3785 86.9379C-4.52165 86.8833 -4.66821 86.7436 -4.79363 86.6584C-5.26399 86.3421 -5.73502 86.0258 -6.20538 85.7088C-5.03972 84.6434 -3.99267 83.4552 -3.07855 82.1641V82.1634ZM-12.4113 65.6997L-12.958 62.7242C-12.6908 63.6983 -12.4379 64.6833 -12.4052 65.6888C-12.4072 65.6922 -12.4093 65.6963 -12.4113 65.6997ZM-12.1271 57.0083C-12.1489 56.7984 -12.1687 56.5884 -12.1891 56.3785C-12.1373 56.3642 -12.0848 56.3512 -12.0316 56.3403C-12.0684 56.5625 -12.1005 56.7847 -12.1271 57.0083ZM-3.34303 34.4613C-3.40439 34.4893 -3.46642 34.5131 -3.53049 34.5322C-3.51959 34.4988 -3.50527 34.4654 -3.48755 34.432C-2.78474 33.5949 -2.03286 32.8008 -1.23735 32.053C-1.93947 32.856 -2.64091 33.659 -3.34303 34.4613ZM-1.78405 34.021C-1.9756 34.2398 -2.16851 34.4586 -2.36211 34.6754C-2.48004 34.8069 -2.86518 35.1321 -2.9947 34.9126C-2.92517 34.8581 -2.857 34.8015 -2.7902 34.7429C-2.28849 34.2984 -1.82631 33.7994 -1.36686 33.312C-0.784716 32.6951 -0.222336 32.0598 0.320957 31.4088C-0.325269 32.3236 -1.05329 33.1866 -1.78405 34.021ZM1.94334 28.4476C1.91062 28.5349 1.87722 28.6214 1.84177 28.7073C1.83154 28.6773 1.81587 28.6576 1.79337 28.6576C1.70748 28.6569 1.62363 28.6623 1.54047 28.6705C1.6734 28.5942 1.80769 28.5192 1.94266 28.4476H1.94334ZM1.51798 29.4224C1.48935 29.481 1.4614 29.5403 1.4314 29.5983C1.413 29.5322 1.37619 29.4797 1.30393 29.556C1.22281 29.6433 1.14169 29.7298 1.06057 29.8171C1.10352 29.6099 1.1042 29.4231 0.973319 29.5233C0.320958 30.023 -0.306863 30.5506 -0.910825 31.1034C-0.286412 30.2929 0.453884 29.4422 1.51729 29.4224H1.51798ZM22.5346 29.2534C21.8632 27.4987 21.8264 25.5355 23.0738 24.0829C22.3642 25.695 22.1468 27.5328 22.5346 29.2534ZM23.5953 25.2397C23.5456 25.4967 23.5176 25.7571 23.5135 26.0181C23.4631 26.0263 23.4174 26.0693 23.3792 26.1231C23.2749 25.7366 23.2572 25.3378 23.367 24.954C23.4263 24.7461 23.5333 24.5525 23.6648 24.3719C23.6171 24.6602 23.5933 24.9506 23.5946 25.2403L23.5953 25.2397ZM25.1932 23.0017C25.0943 23.0017 24.9962 23.0051 24.8987 23.0133C24.8782 23.0154 24.8585 23.0174 24.8387 23.0194C24.8407 23.0133 24.8428 23.0072 24.8448 23.0004C24.9478 22.9124 25.0657 22.8402 25.2013 22.7897C25.2845 22.759 25.3711 22.7352 25.4597 22.7168C25.3656 22.8047 25.277 22.9002 25.1938 23.001L25.1932 23.0017ZM27.5402 26.3917C27.4372 26.3569 27.3377 26.3147 27.2395 26.2697C27.2634 26.2369 27.2866 26.2008 27.3098 26.1613C27.3193 26.1442 27.3268 26.1258 27.3363 26.1081C27.4727 26.1599 27.6063 26.207 27.7331 26.2513C27.9655 26.3331 28.2361 26.4244 28.5231 26.5008C28.1993 26.5437 27.8633 26.5008 27.5408 26.3917H27.5402ZM33.8702 23.9472C33.8531 24.0345 33.8436 24.1163 33.8456 24.1865C33.5968 23.9574 33.3071 23.7543 32.9997 23.5593C33.2853 23.6704 33.5825 23.7986 33.8695 23.9472H33.8702ZM32.1899 23.0113C32.1892 23.0379 32.1899 23.0638 32.1912 23.0883C32.1401 23.0603 32.089 23.0317 32.0378 23.0045C32.0883 23.0065 32.1394 23.0092 32.1899 23.0113ZM30.1578 25.3181C30.1885 25.3365 30.2198 25.3542 30.2505 25.3733C30.2655 25.3828 30.2798 25.3924 30.2948 25.4019C30.2491 25.4128 30.2028 25.4223 30.1557 25.4305C30.1571 25.393 30.1578 25.3555 30.1578 25.3181ZM29.7801 26.6569C30.106 26.6344 30.4127 26.5464 30.6656 26.3542C30.8163 26.2397 30.9403 26.1013 31.0385 25.9472C31.0399 25.9486 31.0412 25.9493 31.0426 25.9506C31.0958 25.9963 31.1578 26.0686 31.2157 26.1122C31.1769 26.1545 31.1394 26.1933 31.1135 26.2138C30.7174 26.5294 30.2232 26.7025 29.699 26.7823C29.727 26.7414 29.7542 26.6998 29.7801 26.6575V26.6569ZM29.2307 25.3835C29.2443 25.344 29.2566 25.3044 29.2668 25.2642C29.3091 25.3106 29.3473 25.3583 29.3827 25.408C29.3323 25.4005 29.2818 25.3924 29.2314 25.3835H29.2307ZM32.969 27.9773C31.9554 28.5805 30.6636 28.9268 29.4502 29.0768C29.5975 28.7932 29.6568 28.3338 29.594 28.177C29.8981 28.1115 30.1994 28.0386 30.4979 27.9657C30.9697 27.8498 31.4673 27.7325 31.8415 27.4012C32.2648 27.0263 32.4782 26.4094 32.5116 25.8573C32.5518 25.1858 32.2642 24.6807 31.8422 24.269C32.2308 24.4782 32.6104 24.7052 32.9758 24.9534C33.5157 25.3194 34.106 25.8075 34.1074 26.5212C34.1081 27.1681 33.4762 27.676 32.9704 27.9766L32.969 27.9773ZM31.6875 26.4721C31.7733 26.3119 31.8395 26.1463 31.877 25.9806C31.9192 26.0849 31.9349 26.1872 31.9601 26.2942C31.9506 26.301 31.939 26.3085 31.9247 26.3153C31.862 26.3467 31.8061 26.4046 31.7447 26.4408C31.7256 26.4517 31.7065 26.4619 31.6868 26.4721H31.6875ZM40.6392 19.5777C40.6119 19.6813 40.5949 19.7876 40.5908 19.8803C40.5737 19.8967 40.5567 19.9172 40.5403 19.9403C40.4101 19.8878 40.2793 19.8367 40.1477 19.7876C40.3168 19.729 40.481 19.6588 40.6399 19.577L40.6392 19.5777ZM43.2963 24.1292C42.8369 24.5689 42.0053 23.9615 41.6392 23.6732C41.5363 23.5921 41.3979 23.4796 41.2588 23.348C40.6481 22.8872 39.9166 22.0903 40.4545 21.5791C41.132 20.9356 42.1389 21.8613 42.6215 22.3057C42.9085 22.5702 43.282 22.9015 43.4143 23.2819C43.5043 23.5403 43.5097 23.9247 43.2963 24.1285V24.1292ZM49.7593 27.6173C49.8179 27.6187 49.8765 27.6194 49.9345 27.6201C49.9229 27.71 49.9236 27.7905 49.9399 27.8477C49.8684 27.8157 49.7968 27.7837 49.7245 27.7523C49.7382 27.708 49.7504 27.6623 49.76 27.6173H49.7593ZM48.3244 29.4831C48.3087 29.4285 48.3005 29.3651 48.2882 29.3038L48.3878 29.3024C48.5084 29.3154 48.6223 29.3549 48.7306 29.4081C48.6904 29.4749 48.6604 29.5376 48.6536 29.5546C48.578 29.7401 48.4968 30.025 48.5984 30.2166C48.7906 30.5778 48.987 30.9419 49.1962 31.297C48.8077 30.7496 48.5091 30.1375 48.3244 29.4831ZM49.7034 30.5669C49.6686 30.4906 49.6352 30.4129 49.6039 30.3352C49.7825 30.4504 49.9515 30.5792 50.1097 30.7196C50.3973 31.1232 50.6264 31.5594 50.792 32.0175C50.3735 31.5847 50.021 31.0877 49.7034 30.5669ZM51.955 33.1668C51.9618 33.1184 51.9659 33.0823 51.9659 33.0653C51.9652 32.9848 51.9618 32.9044 51.957 32.8246C52.0115 32.9589 52.0599 33.0959 52.1008 33.2357C52.0606 33.2036 52.0129 33.1798 51.9556 33.1662L51.955 33.1668ZM54.1745 31.3461C54.1568 31.6017 53.8507 31.7585 53.6544 31.5615C53.5433 31.4497 53.4328 31.3372 53.3272 31.2193C53.184 31.1314 53.0511 31.0264 52.9352 30.9071C52.3353 30.5042 51.76 29.9016 52.1077 29.4333C52.1363 29.299 52.2719 29.1886 52.4096 29.1906C53.2706 28.7884 54.4574 30.1675 54.1745 31.04C54.1752 31.0639 54.1731 31.087 54.1684 31.1089C54.1772 31.1873 54.1799 31.2663 54.1745 31.3454V31.3461ZM58.9523 35.8267C58.8249 35.6236 58.696 35.4218 58.5645 35.2214C58.7083 35.3932 58.8501 35.5663 58.9919 35.7402C58.9782 35.7681 58.9646 35.7974 58.9523 35.8274V35.8267ZM66.2585 59.4467C66.2783 59.3744 66.2987 59.3022 66.3192 59.2292C66.2837 59.4515 66.2367 59.671 66.1794 59.8877C66.2074 59.7412 66.234 59.5939 66.2585 59.446V59.4467ZM62.6531 67.864C62.6661 67.6629 62.6811 67.4604 62.6988 67.2573C62.7104 67.2702 62.7247 67.2805 62.7418 67.2859C62.7581 67.4454 62.7779 67.6049 62.8004 67.7638C62.7561 67.8026 62.707 67.836 62.6531 67.8633V67.864ZM63.6177 64.0405C63.5414 64.1536 63.4909 64.3247 63.4698 64.3902C63.3982 64.6124 63.326 64.8353 63.2544 65.0575C63.3185 64.4324 63.4684 63.8251 63.7015 63.2416C63.6797 63.5088 63.6518 63.7753 63.6177 64.0405ZM63.7418 61.1481C63.7302 61.1774 63.7186 61.2074 63.707 61.2374C63.1678 61.8782 62.9824 63.1632 62.874 63.7521C62.8392 63.9396 62.8099 64.1271 62.784 64.3152C62.467 65.6922 62.2666 67.093 62.1862 68.5041C61.8017 68.2566 62.0505 67.4502 62.0942 67.0923C62.163 66.5245 62.2366 65.9573 62.3246 65.3922C62.4827 64.3813 62.6831 63.3759 62.9906 62.399C63.0819 62.1079 63.3423 60.9505 63.7159 60.9184C63.7581 60.915 63.7997 60.9205 63.8413 60.9307C63.7997 61.0111 63.7663 61.0868 63.7411 61.1481H63.7418ZM34.3317 94.8051C34.1019 94.8555 33.8715 94.8991 33.6398 94.938C34.1858 94.6156 34.6943 94.2059 35.2696 93.9714C35.2342 94.1452 35.2417 94.3095 35.3174 94.3163C35.6378 94.3456 35.95 94.3293 36.2519 94.2713C35.6214 94.4813 34.9827 94.6633 34.3324 94.8051H34.3317ZM64.5032 62.2579C64.5189 62.2436 64.5346 62.2293 64.5496 62.215C64.5482 62.2572 64.5482 62.2975 64.5496 62.337C64.5243 62.3758 64.5018 62.4222 64.4827 62.472C64.4896 62.4004 64.4971 62.3295 64.5032 62.2579ZM63.9463 65.6595C63.951 65.639 63.9565 65.6185 63.9613 65.5974C64.1215 64.9335 64.2496 64.2641 64.3478 63.5899C64.2783 64.2934 64.1351 64.9819 63.9456 65.6595H63.9463ZM64.0553 66.9526C64.3369 66.2321 64.5652 65.4918 64.7384 64.7378C64.5843 65.5034 64.3757 66.2552 64.0553 66.9526ZM65.1849 61.885C65.1849 61.885 65.1821 61.885 65.1808 61.885C65.174 61.7712 65.1617 61.6587 65.146 61.5456C65.2237 61.444 65.2987 61.3417 65.3703 61.2361C65.3089 61.4528 65.2469 61.6689 65.1849 61.8857V61.885ZM65.917 59.0506C65.8025 59.5298 65.6089 59.9825 65.3451 60.3976C65.3969 60.2054 65.4473 60.0125 65.4964 59.8196C65.66 59.4978 65.8086 59.1699 65.9429 58.8352C65.9347 58.9068 65.9265 58.9784 65.917 59.0506Z" fill="#240057"/>
<path fill-rule="evenodd" clip-rule="evenodd" d="M23.7747 19.3473C23.6997 19.348 23.6254 19.3514 23.5511 19.3555C23.7263 19.3726 23.9015 19.3916 24.0746 19.4148C24.1694 19.4278 24.2409 19.4741 24.2893 19.5368C24.4298 19.5225 24.5709 19.5096 24.7113 19.4959C24.425 19.3637 24.0828 19.3426 23.7747 19.3467V19.3473Z" fill="#240057"/>
<path fill-rule="evenodd" clip-rule="evenodd" d="M62.9366 43.7423C62.9694 43.8193 63.0014 43.897 63.0334 43.974C63.0171 43.88 62.998 43.7859 62.9769 43.6925C62.9646 43.7095 62.9503 43.7259 62.9366 43.7423Z" fill="#240057"/>
<path fill-rule="evenodd" clip-rule="evenodd" d="M61.546 40.3877C61.4628 40.2855 61.3722 40.1976 61.272 40.1314C61.2297 40.1042 61.2038 40.0946 61.2086 40.096C61.1956 40.0912 61.1513 40.0837 61.1479 40.0824C61.1268 40.0817 61.1336 40.0858 61.1309 40.0885C61.0961 40.1144 61.0695 40.1355 61.0443 40.1641C61.1513 40.2316 61.2515 40.3148 61.3442 40.4021C61.4124 40.3864 61.4799 40.3823 61.546 40.3877Z" fill="#240057"/>
<path fill-rule="evenodd" clip-rule="evenodd" d="M61.5064 42.1703C61.4737 42.0272 61.4355 41.8472 61.3769 41.6748C61.3537 41.6523 61.3299 41.6305 61.306 41.6086C61.3748 41.867 61.4294 42.1294 61.486 42.3905C61.5241 42.4832 61.5637 42.5753 61.6012 42.668C61.5746 42.501 61.5439 42.3346 61.5057 42.1703H61.5064Z" fill="#240057"/>
<path fill-rule="evenodd" clip-rule="evenodd" d="M40.7543 91.4689C40.3508 91.9276 39.8136 92.2044 39.2021 92.2514C38.9588 92.2698 38.8538 93.0251 38.9826 93.0149C39.6575 92.9631 40.2506 92.6761 40.6998 92.1669C40.8191 92.0312 40.8872 91.8383 40.8975 91.6584C40.9016 91.5909 40.8757 91.3312 40.7543 91.4689Z" fill="#240057"/>
<ellipse cx="235" cy="662" rx="15" ry="10" fill="white" fill-opacity="0.7"/>
<ellipse cx="196" cy="657" rx="15" ry="5" fill="white" fill-opacity="0.7"/>
<path opacity="0.7" d="M281.709 20.169C281.709 19.4755 282.134 18.905 283.007 18.5247C283.387 18.357 283.813 18.2563 284.26 18.2004C284.305 17.8648 284.54 17.574 285.11 17.3727C288.445 16.1982 294.498 17.8201 294.945 21.9474C295.236 24.6207 294.408 27.0143 291.6 27.7414C288.411 28.5691 283.455 27.3946 281.609 24.4417C280.713 23.01 280.859 21.3994 281.698 20.169H281.709Z" fill="#B2DDFF"/>
<path opacity="0.7" d="M191.206 5.74929C191.33 4.86939 192.088 3.64672 193.015 3.44102C193.071 3.32675 193.116 3.21249 193.184 3.09822C194.982 -0.0671501 199.098 -0.444268 202.286 0.367071C205.565 1.20127 208.697 3.70386 208.979 7.30346C209.239 10.5831 207.012 14.2741 204.276 15.9768C201.042 17.9765 196.463 16.8224 193.75 14.4341C190.923 11.9429 190.708 9.3032 191.217 5.76073L191.206 5.74929Z" fill="#B2DDFF"/>
</g>
</svg>
