<svg width="1188" height="690" viewBox="0 0 1188 690" fill="none" xmlns="http://www.w3.org/2000/svg">
<path d="M187.847 438.941C187.847 438.941 216.203 457.508 213.523 494.261C210.843 531.013 195.323 540.144 195.323 540.144C195.323 540.144 191.753 551.365 177.986 559.059C164.22 566.753 146.56 567.634 142.023 569.483C137.486 571.332 110.912 573.732 91.9911 561.487C73.0814 549.241 53.3966 517.365 52.4743 499.903C51.552 482.441 59.3751 465.627 64.227 459.452C69.0782 453.288 75.1512 437.707 79.4121 432.298C84.2633 426.134 109.759 408.418 133.52 414.499C157.281 420.58 161.66 420.9 170.259 423.696C178.859 426.492 187.849 438.92 187.849 438.92L187.847 438.941Z" fill="#5D13D1"/>
<path d="M134.041 570.799C137.928 570.522 140.785 569.985 142.013 569.481C143.915 568.714 148.121 568.103 153.371 567.094C152.587 566.173 151.663 565.351 150.697 564.676C150.527 564.458 150.358 564.23 150.211 564.004C150.191 563.97 150.131 563.901 150.071 563.821C150.032 563.764 149.992 563.707 149.953 563.64L149.973 563.663C149.894 563.56 149.838 563.426 149.759 563.313C149.479 562.807 149.21 562.301 148.964 561.776C148.501 560.793 147.56 559.904 146.747 559.23C146.129 558.721 145.422 558.227 144.678 557.795C143.097 555.651 141.362 553.539 139.571 551.434C130.843 541.107 120.943 531.882 110.065 523.783C108.314 522.48 106.527 521.216 104.728 519.974C104.75 519.231 103.93 518.189 103.362 517.586C102.246 516.415 101.094 515.284 99.9193 514.174C99.9791 514.102 100.06 514.044 100.11 513.95C100.783 512.521 97.3545 510.102 96.5833 509.592C95.6446 508.984 94.6811 508.418 93.7299 507.831C93.1437 507.032 92.2586 506.288 91.8886 505.97C91.8165 505.911 91.7335 505.851 91.6621 505.781C91.9427 505.078 91.3752 504.173 90.5717 503.359C91.5227 502.749 90.4046 501.157 89.5886 500.363C87.7527 498.579 85.9401 496.774 84.1399 494.948C84.4771 494.218 83.5544 492.942 82.8609 492.265C80.2276 489.732 77.6992 487.109 75.2531 484.405C75.184 484.303 75.115 484.201 75.0251 484.086C73.6881 482.5 72.3402 480.912 71.0032 479.326C71.2518 478.912 71.0822 478.242 70.5286 477.446C67.492 473.102 64.1868 468.998 60.6751 465.03C56.3171 473.119 51.7403 486.306 52.4639 499.901C52.5406 501.396 52.8051 503.012 53.1409 504.699C69.2463 508.517 84.5889 514.707 98.4326 523.928C111.496 532.618 139.359 552.843 134.031 570.799L134.041 570.799Z" fill="#240057"/>
<path d="M125.962 533.446C133.123 530.515 134.863 521.934 132.622 515.21C131.878 512.986 130.759 510.952 129.39 509.06C129.792 509.241 130.249 509.414 130.688 509.533C131.654 510.067 132.617 510.634 133.596 511.148C134.595 511.674 137.319 513.113 138.029 511.611C138.712 510.183 135.273 507.763 134.502 507.253C131.24 505.106 127.972 502.893 124.787 500.578C126.145 501.432 127.538 502.246 128.96 502.975C129.475 503.24 131.288 504.149 132.122 503.789C132.324 503.868 132.503 503.967 132.705 504.036C133.46 504.318 135.615 505.025 135.27 503.468C134.982 502.173 133.337 500.91 132.079 500.192C132.286 500.045 132.402 499.806 132.303 499.367C132.136 498.653 131.576 497.954 130.888 497.354C130.803 497.013 130.589 496.652 130.308 496.308C130.571 496.456 130.822 496.604 131.084 496.753C131.734 497.124 134.594 498.498 134.688 496.908C134.707 496.65 134.627 496.396 134.504 496.139C128.733 492.146 123.568 487.335 118.737 482.288C117.326 480.815 115.998 479.262 114.575 477.798C113.398 476.72 112.23 475.652 111.076 474.554C110.58 474.313 110.081 474.125 109.566 473.991C109.084 473.869 108.235 473.667 107.894 474.16C107.564 474.643 108.075 475.414 108.345 475.758C109.374 477.074 110.404 478.379 111.433 479.695C111.623 479.935 111.868 480.169 112.092 480.401C111.785 480.713 111.937 481.318 112.387 482.041C112.807 482.719 113.286 483.348 113.74 484.007C113.559 483.95 113.39 483.863 113.208 483.817C112.961 483.756 112.607 483.676 112.278 483.684C111.762 483.431 111.241 483.231 110.705 483.095C109.085 482.696 108.556 483.51 109.483 484.873C109.532 484.952 109.592 485.021 109.652 485.101C109.607 485.562 109.983 486.096 110.19 486.413C111.81 488.905 113.705 491.234 115.81 493.373C108.952 487.208 103.193 480.055 99.9818 471.069C96.7603 462.072 97.2378 451.478 101.733 443.151C102.811 441.708 103.972 440.314 105.331 439.043C110.913 433.796 118.035 430.646 125.523 429.206C125.981 429.52 126.434 429.748 126.742 429.727C145.432 428.198 162.781 435.635 175.09 448.672C174.372 448.188 173.654 447.704 172.855 447.279C172.466 447.067 172.189 446.971 171.953 446.911C175.838 449.655 179.012 453.458 181.429 457.465C183.027 460.117 184.319 463.071 185.09 466.127C185.183 466.35 185.275 466.583 185.369 466.795C187.112 471.055 188.529 474.989 187.471 479.606C186.559 483.575 185.2 487.685 183.224 491.263C179.27 498.464 172.927 501.422 165.9 501.913C165.838 501.866 165.788 501.808 165.726 501.76C165.576 501.566 165.415 501.382 165.303 501.266C165.325 501.267 165.336 501.268 165.358 501.27C166.044 501.287 165.86 500.821 165.637 500.437C165.766 500.307 165.895 500.186 166.025 500.056C166.096 499.985 166.103 499.889 166.099 499.791C166.156 499.752 166.202 499.723 166.27 499.685C166.52 499.552 166.505 499.314 166.351 499.033C167.887 498.929 169.438 498.783 170.998 498.508C171.817 498.363 170.43 497.021 170.253 496.889C169.626 496.358 168.606 495.668 167.72 495.831C163.295 496.598 158.971 496.585 154.755 495.986L152.384 495.241C153.547 495.477 154.722 495.692 155.9 495.854C156.819 495.985 157.386 495.854 157.712 495.576C172.826 494.563 175.575 475.588 168.61 462.498C162.366 450.766 149.499 440.58 135.855 437.761C141.138 437.812 146.68 439.252 151.034 440.8C161.072 444.391 169.923 451.09 174.479 460.81C176.917 466.017 177.984 471.749 177.317 477.452C177.255 478.009 179.116 479.007 179.188 478.462C181.939 454.815 157.306 437.469 135.593 436.415C133.372 436.307 131.087 436.486 128.92 437.008C128.341 436.998 127.753 436.977 127.173 436.999C119.997 437.296 110.975 440.285 107.37 447.037C103.486 454.318 107.756 463.014 111.981 469.192C114.862 473.416 118.354 477.2 122.238 480.558L122.206 480.556C121.811 480.419 121.429 480.273 121.057 480.127C124.476 483.128 127.918 486.098 131.42 489.008C132.13 489.599 132.841 490.18 133.552 490.771C133.796 490.724 134.065 490.776 134.29 490.987C136.264 492.825 138.703 494.125 141.03 495.471C143.502 496.914 145.841 498.541 148.452 499.735C151.094 500.953 153.855 501.888 156.615 502.823C158.139 503.344 159.632 503.992 161.143 504.545C161.608 504.611 162.073 504.667 162.551 504.712C171.388 505.594 180.918 502.976 185.946 495.282C188.54 491.316 190.141 486.437 191.196 481.852C192.285 477.097 190.909 473.047 189.122 468.655C188.64 467.465 188.126 466.284 187.6 465.112C188.698 465.926 189.961 466.579 191.002 466.99C192.2 467.476 194.937 468.14 194.104 465.932C189.854 454.712 183.269 444.359 173.917 436.609C165.542 429.675 155.453 425.432 144.879 423.204C157.296 424.131 169.314 429.173 178.324 437.88C176.964 437.802 179.708 440.322 180.63 440.551C180.81 440.629 180.99 440.707 181.17 440.785C182.011 441.537 185.137 442.563 183.359 440.577C174.501 430.684 162.298 423.978 149.3 421.444C148.828 421.172 148.331 420.952 147.966 420.861C138.896 418.516 129.524 418.524 120.479 420.94C120.156 421.024 120.365 421.46 120.82 421.957C116.442 422.534 112.148 423.602 108.101 425.325C107.084 424.895 106.146 424.729 105.512 425.028C99.755 427.738 95.5927 431.945 92.8376 436.924C88.4058 442.73 86.0212 449.818 86.3223 457.523C86.4798 461.506 87.2924 465.342 88.5971 469.02C88.3939 468.81 88.2201 468.647 88.1589 468.588C87.8106 468.272 87.4297 467.952 87.0364 467.654C82.4119 454.53 85.1465 439.643 94.5265 429.04C97.3115 425.898 100.587 423.212 104.226 421.093C104.717 420.805 103.078 419.466 102.587 419.754C100.614 420.905 98.7922 422.218 97.0816 423.658C96.7992 423.486 96.5237 423.369 96.3235 423.419C92.0916 424.535 88.5612 426.965 85.829 430.132C85.9629 429.495 86.075 428.855 86.1352 428.18C86.1681 427.729 86.0186 427.233 85.7496 426.727C84.9996 427.277 84.3054 427.809 83.6672 428.324L83.6439 428.344C83.0173 428.848 82.4349 429.345 81.9208 429.804C81.8975 429.824 81.8735 429.855 81.8502 429.875C81.3478 430.324 80.8896 430.765 80.5006 431.157C80.4765 431.188 80.4532 431.208 80.4299 431.228C80.0401 431.631 79.7069 432.006 79.442 432.343C75.192 437.752 69.1081 453.333 64.2569 459.497C62.2585 462.038 59.767 466.4 57.5782 471.851C65.4662 472.124 74.1576 472.164 75.5883 474.114C80.4845 480.816 85.3907 487.53 90.7846 493.847C93.7836 497.357 96.9332 500.748 100.224 503.999C100.754 504.523 101.295 505.048 101.573 505.727C101.926 506.572 101.836 507.505 101.78 508.429C101.766 508.622 101.752 508.815 101.738 509.008C101.669 511.151 102.966 511.936 104.534 513.054C105.24 513.558 108.948 516.624 109.892 515.969C109.823 516.018 109.753 516.078 109.684 516.127C108.43 516.996 112.205 520.044 112.568 520.308C112.734 520.428 112.921 520.561 113.108 520.693C112.773 520.938 112.459 521.207 112.114 521.441C110.023 522.853 113.983 525.774 117.206 527.25C117.269 527.59 117.311 527.916 117.437 528.282C118.175 530.44 123.505 534.497 125.993 533.481L125.962 533.446ZM81.1102 448.413C81.2066 446.942 81.3572 445.475 81.6266 444.027C83.0149 436.52 87.4686 429.367 94.4298 426.022C86.2045 434.271 81.8413 445.877 83.0782 457.675C82.155 454.608 81.4413 451.513 81.1102 448.413Z" fill="#240057"/>
<path d="M164.749 511.412C164.728 511.249 164.718 511.086 164.686 510.922C164.654 510.769 164.61 510.614 164.567 510.46C164.549 510.405 164.531 510.35 164.502 510.304C164.373 509.982 164.353 509.657 164.397 509.347C160.222 509.388 155.902 508.404 152.085 507.284C147.08 505.818 141.856 503.765 137.703 500.506C137.685 500.591 137.638 500.641 137.641 500.749C137.646 502.174 139.943 503.787 141.204 504.462C141.908 505.15 142.749 505.751 143.05 505.956C148.472 509.643 154.904 513.263 161.724 512.454C162.649 512.349 163.996 512.145 164.737 511.422L164.749 511.412Z" fill="#240057"/>
<path d="M156.786 531.647C158.391 530.761 160.344 529.133 159.829 527.067C159.541 525.924 158.834 524.977 157.976 524.159C157.475 523.55 156.881 523 156.304 522.526C154.902 521.377 153.307 520.484 151.592 519.895C149.588 519.209 147.539 519.146 145.452 519.469C143.64 519.747 141.709 520.61 140.771 522.246C139.506 524.463 140.489 526.715 142.145 528.422C145.752 532.127 151.937 534.337 156.775 531.646L156.786 531.647Z" fill="#240057"/>
<path d="M79.65 515.178C71.3766 511.802 62.7209 509.325 53.886 507.807C54.3437 509.47 54.9061 511.194 55.5639 512.958C58.9965 513.068 62.4212 513.285 65.8342 513.664C70.5787 514.506 75.2571 515.656 79.8118 517.154C89.8946 521.18 99.3845 526.599 107.973 533.289C108.669 533.933 109.376 534.578 110.047 535.264C110.311 535.532 110.846 535.84 111.407 536.075C111.994 536.571 112.592 537.057 113.167 537.563C114.511 538.751 117.214 538.981 114.966 537.004C113.324 535.557 111.623 534.17 109.908 532.815C101.167 524.775 90.7947 519.023 79.6601 515.19L79.65 515.178Z" fill="#240057"/>
<path d="M94.3724 528.23C94.6548 528.402 94.9372 528.573 95.2195 528.745C95.7207 529.062 96.1343 529.232 96.4788 529.301C97.3516 529.764 98.212 530.247 99.0607 530.741C99.5006 530.999 100.65 531.558 100.857 530.818C101.049 530.13 99.3217 529.109 98.9237 528.875C97.3729 527.974 95.7964 527.125 94.2059 526.319C82.589 519.213 69.4509 514.996 55.9855 514.068C56.3156 514.934 56.6783 515.802 57.0511 516.682C59.065 516.775 61.0843 516.944 63.0763 517.186C61.092 516.987 59.0921 516.852 57.0875 516.782C57.4696 517.684 57.8407 518.585 58.2763 519.501C70.8007 519.702 83.1605 522.61 94.384 528.22L94.3724 528.23Z" fill="#240057"/>
<path d="M145.104 513.887C145.217 513.841 145.257 513.747 145.244 513.616L145.166 513.341C145.061 513.139 144.909 512.966 144.758 512.793C144.739 512.759 144.731 512.715 144.701 512.681C144.6 512.566 144.499 512.45 144.398 512.335C144.134 512.068 143.844 511.842 143.543 511.636C143.104 511.356 142.643 511.096 142.128 510.961C141.807 510.873 141.497 510.786 141.175 510.697L140.808 510.638C140.658 510.606 140.535 510.64 140.43 510.729C140.352 510.756 140.315 510.807 140.32 510.894C140.267 511.02 140.29 511.151 140.38 511.276L140.575 511.592C140.676 511.708 140.777 511.823 140.877 511.938C141.071 512.136 141.276 512.313 141.505 512.469C141.732 512.648 141.983 512.806 142.235 512.944C142.646 513.146 143.057 513.349 143.458 513.54C143.679 513.664 143.912 513.767 144.158 513.839C144.348 513.918 144.542 513.964 144.748 513.979C144.899 514.012 145.021 513.978 145.126 513.888L145.104 513.887Z" fill="#240057"/>
<path d="M189.395 446.931C192.354 452.477 195.895 457.699 198.992 463.159C199.073 463.1 199.133 463.018 199.123 462.866C199.07 462.388 198.996 461.907 198.922 461.427C199.045 461.382 199.107 461.279 199.087 461.105C198.84 459.554 198.404 458.044 197.833 456.589C197.692 456.125 197.506 455.669 197.343 455.215C197.145 455.082 196.973 454.897 196.827 454.649C196.391 453.883 195.945 453.117 195.477 452.349C193.756 449.882 191.42 447.91 189.085 445.937C188.916 446 188.766 446.119 188.606 446.204C188.914 446.335 189.193 446.549 189.395 446.92L189.395 446.931Z" fill="#240057"/>
<path d="M185.939 479.041C185.13 463.778 175.764 450.513 163.447 441.781C150.402 432.542 132.031 427.286 116.866 434.392C115.916 434.841 119.069 437.585 120.143 437.08C133.917 430.628 150.607 434.521 162.59 443.046C173.722 450.958 181.489 463.383 182.208 477.032C182.273 478.235 185.991 479.984 185.938 479.052L185.939 479.041Z" fill="#240057"/>
<path d="M245.319 620.997C257.432 610.658 241.119 571.193 207.369 523.098C205.959 526.556 204.454 529.36 203.01 531.639C223.8 564.093 232.896 589.597 224.277 596.953C215.658 604.31 190.706 591.344 160.605 565.55C144.27 551.55 126.383 533.822 108.668 513.571C91.6899 494.161 77.0467 474.933 65.6021 457.523C43.1062 423.305 32.9753 396.118 41.9197 388.494C50.3873 381.266 73.9227 393.287 102.722 417.454C105.723 416.292 108.898 415.293 112.184 414.562C69.4423 375.339 32.875 354.199 20.8898 364.429C8.55532 374.957 25.7031 415.713 60.7308 465.013C72.8553 482.083 87.1128 500.162 103.053 518.384C118.993 536.607 135.155 553.281 150.545 567.654C194.775 608.939 233.016 631.539 245.339 621.02L245.319 620.997Z" fill="#240057"/>
<path d="M245.319 620.997C257.432 610.658 241.119 571.193 207.369 523.098C205.959 526.556 204.454 529.36 203.01 531.64C223.8 564.093 232.896 589.597 224.277 596.953C215.658 604.31 190.706 591.344 160.605 565.55C146.892 553.792 132.083 539.385 117.193 523.084C114.351 519.974 111.512 516.811 108.668 513.571C91.6899 494.161 77.0467 474.933 65.6021 457.523C65.4649 457.308 65.3377 457.105 65.1896 456.889C72.717 472.146 83.5676 489.911 97.1198 508.974C100.914 514.311 104.94 519.763 109.137 525.27C123.117 540.857 137.097 555.106 150.534 567.654C158.623 575.204 166.497 582.112 174.061 588.329C207.874 616.088 235.253 629.619 245.317 621.019L245.319 620.997Z" fill="#5D13D1"/>
<g opacity="0.7">
<path d="M424.137 503.24C425.918 501.182 430.603 496.835 436.013 491.988C439.304 489.036 444.067 493.298 441.501 496.897C425.424 519.393 403.838 549.311 399.391 554.074L390.027 564.108L380.663 554.074C393.372 540.695 415.444 513.274 424.137 503.24Z" fill="#515092"/>
<path d="M388.317 568.439C386.675 569.279 384.509 568.94 382.552 568.085C381.997 568.401 380.918 567.9 380.479 567.653C377.25 565.873 375.231 562.528 376.279 558.829C377.234 555.453 380.248 553.141 383.793 553.419C387.261 553.689 391.022 556.424 392.054 559.808C392.956 562.752 391.068 567.037 388.317 568.439Z" fill="#BAA4FF"/>
</g>
<g opacity="0.7">
<path d="M341.25 32.1681C340.318 30.8117 342.206 29.2704 343.416 30.3801C351.639 37.9559 367.877 53.7856 372.139 58.7025C378.458 65.9931 394.496 85.9228 403.729 95.6411C412.962 105.359 451.28 147.03 451.28 147.03L438.725 156.879C438.725 156.879 396.924 102.932 390.119 95.6411C384.007 89.0903 357.064 55.2961 341.25 32.1681Z" fill="#515092"/>
<path d="M451.973 143.847C450.331 142.028 447.487 141.419 444.659 141.55C444.12 140.887 442.54 141.003 441.885 141.095C437.037 141.774 432.937 144.956 432.482 150.051C432.066 154.69 434.71 158.99 439.234 160.331C443.657 161.642 449.622 160.046 452.512 156.339C455.025 153.11 454.724 146.906 451.973 143.854V143.847Z" fill="#BAA4FF"/>
</g>
<path opacity="0.7" d="M560.794 98.7493C560.67 97.8694 559.912 96.6467 558.985 96.441C558.929 96.3268 558.884 96.2125 558.816 96.0982C557.018 92.9328 552.902 92.5557 549.714 93.3671C546.435 94.2013 543.303 96.7039 543.021 100.303C542.761 103.583 544.988 107.274 547.724 108.977C550.958 110.977 555.537 109.822 558.25 107.434C561.077 104.943 561.292 102.303 560.783 98.7607L560.794 98.7493Z" fill="#A079FF"/>
<path opacity="0.7" d="M1090.29 126.169C1090.29 125.476 1089.87 124.905 1088.99 124.525C1088.61 124.357 1088.19 124.256 1087.74 124.201C1087.7 123.865 1087.46 123.574 1086.89 123.373C1083.56 122.198 1077.5 123.82 1077.05 127.948C1076.76 130.621 1077.59 133.014 1080.4 133.741C1083.59 134.569 1088.55 133.395 1090.39 130.442C1091.29 129.01 1091.14 127.399 1090.3 126.169H1090.29Z" fill="#A079FF"/>
<path opacity="0.7" d="M1067.79 80.7494C1067.67 79.8695 1066.91 78.6468 1065.99 78.4411C1065.93 78.3269 1065.88 78.2126 1065.82 78.0983C1064.02 74.933 1059.9 74.5559 1056.71 75.3672C1053.44 76.2014 1050.3 78.704 1050.02 82.3036C1049.76 85.5832 1051.99 89.2742 1054.72 90.9769C1057.96 92.9767 1062.54 91.8225 1065.25 89.4342C1068.08 86.9431 1068.29 84.3033 1067.78 80.7609L1067.79 80.7494Z" fill="#A079FF"/>
<path opacity="0.7" d="M1092.29 511.169C1092.29 510.476 1091.87 509.905 1090.99 509.525C1090.61 509.357 1090.19 509.256 1089.74 509.201C1089.7 508.865 1089.46 508.574 1088.89 508.373C1085.56 507.198 1079.5 508.82 1079.05 512.948C1078.76 515.621 1079.59 518.014 1082.4 518.741C1085.59 519.569 1090.55 518.395 1092.39 515.442C1093.29 514.01 1093.14 512.399 1092.3 511.169H1092.29Z" fill="#A079FF"/>
<path opacity="0.7" d="M1158.79 468.749C1158.67 467.87 1157.91 466.647 1156.99 466.441C1156.93 466.327 1156.88 466.213 1156.82 466.098C1155.02 462.933 1150.9 462.556 1147.71 463.367C1144.44 464.201 1141.3 466.704 1141.02 470.304C1140.76 473.583 1142.99 477.274 1145.72 478.977C1148.96 480.977 1153.54 479.823 1156.25 477.434C1159.08 474.943 1159.29 472.303 1158.78 468.761L1158.79 468.749Z" fill="#A079FF"/>
<path opacity="0.7" d="M137.794 66.7494C137.67 65.8695 136.912 64.6468 135.985 64.4411C135.929 64.3269 135.884 64.2126 135.816 64.0983C134.018 60.933 129.902 60.5559 126.714 61.3672C123.435 62.2014 120.303 64.704 120.021 68.3036C119.761 71.5832 121.988 75.2742 124.724 76.9769C127.958 78.9767 132.537 77.8225 135.25 75.4342C138.077 72.9431 138.292 70.3033 137.783 66.7609L137.794 66.7494Z" fill="#A079FF"/>
</svg>
