<svg width="1432" height="1653" viewBox="0 0 1432 1653" fill="none" xmlns="http://www.w3.org/2000/svg">
<path d="M1251.38 1318.91C1251.38 1318.91 1267.83 1289.64 1304.68 1289.64C1341.53 1289.64 1351.77 1304.28 1351.77 1304.28C1351.77 1304.28 1363.22 1306.99 1371.89 1320C1380.57 1333.01 1382.73 1350.35 1384.9 1354.69C1387.08 1359.02 1391.41 1385.04 1380.57 1404.56C1369.73 1424.07 1339.37 1445.76 1322.02 1447.92C1304.67 1450.08 1287.33 1443.58 1280.82 1439.25C1274.32 1434.91 1258.34 1430.04 1252.64 1426.24C1246.14 1421.9 1226.61 1398.05 1230.95 1374.2C1235.29 1350.35 1235.29 1346.01 1237.45 1337.34C1239.61 1328.66 1251.35 1318.91 1251.35 1318.91H1251.38Z" fill="#5D13D1"/>
<path d="M1386.8 1362.46C1386.24 1358.65 1385.5 1355.87 1384.9 1354.7C1384 1352.88 1383.08 1348.78 1381.7 1343.68C1380.84 1344.52 1380.08 1345.49 1379.48 1346.49C1379.27 1346.67 1379.06 1346.85 1378.84 1347.01C1378.81 1347.03 1378.75 1347.1 1378.67 1347.16C1378.62 1347.21 1378.56 1347.25 1378.5 1347.29L1378.52 1347.27C1378.42 1347.36 1378.3 1347.42 1378.19 1347.51C1377.7 1347.82 1377.22 1348.12 1376.71 1348.4C1375.77 1348.93 1374.95 1349.92 1374.34 1350.77C1373.87 1351.42 1373.43 1352.15 1373.05 1352.91C1371.03 1354.62 1369.05 1356.48 1367.08 1358.4C1357.42 1367.74 1348.94 1378.16 1341.65 1389.46C1340.48 1391.28 1339.35 1393.13 1338.24 1394.99C1337.5 1395.02 1336.52 1395.91 1335.96 1396.51C1334.87 1397.69 1333.83 1398.91 1332.8 1400.15C1332.73 1400.09 1332.66 1400.02 1332.57 1399.97C1331.09 1399.42 1328.93 1402.97 1328.48 1403.76C1327.94 1404.73 1327.44 1405.72 1326.93 1406.7C1326.17 1407.34 1325.5 1408.26 1325.2 1408.65C1325.15 1408.72 1325.1 1408.81 1325.03 1408.89C1324.31 1408.66 1323.45 1409.28 1322.7 1410.13C1322.02 1409.24 1320.51 1410.46 1319.78 1411.32C1318.13 1413.26 1316.47 1415.17 1314.78 1417.08C1314.02 1416.8 1312.82 1417.8 1312.19 1418.53C1309.86 1421.31 1307.43 1423.99 1304.91 1426.59C1304.81 1426.67 1304.71 1426.74 1304.61 1426.84C1303.12 1428.27 1301.64 1429.71 1300.15 1431.14C1299.72 1430.93 1299.06 1431.14 1298.31 1431.75C1294.2 1435.05 1290.35 1438.6 1286.64 1442.35C1295.03 1446.06 1308.51 1449.62 1322.02 1447.93C1323.5 1447.75 1325.1 1447.37 1326.75 1446.92C1329.39 1430.78 1334.45 1415.21 1342.64 1400.91C1350.36 1387.42 1368.5 1358.51 1386.8 1362.47V1362.46Z" fill="#240057"/>
<path d="M1350.13 1373.1C1346.69 1366.26 1338 1365.16 1331.46 1367.85C1329.29 1368.74 1327.35 1369.99 1325.56 1371.48C1325.71 1371.07 1325.85 1370.6 1325.94 1370.16C1326.4 1369.17 1326.89 1368.18 1327.34 1367.18C1327.79 1366.16 1329.03 1363.37 1327.48 1362.78C1326 1362.21 1323.84 1365.77 1323.39 1366.57C1321.48 1369.94 1319.51 1373.32 1317.43 1376.62C1318.19 1375.22 1318.9 1373.79 1319.52 1372.34C1319.75 1371.81 1320.52 1369.96 1320.1 1369.16C1320.17 1368.96 1320.25 1368.77 1320.31 1368.57C1320.53 1367.81 1321.08 1365.63 1319.55 1366.08C1318.28 1366.46 1317.14 1368.17 1316.52 1369.46C1316.36 1369.27 1316.11 1369.17 1315.68 1369.3C1314.98 1369.52 1314.32 1370.12 1313.78 1370.84C1313.44 1370.95 1313.1 1371.19 1312.77 1371.49C1312.9 1371.22 1313.03 1370.96 1313.16 1370.69C1313.48 1370.02 1314.65 1367.11 1313.05 1367.13C1312.8 1367.13 1312.55 1367.22 1312.3 1367.36C1308.74 1373.34 1304.32 1378.77 1299.63 1383.9C1298.27 1385.39 1296.81 1386.81 1295.46 1388.32C1294.47 1389.56 1293.49 1390.78 1292.48 1392C1292.27 1392.51 1292.12 1393.01 1292.02 1393.53C1291.94 1394.01 1291.8 1394.86 1292.32 1395.16C1292.82 1395.45 1293.55 1394.89 1293.88 1394.6C1295.11 1393.5 1296.34 1392.39 1297.58 1391.28C1297.8 1391.07 1298.02 1390.82 1298.23 1390.58C1298.57 1390.86 1299.16 1390.67 1299.85 1390.17C1300.49 1389.71 1301.09 1389.19 1301.71 1388.7C1301.67 1388.88 1301.59 1389.05 1301.56 1389.23C1301.52 1389.48 1301.46 1389.84 1301.5 1390.16C1301.28 1390.69 1301.12 1391.21 1301.02 1391.75C1300.74 1393.38 1301.59 1393.84 1302.88 1392.83C1302.96 1392.77 1303.02 1392.71 1303.1 1392.65C1303.56 1392.66 1304.07 1392.25 1304.37 1392.02C1306.74 1390.25 1308.92 1388.21 1310.9 1385.98C1305.25 1393.18 1298.54 1399.37 1289.81 1403.18C1281.07 1407 1270.47 1407.29 1261.84 1403.46C1260.32 1402.5 1258.84 1401.46 1257.48 1400.21C1251.84 1395.09 1248.18 1388.3 1246.2 1381.02C1246.48 1380.55 1246.67 1380.09 1246.63 1379.78C1243.75 1361.48 1249.9 1343.85 1262.01 1330.78C1261.58 1331.53 1261.15 1332.27 1260.78 1333.09C1260.6 1333.48 1260.52 1333.76 1260.48 1334C1262.93 1329.98 1266.5 1326.58 1270.32 1323.91C1272.85 1322.14 1275.7 1320.66 1278.69 1319.68C1278.91 1319.57 1279.13 1319.46 1279.34 1319.35C1283.46 1317.33 1287.28 1315.65 1291.96 1316.36C1295.99 1316.98 1300.18 1318.02 1303.9 1319.71C1311.36 1323.09 1314.78 1329.13 1315.78 1336.01C1315.73 1336.08 1315.68 1336.13 1315.64 1336.2C1315.45 1336.36 1315.28 1336.53 1315.17 1336.65C1315.17 1336.63 1315.17 1336.62 1315.17 1336.6C1315.14 1335.92 1314.69 1336.13 1314.32 1336.38C1314.18 1336.26 1314.06 1336.14 1313.92 1336.02C1313.84 1335.96 1313.74 1335.96 1313.65 1335.97C1313.6 1335.92 1313.57 1335.87 1313.53 1335.81C1313.38 1335.57 1313.14 1335.61 1312.87 1335.78C1312.66 1334.27 1312.4 1332.75 1312.01 1331.24C1311.81 1330.44 1310.57 1331.9 1310.45 1332.09C1309.97 1332.74 1309.35 1333.8 1309.58 1334.66C1310.67 1338.96 1310.97 1343.22 1310.68 1347.42L1310.11 1349.81C1310.26 1348.65 1310.39 1347.48 1310.46 1346.3C1310.53 1345.39 1310.35 1344.84 1310.05 1344.54C1307.94 1329.72 1288.82 1328.37 1276.27 1336.18C1265.02 1343.17 1255.8 1356.58 1253.98 1370.23C1253.65 1365.02 1254.68 1359.45 1255.91 1355.05C1258.76 1344.9 1264.8 1335.7 1274.16 1330.51C1279.17 1327.74 1284.81 1326.27 1290.55 1326.52C1291.11 1326.54 1291.97 1324.64 1291.42 1324.61C1267.64 1323.59 1252.13 1349.11 1252.66 1370.58C1252.71 1372.78 1253.05 1375.02 1253.73 1377.12C1253.76 1377.69 1253.79 1378.27 1253.85 1378.84C1254.67 1385.89 1258.31 1394.56 1265.3 1397.63C1272.85 1400.93 1281.21 1396.1 1287.06 1391.49C1291.07 1388.35 1294.59 1384.64 1297.65 1380.57V1380.6C1297.55 1381 1297.43 1381.39 1297.31 1381.76C1300.05 1378.18 1302.77 1374.58 1305.41 1370.92C1305.95 1370.17 1306.48 1369.43 1307.02 1368.69C1306.95 1368.45 1306.98 1368.18 1307.18 1367.95C1308.87 1365.87 1309.99 1363.37 1311.16 1360.98C1312.42 1358.44 1313.87 1356.02 1314.87 1353.36C1315.9 1350.67 1316.63 1347.88 1317.36 1345.1C1317.77 1343.56 1318.31 1342.04 1318.75 1340.51C1318.78 1340.05 1318.8 1339.59 1318.81 1339.11C1319.05 1330.34 1315.75 1321.14 1307.71 1316.74C1303.56 1314.47 1298.58 1313.24 1293.93 1312.53C1289.11 1311.8 1285.17 1313.45 1280.92 1315.52C1279.77 1316.08 1278.63 1316.67 1277.5 1317.28C1278.23 1316.14 1278.79 1314.84 1279.12 1313.79C1279.52 1312.57 1279.98 1309.83 1277.84 1310.81C1266.96 1315.8 1257.11 1323.03 1250.06 1332.81C1243.76 1341.56 1240.26 1351.8 1238.81 1362.38C1238.83 1350.08 1242.98 1337.88 1251.01 1328.37C1251.03 1329.72 1253.35 1326.83 1253.51 1325.91C1253.57 1325.73 1253.64 1325.54 1253.7 1325.36C1254.39 1324.48 1255.19 1321.32 1253.33 1323.22C1244.11 1332.66 1238.31 1345.16 1236.73 1358.15C1236.49 1358.64 1236.31 1359.14 1236.24 1359.51C1234.56 1368.61 1235.25 1377.85 1238.32 1386.59C1238.43 1386.9 1238.85 1386.66 1239.31 1386.18C1240.2 1390.45 1241.58 1394.6 1243.59 1398.47C1243.24 1399.5 1243.14 1400.44 1243.49 1401.04C1246.61 1406.52 1251.11 1410.32 1256.27 1412.67C1262.39 1416.62 1269.63 1418.46 1277.29 1417.61C1281.25 1417.17 1285.02 1416.1 1288.59 1414.55C1288.4 1414.76 1288.25 1414.95 1288.19 1415.01C1287.9 1415.38 1287.61 1415.77 1287.34 1416.18C1274.59 1421.68 1259.54 1420.06 1248.29 1411.58C1244.95 1409.06 1242.03 1406.02 1239.66 1402.59C1239.33 1402.13 1238.12 1403.84 1238.44 1404.3C1239.73 1406.16 1241.17 1407.86 1242.73 1409.45C1242.58 1409.74 1242.49 1410.02 1242.55 1410.21C1243.97 1414.3 1246.65 1417.6 1250.01 1420.07C1249.36 1419.98 1248.72 1419.92 1248.04 1419.91C1247.59 1419.91 1247.1 1420.09 1246.62 1420.39C1247.22 1421.09 1247.8 1421.74 1248.36 1422.33L1248.38 1422.35C1248.93 1422.93 1249.47 1423.47 1249.97 1423.94C1249.99 1423.96 1250.02 1423.99 1250.04 1424.01C1250.53 1424.47 1251 1424.89 1251.42 1425.24C1251.45 1425.27 1251.47 1425.29 1251.49 1425.31C1251.92 1425.66 1252.32 1425.97 1252.68 1426.2C1258.38 1430 1274.36 1434.88 1280.86 1439.21C1283.54 1441 1288.08 1443.14 1293.67 1444.91C1293.37 1437.12 1292.78 1428.55 1294.62 1427C1300.95 1421.69 1307.29 1416.38 1313.19 1410.61C1316.48 1407.4 1319.63 1404.05 1322.63 1400.58C1323.12 1400.02 1323.6 1399.45 1324.26 1399.12C1325.08 1398.72 1326.01 1398.74 1326.94 1398.73C1327.13 1398.73 1327.33 1398.73 1327.52 1398.73C1329.66 1398.64 1330.35 1397.31 1331.35 1395.68C1331.8 1394.95 1334.59 1391.07 1333.87 1390.19C1333.92 1390.26 1333.99 1390.32 1334.04 1390.39C1335 1391.56 1337.76 1387.62 1338 1387.24C1338.11 1387.07 1338.23 1386.88 1338.35 1386.68C1338.62 1387 1338.91 1387.29 1339.16 1387.61C1340.72 1389.57 1343.35 1385.46 1344.59 1382.17C1344.92 1382.09 1345.24 1382.02 1345.6 1381.87C1347.7 1380.99 1351.36 1375.45 1350.16 1373.07L1350.13 1373.1ZM1268.58 1423.4C1267.11 1423.42 1265.64 1423.37 1264.17 1423.21C1256.58 1422.38 1249.13 1418.51 1245.28 1411.89C1254.11 1419.4 1266 1422.87 1277.68 1420.8C1274.69 1421.93 1271.65 1422.86 1268.58 1423.4Z" fill="#240057"/>
<path d="M1325.34 1336.47C1325.17 1336.5 1325.01 1336.52 1324.85 1336.56C1324.7 1336.61 1324.55 1336.66 1324.4 1336.71C1324.35 1336.74 1324.29 1336.76 1324.25 1336.79C1323.94 1336.94 1323.61 1336.98 1323.3 1336.96C1323.65 1341.07 1322.98 1345.4 1322.14 1349.24C1321.04 1354.28 1319.37 1359.57 1316.42 1363.9C1316.51 1363.91 1316.56 1363.95 1316.67 1363.94C1318.09 1363.83 1319.53 1361.46 1320.12 1360.16C1320.75 1359.42 1321.29 1358.55 1321.47 1358.24C1324.75 1352.63 1327.9 1346.03 1326.59 1339.37C1326.42 1338.47 1326.12 1337.16 1325.35 1336.48L1325.34 1336.47Z" fill="#240057"/>
<path d="M1346.1 1342.86C1345.09 1341.34 1343.33 1339.53 1341.31 1340.19C1340.19 1340.56 1339.29 1341.32 1338.54 1342.22C1337.97 1342.76 1337.46 1343.39 1337.03 1343.99C1335.99 1345.45 1335.21 1347.09 1334.75 1348.82C1334.21 1350.84 1334.3 1352.87 1334.77 1354.9C1335.18 1356.67 1336.18 1358.51 1337.88 1359.31C1340.19 1360.4 1342.36 1359.27 1343.94 1357.52C1347.38 1353.7 1349.13 1347.44 1346.1 1342.87V1342.86Z" fill="#240057"/>
<path d="M1335.28 1420.05C1332.51 1428.44 1330.67 1437.15 1329.8 1445.96C1331.43 1445.39 1333.11 1444.71 1334.82 1443.94C1334.68 1440.55 1334.64 1437.16 1334.77 1433.77C1335.27 1429.03 1336.08 1424.34 1337.24 1419.75C1340.52 1409.52 1345.23 1399.78 1351.28 1390.84C1351.87 1390.11 1352.47 1389.36 1353.1 1388.65C1353.35 1388.37 1353.62 1387.82 1353.81 1387.25C1354.26 1386.64 1354.71 1386.02 1355.17 1385.41C1356.25 1384 1356.29 1381.32 1354.48 1383.68C1353.16 1385.4 1351.9 1387.18 1350.67 1388.97C1343.29 1398.16 1338.3 1408.79 1335.29 1420.04L1335.28 1420.05Z" fill="#240057"/>
<path d="M1347.23 1404.6C1347.38 1404.31 1347.53 1404.02 1347.68 1403.73C1347.96 1403.21 1348.1 1402.79 1348.14 1402.45C1348.54 1401.56 1348.96 1400.67 1349.39 1399.8C1349.61 1399.35 1350.09 1398.18 1349.34 1398.03C1348.64 1397.89 1347.74 1399.66 1347.54 1400.07C1346.75 1401.66 1346.02 1403.28 1345.33 1404.9C1339.09 1416.86 1335.84 1430.11 1335.89 1443.44C1336.73 1443.06 1337.57 1442.64 1338.42 1442.21C1338.37 1440.22 1338.39 1438.21 1338.49 1436.23C1338.43 1438.2 1338.44 1440.18 1338.52 1442.16C1339.39 1441.72 1340.26 1441.29 1341.14 1440.8C1340.43 1428.44 1342.44 1416.05 1347.21 1404.59L1347.23 1404.6Z" fill="#240057"/>
<path d="M1329.23 1355.64C1329.18 1355.54 1329.08 1355.51 1328.95 1355.53L1328.68 1355.62C1328.49 1355.74 1328.33 1355.9 1328.17 1356.06C1328.13 1356.09 1328.09 1356.1 1328.06 1356.13C1327.95 1356.24 1327.84 1356.34 1327.74 1356.45C1327.49 1356.73 1327.28 1357.03 1327.1 1357.35C1326.85 1357.8 1326.63 1358.27 1326.53 1358.79C1326.47 1359.11 1326.4 1359.42 1326.34 1359.75L1326.3 1360.11C1326.28 1360.26 1326.33 1360.38 1326.42 1360.48C1326.45 1360.55 1326.51 1360.58 1326.59 1360.57C1326.72 1360.62 1326.85 1360.58 1326.97 1360.49L1327.27 1360.27C1327.38 1360.17 1327.49 1360.06 1327.6 1359.95C1327.78 1359.75 1327.94 1359.53 1328.08 1359.29C1328.24 1359.06 1328.38 1358.8 1328.5 1358.54C1328.67 1358.12 1328.84 1357.7 1329.01 1357.29C1329.11 1357.07 1329.2 1356.83 1329.25 1356.58C1329.32 1356.39 1329.35 1356.19 1329.35 1355.99C1329.37 1355.84 1329.33 1355.72 1329.23 1355.62V1355.64Z" fill="#240057"/>
<path d="M1259.23 1316.81C1264.55 1313.5 1269.5 1309.64 1274.72 1306.19C1274.65 1306.12 1274.57 1306.06 1274.42 1306.08C1273.94 1306.17 1273.47 1306.28 1273 1306.39C1272.94 1306.27 1272.84 1306.21 1272.66 1306.25C1271.14 1306.6 1269.66 1307.14 1268.25 1307.81C1267.8 1307.98 1267.36 1308.19 1266.92 1308.39C1266.8 1308.59 1266.63 1308.77 1266.39 1308.94C1265.66 1309.42 1264.93 1309.92 1264.19 1310.43C1261.86 1312.3 1260.06 1314.75 1258.26 1317.19C1258.34 1317.35 1258.47 1317.49 1258.57 1317.64C1258.67 1317.33 1258.87 1317.04 1259.22 1316.81H1259.23Z" fill="#240057"/>
<path d="M1291.51 1317.91C1276.34 1319.81 1263.8 1329.99 1255.98 1342.75C1247.72 1356.27 1243.81 1374.75 1252 1389.18C1252.52 1390.08 1255.02 1386.78 1254.44 1385.76C1247.01 1372.65 1249.68 1355.92 1257.31 1343.5C1264.39 1331.97 1276.22 1323.42 1289.78 1321.73C1290.97 1321.58 1292.45 1317.79 1291.52 1317.91H1291.51Z" fill="#240057"/>
<path d="M1428.77 1249.21C1417.58 1238.01 1379.4 1256.92 1333.89 1293.63C1337.44 1294.77 1340.35 1296.05 1342.73 1297.31C1373.58 1274.5 1398.36 1263.7 1406.32 1271.67C1414.29 1279.63 1403.17 1305.15 1379.63 1336.66C1366.86 1353.76 1350.48 1372.66 1331.57 1391.57C1313.44 1409.69 1295.33 1425.5 1278.8 1438.03C1246.31 1462.65 1219.93 1474.59 1211.67 1466.32C1203.85 1458.5 1214.13 1434.45 1236.14 1404.33C1234.76 1401.46 1233.53 1398.4 1232.56 1395.22C1196.55 1440.15 1178.13 1477.7 1189.2 1488.77C1200.6 1500.17 1240 1480.35 1286.62 1442.29C1302.77 1429.12 1319.76 1413.77 1336.77 1396.76C1353.79 1379.74 1369.24 1362.62 1382.46 1346.42C1420.42 1299.87 1440.18 1260.57 1428.79 1249.18L1428.77 1249.21Z" fill="#240057"/>
<path d="M1428.77 1249.21C1417.58 1238.01 1379.4 1256.92 1333.89 1293.63C1337.44 1294.77 1340.35 1296.05 1342.73 1297.31C1373.58 1274.5 1398.36 1263.7 1406.32 1271.67C1414.29 1279.63 1403.17 1305.15 1379.63 1336.66C1368.9 1351.02 1355.61 1366.64 1340.43 1382.49C1337.54 1385.51 1334.59 1388.53 1331.57 1391.57C1313.44 1409.69 1295.33 1425.5 1278.8 1438.03C1278.59 1438.18 1278.4 1438.32 1278.2 1438.48C1292.86 1429.97 1309.79 1418 1327.82 1403.28C1332.87 1399.16 1338.01 1394.8 1343.2 1390.27C1357.73 1375.37 1370.92 1360.57 1382.46 1346.43C1389.4 1337.92 1395.72 1329.66 1401.37 1321.76C1426.6 1286.45 1438.1 1258.5 1428.79 1249.21H1428.77Z" fill="#5D13D1"/>
<path opacity="0.7" d="M1186.29 1126.17C1186.29 1125.48 1185.87 1124.91 1184.99 1124.52C1184.61 1124.36 1184.19 1124.26 1183.74 1124.2C1183.7 1123.86 1183.46 1123.57 1182.89 1123.37C1179.56 1122.2 1173.5 1123.82 1173.05 1127.95C1172.76 1130.62 1173.59 1133.01 1176.4 1133.74C1179.59 1134.57 1184.55 1133.39 1186.39 1130.44C1187.29 1129.01 1187.14 1127.4 1186.3 1126.17H1186.29Z" fill="#A079FF"/>
<path opacity="0.7" d="M1163.79 1080.75C1163.67 1079.87 1162.91 1078.65 1161.99 1078.44C1161.93 1078.33 1161.88 1078.21 1161.82 1078.1C1160.02 1074.93 1155.9 1074.56 1152.71 1075.37C1149.44 1076.2 1146.3 1078.7 1146.02 1082.3C1145.76 1085.58 1147.99 1089.27 1150.72 1090.98C1153.96 1092.98 1158.54 1091.82 1161.25 1089.43C1164.08 1086.94 1164.29 1084.3 1163.78 1080.76L1163.79 1080.75Z" fill="#A079FF"/>
<path opacity="0.7" d="M858.206 5.74929C858.33 4.86939 859.088 3.64671 860.015 3.44102C860.071 3.32675 860.116 3.21249 860.184 3.09822C861.982 -0.0671501 866.098 -0.444268 869.286 0.367071C872.565 1.20127 875.697 3.70386 875.979 7.30346C876.239 10.5831 874.012 14.2741 871.276 15.9768C868.042 17.9765 863.463 16.8224 860.75 14.4341C857.923 11.9429 857.708 9.3032 858.217 5.76073L858.206 5.74929Z" fill="#A079FF"/>
<path opacity="0.7" d="M835.709 51.169C835.709 50.4755 836.134 49.905 837.007 49.5247C837.387 49.357 837.813 49.2563 838.26 49.2004C838.305 48.8648 838.54 48.574 839.11 48.3727C842.445 47.1982 848.498 48.8201 848.945 52.9474C849.236 55.6207 848.408 58.0143 845.6 58.7414C842.411 59.5691 837.455 58.3946 835.609 55.4417C834.713 54.01 834.859 52.3994 835.698 51.169H835.709Z" fill="#A079FF"/>
<g opacity="0.5">
<path fill-rule="evenodd" clip-rule="evenodd" d="M179.545 1569.72C179.107 1572.8 178.514 1575.86 177.758 1578.9C173.614 1595.55 164.974 1609.99 153.446 1621.47C152.653 1624.37 151.86 1627.28 151.068 1630.18C150.788 1631.2 150.496 1632.25 149.867 1633.11C148.745 1634.63 146.795 1635.24 145.008 1635.86C138.28 1638.2 132.062 1641.99 126.9 1646.9C125.448 1648.28 123.743 1649.87 121.763 1649.57C120.927 1649.44 120.183 1648.98 119.45 1648.56C117.49 1647.43 115.416 1646.5 113.273 1645.78C95.8837 1651.37 76.8294 1652.39 58.3122 1647.78C50.6846 1645.88 43.4732 1643.04 36.7643 1639.41C35.7333 1639.56 34.711 1639.77 33.7008 1640.04C29.8879 1641.08 26.2355 1643.24 24.1806 1646.62C21.5436 1644.3 18.9084 1641.99 16.2715 1639.67C18.6511 1636.6 19.7477 1632.57 19.2521 1628.71C19.1744 1628.11 19.0518 1627.51 18.8981 1626.92C-1.25452 1609.14 -13.9729 1583.24 -15.3354 1556.13C-17.0986 1554.08 -18.8634 1552.03 -20.6266 1549.98C-21.4693 1549 -22.331 1547.99 -22.7299 1546.76C-23.2652 1545.12 -22.9009 1543.33 -22.5313 1541.64C-21.2862 1535.94 -20.0412 1530.24 -18.7944 1524.54C-18.5716 1523.52 -18.3367 1522.47 -17.7461 1521.61C-16.4475 1519.72 -13.909 1519.29 -11.7591 1518.49C-10.8197 1518.14 -9.91824 1517.7 -9.07035 1517.16C-5.62869 1508.32 -0.910875 1500.17 4.8137 1492.87C5.0641 1491.19 5.11418 1489.5 4.87932 1487.82C4.33363 1483.93 2.04898 1480.13 -1.54291 1478.53C-1.82957 1478.4 -2.15422 1478.25 -2.24402 1477.95C-2.33382 1477.65 -1.90901 1477.3 -1.71906 1477.55L3.79312 1474C7.1916 1477.57 11.9975 1479.64 16.9087 1479.98C40.4753 1458.95 73.7504 1449.09 105.799 1457.07C128.917 1462.82 148.41 1477.73 161.681 1497.06C166.095 1499.54 171.123 1500.93 176.188 1501.01C177.088 1503.68 178.281 1506.26 179.741 1508.67C177.054 1511.28 174.928 1515.28 176.491 1518.68C177.029 1519.86 177.946 1520.8 178.722 1521.84C181.968 1526.15 182.678 1532.23 180.509 1537.17C182.882 1539.35 183.79 1542.68 184.201 1545.87C185.253 1554.06 183.464 1562.46 179.556 1569.72L179.545 1569.72Z" fill="#A079FF"/>
<path fill-rule="evenodd" clip-rule="evenodd" d="M124.536 1617.15C124.474 1617.34 124.368 1617.43 124.206 1617.4C123.462 1617.21 122.968 1614.83 123.355 1614.3C123.764 1615.24 124.158 1616.19 124.536 1617.15Z" fill="black"/>
<path fill-rule="evenodd" clip-rule="evenodd" d="M113.681 1602.56C110.072 1601.55 106.257 1601.13 102.529 1600.85C97.9231 1600.5 92.5715 1600.42 88.4685 1602.85C88.4581 1602.86 88.4495 1602.86 88.4409 1602.87C88.073 1602.11 87.8658 1601.03 88.225 1600.75C90.5787 1598.94 93.4004 1597.92 96.3827 1597.93C97.7919 1597.93 99.1958 1598.15 100.532 1598.6C101.676 1598.98 103.294 1599.76 104.328 1598.76C104.831 1598.27 105.337 1599.79 105.411 1600.02C105.083 1599 105.364 1599.5 106.095 1599.55C106.459 1599.58 106.835 1599.56 107.2 1599.57C108.093 1599.59 108.989 1599.66 109.877 1599.76C111.833 1600 113.746 1600.46 115.608 1601.1C116.181 1601.3 116.551 1602.81 116.487 1603.61C115.61 1603.12 114.596 1602.82 113.679 1602.56L113.681 1602.56Z" fill="black"/>
<path fill-rule="evenodd" clip-rule="evenodd" d="M118.525 1604.38C118.666 1604.78 118.758 1605.01 119.005 1605.4C119.181 1605.68 119.381 1605.93 119.599 1606.17C119.69 1606.37 119.784 1606.56 119.875 1606.75C119.856 1606.9 119.886 1607.06 119.984 1607.23C120.219 1607.62 120.443 1608.02 120.664 1608.42C120.666 1608.44 120.67 1608.46 120.671 1608.48C120.694 1608.79 120.607 1609.73 120.107 1609.23C119.126 1608.26 118.376 1607.09 117.87 1605.81C118.141 1605.6 118.266 1605.24 118.002 1604.89C117.829 1604.65 117.63 1604.44 117.414 1604.25C117.387 1603.96 117.418 1603.69 117.577 1603.51C117.964 1603.09 118.451 1604.17 118.527 1604.38H118.525Z" fill="black"/>
<path fill-rule="evenodd" clip-rule="evenodd" d="M154.658 1589.96C153.637 1591.3 152.731 1592.71 151.943 1594.21C151.919 1594.25 151.891 1594.28 151.862 1594.3C152.658 1592.79 153.39 1591.06 154.659 1589.96L154.658 1589.96Z" fill="black"/>
<path fill-rule="evenodd" clip-rule="evenodd" d="M155.516 1587.37C154.812 1587.85 154.129 1588.38 153.485 1588.94C152.729 1589.59 152.232 1590.5 151.736 1591.36C151.46 1591.84 151.187 1592.32 150.921 1592.8C150.848 1592.45 150.838 1592.08 150.99 1591.79C152.27 1589.36 153.855 1587.15 155.739 1585.15C156.038 1584.84 156.601 1585.82 156.775 1586.65C156.319 1586.79 155.88 1587.12 155.518 1587.37L155.516 1587.37Z" fill="black"/>
<path fill-rule="evenodd" clip-rule="evenodd" d="M139.24 1606.42C138.532 1609.01 137.166 1611.95 135.035 1613.67C133.179 1615.17 130.851 1615.13 129.402 1613.09C128.748 1612.16 128.321 1611.09 128.064 1609.97C127.323 1608.81 126.893 1607.42 126.724 1606.07C126.332 1602.94 127.639 1600.03 129.064 1597.34C129.54 1596.43 130.15 1595.06 130.962 1593.99C130.998 1593.97 131.032 1593.95 131.07 1593.93C131.378 1593.77 131.462 1593.91 131.221 1593.73C131.965 1594.31 133.008 1593.33 132.393 1592.71C132.977 1592.41 133.637 1592.34 134.384 1592.64C136.624 1593.52 138.144 1595.97 138.926 1598.13C139.895 1600.79 139.988 1603.68 139.24 1606.42V1606.42ZM129.074 1608.02C128.993 1607.86 128.927 1607.68 128.877 1607.49C128.841 1607.93 128.827 1608.39 128.851 1608.83C128.965 1608.94 129.091 1609.05 129.224 1609.15C129.162 1608.78 129.112 1608.4 129.074 1608.02ZM131.029 1605.66C130.934 1605.72 130.849 1605.81 130.777 1605.92C130.682 1606.69 130.661 1607.68 130.912 1608.29C131.012 1608.53 131.329 1608.92 131.708 1609.24C131.25 1608.08 130.994 1606.88 131.029 1605.66ZM138.525 1600.3C138.296 1598.52 137.341 1596.93 135.926 1595.84C135.21 1595.28 134.251 1594.76 133.341 1595.14C132.516 1595.49 132.001 1596.34 131.552 1597.07C131.428 1597.27 131.293 1597.49 131.15 1597.72C131.253 1597.66 131.361 1597.61 131.471 1597.56C132.668 1597.04 133.345 1597.8 133.735 1598.81C135.056 1599.51 135.812 1601.05 136.033 1602.5C136.075 1602.76 136.225 1603.63 135.736 1603.56C135.294 1603.49 135.015 1602.38 134.966 1602.06C134.966 1602.05 134.963 1602.05 134.961 1602.04C134.859 1601.93 134.785 1601.8 134.673 1601.7C134.569 1601.6 134.457 1601.52 134.343 1601.45C134.497 1602.52 134.59 1603.62 134.744 1604.66C134.788 1604.97 134.935 1605.74 134.446 1605.72C134.02 1605.7 133.716 1604.5 133.676 1604.22C133.521 1603.18 133.367 1602.13 133.212 1601.09C133.188 1600.93 133.165 1600.77 133.141 1600.61C133.027 1600.38 132.939 1600.09 132.882 1599.8C132.821 1599.85 132.514 1600.02 132.504 1600.02C132.141 1600.21 131.863 1600.28 131.53 1600.55C131.461 1600.61 131.395 1600.67 131.329 1600.73C131.682 1600.79 132.036 1601.01 132.347 1601.38C133.262 1602.45 133.586 1604.02 133.865 1605.39C133.913 1605.52 133.961 1605.64 134.004 1605.76C134.516 1607.16 134.818 1608.67 134.781 1610.17C134.778 1610.32 134.768 1610.48 134.752 1610.65C135.899 1609.49 136.719 1607.98 137.365 1606.51C138.208 1604.6 138.798 1602.41 138.527 1600.3L138.525 1600.3Z" fill="black"/>
<path fill-rule="evenodd" clip-rule="evenodd" d="M126.401 1594.05C125.386 1595.83 124.289 1598.11 124.153 1600.28C124.101 1600.01 124.08 1599.76 124.101 1599.55C124.343 1597.07 125.109 1594.76 126.453 1592.67C126.62 1592.4 126.867 1592.69 127.045 1592.98C126.812 1593.34 126.598 1593.7 126.401 1594.05V1594.05Z" fill="black"/>
<path fill-rule="evenodd" clip-rule="evenodd" d="M167.49 1587.25C167.447 1587.27 167.397 1587.29 167.336 1587.29C166.919 1587.29 166.604 1586.05 166.566 1585.79C166.306 1584.06 164.855 1582.81 163.292 1582.19C162.596 1581.92 162.285 1579.43 162.817 1579.64C165.547 1580.72 167.207 1583.39 167.633 1586.23C167.656 1586.37 167.696 1586.61 167.689 1586.82C167.62 1586.96 167.554 1587.11 167.49 1587.25V1587.25Z" fill="black"/>
<path fill-rule="evenodd" clip-rule="evenodd" d="M172.082 1515.56C172.16 1515.87 172.236 1516.25 172.122 1516.51C172.078 1516.61 172.016 1516.7 171.942 1516.74C171.92 1516.79 171.89 1516.84 171.85 1516.88C171.495 1517.22 171.122 1516.34 171.037 1516.13C170.987 1516.02 170.939 1515.9 170.889 1515.78L170.581 1515.83C169.998 1515.94 169.464 1514.21 169.628 1513.52C169.428 1513.11 169.246 1512.68 169.089 1512.23C169.022 1512.05 168.528 1510.28 169.189 1510.49C170.953 1511.04 171.875 1512.79 172.213 1514.5C172.248 1514.68 172.375 1515.45 172.084 1515.56L172.082 1515.56Z" fill="black"/>
<path fill-rule="evenodd" clip-rule="evenodd" d="M162.795 1520.12C160.921 1520.24 159.284 1518.45 158.101 1517.22C155.283 1514.31 153.138 1510.82 151.323 1507.21C150.382 1505.34 149.522 1503.43 148.681 1501.51C147.852 1499.62 147.018 1497.7 146.79 1495.63C146.649 1494.34 146.707 1491.25 148.759 1491.6C149.715 1491.76 150.715 1492.76 151.411 1493.38C152.349 1494.21 153.183 1495.14 153.957 1496.12C154.299 1496.55 154.582 1497.39 154.48 1497.94C154.392 1498.42 154.185 1498.56 153.841 1498.13C153.162 1497.26 152.416 1496.47 151.594 1495.74C150.961 1495.18 149.767 1493.89 148.83 1494.19C146.807 1494.85 148.408 1498.38 148.909 1499.55C149.301 1500.47 149.698 1501.38 150.106 1502.29C150.107 1502.04 150.17 1501.83 150.344 1501.75C151.646 1501.13 152.91 1502.45 153.781 1503.26C154.908 1504.31 155.953 1505.44 156.923 1506.64C158.978 1509.16 160.615 1511.99 161.886 1514.98C161.911 1515.04 161.949 1515.18 161.983 1515.36C162.596 1514.96 162.208 1513.6 162.013 1512.92C161.386 1510.74 160.289 1508.76 158.895 1506.98C158.555 1506.54 158.27 1505.71 158.372 1505.15C158.46 1504.68 158.669 1504.53 159.011 1504.97C160.044 1506.29 160.918 1507.73 161.629 1509.24L159.996 1505.66C159.797 1505.23 159.382 1504.33 159.65 1503.86C159.904 1503.41 160.227 1503.76 160.4 1504.14C161.446 1506.43 162.493 1508.72 163.539 1511.02C164.368 1512.83 165.326 1514.73 165.278 1516.78C165.243 1518.26 164.458 1520.01 162.79 1520.12H162.795ZM152.755 1504.56C152.456 1504.37 152.143 1504.23 151.821 1504.2C152.447 1505.45 153.148 1506.65 153.92 1507.81C153.42 1506.79 153.022 1505.72 152.755 1504.56ZM154.957 1507.6C154.932 1507.46 154.917 1507.33 154.91 1507.21C154.906 1507.15 154.905 1507.08 154.906 1507.01C154.72 1506.81 154.532 1506.62 154.34 1506.43C154.52 1506.83 154.727 1507.22 154.957 1507.6V1507.6ZM162.954 1512.14C162.619 1511.4 162.282 1510.67 161.947 1509.93C162.377 1510.93 162.736 1511.96 163.018 1513.01C163.334 1514.2 163.783 1515.66 163.468 1516.89C163.463 1516.91 163.458 1516.92 163.453 1516.94C164.793 1515.72 163.589 1513.53 162.954 1512.14V1512.14Z" fill="black"/>
<path fill-rule="evenodd" clip-rule="evenodd" d="M137.392 1478.59C135.291 1476.62 133.191 1474.65 131.089 1472.67C130.659 1472.27 130.454 1471.53 130.421 1470.96C130.406 1470.68 130.466 1469.9 130.906 1470.32C133.008 1472.29 135.108 1474.26 137.209 1476.23C137.639 1476.64 137.845 1477.38 137.878 1477.95C137.893 1478.23 137.833 1479 137.392 1478.59Z" fill="black"/>
<path fill-rule="evenodd" clip-rule="evenodd" d="M140.864 1478.7C140.435 1478.33 140.005 1477.97 139.577 1477.6C139.14 1477.23 138.936 1476.43 138.909 1475.88C138.893 1475.58 138.943 1474.86 139.394 1475.24C139.822 1475.61 140.252 1475.97 140.681 1476.34C141.117 1476.72 141.321 1477.51 141.349 1478.06C141.364 1478.36 141.314 1479.09 140.864 1478.7Z" fill="black"/>
<path fill-rule="evenodd" clip-rule="evenodd" d="M178.312 1552.51C178.309 1552.54 178.312 1552.58 178.316 1552.62C178.409 1552.92 178.644 1553.88 178.23 1554.02C177.813 1554.16 177.473 1553.06 177.408 1552.86C177.131 1551.99 177.057 1551.09 177.278 1550.23C176.936 1549.93 176.731 1549.14 176.687 1548.83C176.594 1548.16 176.503 1547.49 176.409 1546.81C176.378 1546.59 176.22 1545.62 176.706 1545.75C177.155 1545.87 177.427 1546.89 177.477 1547.25C177.57 1547.92 177.661 1548.59 177.755 1549.27C177.763 1549.33 177.779 1549.43 177.791 1549.56C178.022 1549.75 178.281 1550.26 178.309 1550.33C178.501 1550.84 178.685 1551.49 178.449 1552.01C178.378 1552.17 178.331 1552.34 178.312 1552.51V1552.51Z" fill="black"/>
<path fill-rule="evenodd" clip-rule="evenodd" d="M172.151 1551.62C171.861 1551.15 171.571 1550.65 171.296 1550.12C171.36 1550.42 171.369 1550.71 171.256 1550.91C170.996 1551.37 170.695 1550.98 170.507 1550.62C169.594 1548.86 168.91 1547 168.488 1545.06C168.305 1544.22 168.171 1543.36 168.096 1542.5C168.045 1541.9 167.903 1540.94 168.45 1540.5C169.509 1539.66 170.82 1541.46 171.327 1542.16C172.348 1543.58 173.113 1545.18 173.631 1546.84C174.066 1548.23 174.638 1550.17 174.289 1551.65C173.902 1553.28 172.8 1552.68 172.153 1551.62L172.151 1551.62ZM170.89 1546.06C171.272 1546.43 171.516 1546.93 171.654 1547.46C171.555 1546.56 171.351 1545.68 171.042 1544.83C170.918 1545.24 170.873 1545.65 170.89 1546.06ZM169.248 1543.58C169.164 1544.38 169.533 1545.49 169.751 1546.24C169.849 1546.58 169.967 1546.92 170.089 1547.25C169.663 1545.82 169.511 1544.35 169.892 1542.95C169.386 1542.8 169.302 1543.08 169.248 1543.58ZM173.07 1548.47C172.942 1547.74 172.726 1547.02 172.434 1546.33C172.707 1547.54 172.856 1548.78 172.881 1550.05C173.149 1549.88 173.161 1549 173.07 1548.47Z" fill="black"/>
<path fill-rule="evenodd" clip-rule="evenodd" d="M111.263 1596.63C107.139 1595.66 102.843 1595.17 98.607 1595.25C95.0099 1595.32 90.95 1595.72 87.8848 1597.78C87.5084 1598.04 87.4669 1598.46 87.6137 1598.78C87.3011 1599.08 86.9955 1599.4 86.6881 1599.73C86.3686 1600.08 85.6019 1598.33 85.9732 1597.92C87.4341 1596.32 88.9158 1594.98 91.0933 1594.51C93.3797 1594.02 95.8094 1594.26 98.1269 1594.32C100.688 1594.39 103.266 1594.38 105.822 1594.57C106.963 1594.65 108.101 1594.79 109.2 1595.13C110.414 1595.49 111.548 1596.08 112.755 1596.47C112.943 1596.53 113.099 1596.81 113.201 1597.14C112.56 1596.96 111.912 1596.79 111.265 1596.64L111.263 1596.63Z" fill="black"/>
<path fill-rule="evenodd" clip-rule="evenodd" d="M149.778 1566.57C148.926 1566.66 148.175 1566.3 147.59 1565.73C147.538 1565.7 147.486 1565.68 147.436 1565.65C147.199 1565.75 146.932 1565.81 146.63 1565.8C145.186 1565.74 144.457 1564 144.348 1562.76C144.24 1561.54 144.92 1560.46 146.155 1560.41C146.412 1559.69 146.909 1559.17 147.83 1559.32C147.994 1559.35 148.146 1559.4 148.291 1559.46C148.904 1559.35 149.551 1559.42 150.121 1559.67C151.503 1560.29 152.164 1561.93 152.166 1563.37C152.166 1564.79 151.335 1566.41 149.778 1566.57ZM147.581 1563.1C147.574 1562.93 147.569 1562.77 147.562 1562.6C147.522 1562.64 147.483 1562.68 147.448 1562.72C147.201 1563 147.134 1563.26 147.184 1563.5C147.334 1563.39 147.472 1563.25 147.579 1563.1H147.581ZM145.333 1563.53C145.455 1563.77 145.78 1563.86 146.103 1563.86C145.965 1563.44 145.887 1562.99 145.882 1562.55C145.393 1562.71 145.082 1563.04 145.334 1563.53H145.333ZM149.992 1561.43C149.928 1561.41 149.862 1561.4 149.797 1561.39C150 1562.03 150.076 1562.71 150.035 1563.26C150.012 1563.56 149.954 1564.01 149.845 1564.47C150.318 1564.27 150.715 1563.9 150.974 1563.43C151.551 1562.4 151.095 1561.68 149.994 1561.43H149.992Z" fill="black"/>
<path fill-rule="evenodd" clip-rule="evenodd" d="M61.2427 1641.21C60.937 1640.9 60.6175 1640.6 60.2877 1640.31C60.4518 1640.89 60.4535 1641.59 60.1893 1641.5C59.9682 1641.42 59.7507 1641.33 59.5331 1641.24C59.5296 1641.24 59.5279 1641.25 59.5244 1641.25C56.9013 1641.19 54.3404 1640.54 52.0523 1639.25C50.6621 1638.46 47.7955 1636.82 48.3999 1634.77C48.6659 1633.87 49.7158 1634.02 50.448 1634.11C51.7725 1634.27 53.0797 1634.59 54.3335 1635.04C56.8944 1635.98 59.1963 1637.5 61.1045 1639.44C61.4119 1639.75 61.5967 1640.29 61.6053 1640.73C61.6088 1640.91 61.5656 1641.54 61.2427 1641.21V1641.21ZM50.6155 1636.01C50.5119 1636 50.0871 1636.05 49.7262 1636.02C50.0128 1636.23 50.3237 1636.45 50.3824 1636.49C51.1595 1637.05 51.9987 1637.53 52.8708 1637.93C53.0435 1638.01 53.2179 1638.08 53.3923 1638.15C53.1039 1637.95 52.8138 1637.75 52.5254 1637.56C52.3009 1637.4 52.1334 1636.72 52.1058 1636.22C51.6136 1636.13 51.1163 1636.06 50.6138 1636.01H50.6155Z" fill="black"/>
<path fill-rule="evenodd" clip-rule="evenodd" d="M56.3918 1630.74C54.2678 1629.46 52.6652 1625.2 54.7012 1623.23C55.7011 1622.25 57.3226 1622.28 58.4554 1622.98C58.7853 1623.19 59.0771 1623.44 59.3361 1623.72C60.873 1624.14 61.7607 1625.95 61.5621 1627.5C61.5707 1627.58 61.5776 1627.66 61.5811 1627.74C61.714 1630.53 58.7628 1632.18 56.3918 1630.74V1630.74ZM59.2101 1627.13C59.2118 1627.11 59.2135 1627.08 59.217 1627.06C59.0702 1627.04 58.8215 1627.02 58.5988 1627.04C58.4934 1627.11 58.3656 1627.22 58.2586 1627.32C58.4762 1627.36 58.7162 1627.35 58.9269 1627.3C59.0098 1627.27 59.1151 1627.2 59.2118 1627.14L59.2101 1627.13ZM56.8011 1624.43C54.8912 1624.69 54.0502 1626.89 55.4213 1628.31C56.0706 1628.99 56.991 1629.35 57.9097 1629.33C56.6111 1628.44 56.2347 1625.72 57.2829 1624.73C57.402 1624.61 57.5333 1624.52 57.6714 1624.45C57.3934 1624.4 57.1016 1624.39 56.7994 1624.43H56.8011Z" fill="black"/>
<path fill-rule="evenodd" clip-rule="evenodd" d="M26.1043 1632.15C26.0836 1631.9 26.0698 1631.3 26.3374 1631.46C27.5773 1632.19 28.8172 1632.92 30.0554 1633.66C30.3731 1633.84 30.5286 1634.28 30.6063 1634.64C29.0849 1633.85 27.5601 1633.06 26.1026 1632.15L26.1043 1632.15Z" fill="black"/>
<path fill-rule="evenodd" clip-rule="evenodd" d="M13.467 1517.65C11.1443 1522.85 7.67678 1527.74 3.92947 1532.01C3.37514 1532.64 2.69303 1533.31 1.7916 1533.28C0.791743 1533.24 0.114809 1532.39 -0.275464 1531.55C-1.08364 1529.83 -0.696823 1527.98 -0.0509732 1526.27C-0.451607 1527.07 -0.774531 1527.91 -1.00939 1528.79C-1.19416 1529.48 -1.3254 1530.19 -1.39102 1530.91C-1.42729 1531.29 -1.44801 1531.68 -1.44974 1532.07C-1.44456 1532.26 -1.4411 1532.44 -1.43592 1532.63C-1.43938 1532.4 -1.32886 1532.25 -1.10091 1532.17C-0.981756 1531.74 -0.639835 1532.22 -0.537949 1532.39C-0.328998 1532.74 -0.168399 1533.33 -0.278919 1533.74C-0.505139 1534.57 -1.33231 1534.36 -1.72776 1533.78C-2.3408 1532.89 -2.33735 1531.68 -2.3149 1530.64C-2.25446 1527.87 -1.38066 1525.19 0.138984 1522.88C0.294402 1522.64 0.762384 1523.44 0.8919 1524.08C3.5012 1518.68 7.91509 1514.4 12.196 1510.3C12.2426 1510.24 12.3031 1510.22 12.3756 1510.25C13.543 1510.77 13.6828 1512.54 13.4014 1513.63C12.9748 1515.27 12.2392 1516.91 11.4638 1518.46C12.8021 1515.97 13.8883 1513.36 14.5428 1510.59C14.8968 1509.09 15.3579 1507.31 15.1386 1505.76C14.8727 1503.86 12.8177 1503.72 11.3291 1504.18C8.52813 1505.04 6.27974 1507.61 4.89133 1510.08C4.71865 1510.39 3.88802 1508.79 4.17641 1508.27C5.39213 1506.1 7.14318 1504.13 9.31903 1502.89C11.1927 1501.81 13.6949 1501.48 15.0419 1503.51C16.2593 1505.34 16.1177 1507.69 15.819 1509.76C15.4235 1512.5 14.5946 1515.14 13.467 1517.66V1517.65ZM3.35615 1522.8C2.61532 1523.93 1.94529 1525.12 1.38579 1526.35C0.941979 1527.33 -0.541403 1530.17 0.468817 1531.02C1.39269 1531.8 2.3701 1531.08 3.06258 1530.35C3.00386 1530.32 2.94515 1530.3 2.88644 1530.27C2.46508 1530.03 2.21123 1529.21 2.26822 1528.69C2.07653 1527.81 2.19914 1527 2.62741 1526.12C3.16964 1525.01 3.77923 1523.92 4.38709 1522.84C5.05366 1521.36 5.80312 1519.92 6.63029 1518.52C5.44911 1519.87 4.33874 1521.29 3.35615 1522.8V1522.8Z" fill="black"/>
<path fill-rule="evenodd" clip-rule="evenodd" d="M36.5277 1495.28C36.2341 1494.98 36.1132 1494.31 36.1357 1493.91C36.355 1489.77 37.1891 1485.72 38.6414 1481.84C38.8762 1481.22 39.6395 1482.94 39.4634 1483.41C38.0508 1487.19 37.2202 1491.11 37.0077 1495.14C36.9853 1495.56 36.7643 1495.51 36.5294 1495.28L36.5277 1495.28Z" fill="black"/>
<path fill-rule="evenodd" clip-rule="evenodd" d="M34.3087 1488.64C32.1155 1491.1 28.8345 1493.63 25.531 1494.28C24.2963 1494.53 22.9804 1494.32 22.376 1493.1C21.737 1491.82 21.8165 1490.42 23.046 1489.55C23.2878 1489.38 23.5434 1489.24 23.8093 1489.12C23.8145 1489.02 23.8352 1488.94 23.8732 1488.88C25.6104 1486.01 28.9312 1484.91 32.0275 1484.16C33.2553 1483.87 34.7594 1483.5 35.4415 1484.88C36.2134 1486.43 35.331 1487.5 34.3069 1488.64L34.3087 1488.64ZM30.8135 1489.34C30.9793 1489.23 31.1433 1489.12 31.3039 1489C31.126 1489.03 30.9499 1489.08 30.7755 1489.13C30.791 1489.2 30.8049 1489.27 30.8152 1489.34H30.8135ZM23.0305 1492.23C23.1462 1492.29 23.2671 1492.33 23.3931 1492.36C23.7661 1492.46 24.1633 1492.46 24.5449 1492.42C24.7021 1492.4 24.8558 1492.37 25.0077 1492.34C24.9801 1492.07 25.0198 1491.84 25.1753 1491.75C25.2512 1491.7 25.3255 1491.66 25.3997 1491.61C25.3721 1491.36 25.3997 1491.14 25.5051 1491.04C25.752 1490.81 26.0093 1490.59 26.2684 1490.37C25.0526 1490.7 23.8197 1491.12 23.0253 1492.06C22.6385 1491.98 22.6402 1492.04 23.0305 1492.23ZM31.948 1486.25C30.3835 1486.65 28.7913 1487.16 27.4098 1487.98C28.1576 1487.77 28.9053 1487.56 29.6548 1487.35C30.9775 1486.99 32.0845 1486.81 32.8097 1487.66C33.2881 1487.18 33.7423 1486.68 34.1671 1486.15C34.2482 1486.05 34.3259 1485.95 34.4054 1485.85C34.2465 1485.82 34.1066 1485.8 34.0617 1485.8C33.3572 1485.84 32.625 1486.08 31.9463 1486.25H31.948Z" fill="black"/>
<path fill-rule="evenodd" clip-rule="evenodd" d="M17.9914 1504.68C17.6098 1504.86 16.9207 1502.99 17.4353 1502.74C17.7565 1502.59 18.1313 1502.27 18.1468 1501.88C18.1641 1501.42 17.703 1501.2 17.3076 1501.04C16.2507 1500.61 15.0454 1500.85 13.9799 1501.11C13.4791 1501.24 12.9472 1499.3 13.4238 1499.18C15.3096 1498.71 17.5251 1498.64 18.5198 1500.62C19.1346 1501.84 19.4886 1503.96 17.9897 1504.68L17.9914 1504.68Z" fill="black"/>
<path fill-rule="evenodd" clip-rule="evenodd" d="M154.141 1612.54C154.469 1612.48 154.792 1612.36 155.093 1612.2C155.359 1612.29 155.673 1612.27 155.911 1612.06C155.923 1612.05 155.936 1612.04 155.949 1612.03C155.98 1612.04 156.013 1612.05 156.044 1612.05C155.982 1612.1 155.92 1612.15 155.854 1612.2C155.366 1612.55 154.734 1612.71 154.141 1612.54Z" fill="black"/>
<path fill-rule="evenodd" clip-rule="evenodd" d="M65.4666 1636.89C65.8741 1637.15 66.2851 1637.41 66.7013 1637.65C66.2195 1637.45 65.7359 1637.24 65.2542 1637.04C65.2852 1636.9 65.3474 1636.81 65.4666 1636.89Z" fill="black"/>
<path fill-rule="evenodd" clip-rule="evenodd" d="M121.878 1638.71C121.205 1639.3 120.467 1639.89 119.651 1640.27C119.215 1640.47 118.207 1640.64 118.069 1639.98C118.027 1639.78 118.086 1639.56 118.198 1639.34C118.217 1639.38 118.238 1639.42 118.261 1639.47C118.571 1640.04 119.445 1639.53 119.134 1638.96C118.967 1638.65 119.533 1637.99 119.709 1637.77C119.887 1637.55 120.081 1637.34 120.286 1637.14C120.602 1636.9 120.939 1636.69 121.295 1636.53C121.502 1636.43 121.571 1636.26 121.55 1636.09C122.091 1635.7 123.6 1634.67 124.035 1635.3C124.332 1635.73 123.971 1636.44 123.721 1636.8C123.211 1637.51 122.54 1638.14 121.878 1638.71Z" fill="black"/>
<path fill-rule="evenodd" clip-rule="evenodd" d="M183.621 1543.59C184.823 1546.84 185.425 1550.24 184.659 1553.71C184.602 1553.96 184.472 1553.98 184.337 1553.9C184.325 1554.37 184.296 1554.83 184.243 1555.29C183.854 1558.65 182.548 1561.76 181.334 1564.89C180.673 1566.59 179.825 1568.57 179.387 1570.57C179.476 1570.92 179.511 1571.29 179.421 1571.59C179.212 1572.28 179.093 1572.97 179.122 1573.67C179.152 1574.03 179.204 1574.38 179.286 1574.73C179.35 1575 179.644 1576.02 179.205 1576.15C178.972 1576.21 178.767 1575.92 178.618 1575.61C178.33 1577.61 177.931 1579.59 177.414 1581.53C177.566 1581.96 177.656 1582.47 177.535 1582.84C175.598 1588.77 173.265 1594.57 170.557 1600.18C170.6 1600.48 170.585 1600.73 170.472 1600.89C170.436 1600.94 170.4 1600.99 170.365 1601.03C170.365 1601.2 170.338 1601.34 170.27 1601.45C169.821 1602.14 169.362 1602.83 168.896 1603.51C168.304 1604.66 167.697 1605.81 167.074 1606.94C166.951 1607.16 166.761 1607.01 166.596 1606.79C164.459 1609.71 162.187 1612.52 159.787 1615.23C159.847 1615.56 159.837 1615.85 159.711 1616.02C157.143 1619.43 154.292 1622.62 151.199 1625.54C151.233 1625.61 151.259 1625.67 151.27 1625.69C151.468 1626.18 151.655 1626.87 151.41 1627.37L151.171 1627.85C151.104 1629.02 150.834 1630.15 150.358 1631.2C150.529 1631.62 150.601 1632.14 150.586 1632.52C150.524 1633.99 149.501 1634.75 148.317 1635.45C148.229 1635.5 148.139 1635.55 148.051 1635.61C147.911 1635.9 147.766 1636.2 147.617 1636.49C147.479 1636.76 147.156 1636.39 147.084 1636.28C147.066 1636.26 147.049 1636.23 147.032 1636.2C146.068 1636.76 145.096 1637.3 144.108 1637.81C142.625 1638.58 141.098 1639.27 139.51 1639.79C137.99 1640.29 136.408 1640.6 134.951 1641.28C130.554 1643.31 127.713 1647.52 123.657 1650.06C123.319 1650.51 122.935 1650.75 122.383 1650.81C122.282 1650.92 122.187 1651.03 122.096 1651.16C122.034 1651.25 121.942 1651.23 121.837 1651.15C121.828 1651.17 121.82 1651.19 121.809 1651.21C121.543 1651.68 121.257 1651.27 121.06 1650.92C119.055 1647.33 114.073 1647.07 110.515 1647.74C108.385 1648.14 106.324 1648.83 104.231 1649.38C101.94 1649.99 99.6034 1650.39 97.2566 1650.71C88.0506 1651.95 78.5701 1653.09 69.2812 1652.24C64.073 1651.77 58.9615 1650.55 54.2419 1648.27C54.0261 1648.16 53.8672 1647.95 53.748 1647.7C47.5313 1645.88 41.5287 1643.42 35.8248 1640.35C31.1657 1640.97 26.9781 1643.58 24.3999 1647.53C24.3032 1647.68 24.108 1647.6 24.0148 1647.5C22.5331 1645.96 21.0515 1644.41 19.5698 1642.86C18.4732 1641.71 17.4147 1640.65 17.0728 1639.05C16.3475 1635.64 19.9014 1632.85 18.7012 1629.34C17.7307 1626.5 15.2716 1624.21 13.1925 1622.16C10.4813 1619.48 7.86335 1616.71 5.39738 1613.81C-3.79303 1602.96 -10.2533 1590.19 -13.3841 1576.31C-14.9348 1569.44 -15.6221 1562.37 -15.4391 1555.33C-19.568 1554.22 -21.8837 1549.69 -22.4622 1545.7C-23.2566 1540.22 -21.509 1534.48 -20.4781 1529.15C-19.9203 1526.26 -19.5576 1523.24 -18.7616 1520.42C-18.4697 1519.38 -17.9724 1518.49 -17.0537 1517.88C-16.0555 1517.23 -14.8623 1516.94 -13.8158 1516.37C-9.42091 1514 -6.98256 1508.88 -4.47515 1504.8C-1.01277 1499.16 2.45133 1493.51 5.91371 1487.87C3.49264 1484.71 0.736551 1481.83 -2.32519 1479.27C-2.769 1478.89 -3.40449 1477.21 -2.78799 1476.8C-1.15092 1475.7 0.484426 1474.6 2.1215 1473.5C2.69827 1473.11 3.46673 1472.32 4.22483 1472.62C4.86723 1472.88 5.36802 1473.68 5.86536 1474.14C8.36587 1476.45 11.6452 1477.83 15.0333 1478.1C15.2509 1477.93 15.4719 1477.76 15.7033 1477.6C16.0107 1477.38 16.5219 1478.85 16.3906 1479.35C16.439 1479.32 16.4873 1479.29 16.5357 1479.26C16.3371 1478.69 16.268 1478.05 16.5132 1477.86C24.0942 1471.68 32.7009 1466.99 41.4579 1462.72C45.8752 1460.57 50.3237 1458.41 54.9845 1456.82C59.6021 1455.25 64.3959 1454.4 69.2554 1454.06C74.0543 1453.73 78.8671 1453.83 83.673 1454C83.5832 1453.66 83.5469 1453.31 83.6402 1453C83.8094 1452.45 84.2653 1453.03 84.3896 1453.29C84.4069 1453.33 84.5174 1453.49 84.4674 1453.43C84.495 1453.46 84.5261 1453.5 84.5312 1453.51C84.552 1453.54 84.5779 1453.56 84.6003 1453.58C84.7022 1453.24 84.8041 1452.9 84.9077 1452.55C85.0735 1452 85.5277 1452.58 85.6572 1452.84C85.8368 1453.19 86.0215 1453.68 86.0492 1454.14C86.4325 1454.37 86.6898 1455.17 86.7607 1455.8C87.9625 1455.84 88.8812 1456.23 89.2836 1457.46C89.8017 1459.04 88.978 1459.89 87.6258 1460.57C85.8799 1461.46 84.084 1462.24 82.2535 1462.95C83.0358 1463.06 83.8077 1463.3 84.5347 1463.66C84.6919 1463.74 84.8645 1463.99 84.9923 1464.29C84.9958 1464.29 84.9975 1464.29 84.9992 1464.29L86.2581 1464.17C86.4619 1464.15 86.6173 1464.41 86.6881 1464.57C87.0957 1465.46 87.353 1466.45 86.6001 1467.24C85.785 1468.09 84.2895 1468.42 83.1912 1468.68C82.1585 1468.92 81.1086 1469.05 80.0587 1469.06C79.8134 1469.17 79.5665 1469.27 79.3144 1469.36C78.2403 1469.76 77.1299 1470.06 76.0005 1470.25C75.2977 1470.37 74.4135 1470.54 73.8212 1470.02C73.3446 1469.6 73.089 1468.8 73.1063 1468.17C73.1235 1467.55 73.5155 1467.1 73.9732 1466.71C74.0768 1466.23 74.474 1465.98 75.0197 1465.61C75.0853 1465.57 75.1543 1465.53 75.2217 1465.48C75.3547 1465.33 75.4945 1465.19 75.6379 1465.05C72.514 1465.85 69.3279 1466.4 66.1297 1466.7C65.8102 1466.73 65.4925 1466.75 65.173 1466.78C65.6376 1466.9 66.0969 1467.07 66.5459 1467.31C67.6062 1467.87 68.4886 1468.69 69.2001 1469.64C69.2105 1469.49 69.2571 1469.36 69.3728 1469.34C69.3935 1469.34 69.4125 1469.33 69.4315 1469.34C69.2035 1468.74 69.0827 1467.32 69.6145 1468.02C73.9783 1473.77 75.2804 1481.81 72.6763 1488.58C72.4345 1489.2 71.6747 1487.47 71.8543 1487C74.0181 1481.38 73.3912 1475.07 69.9651 1470.13C69.9755 1470.17 69.9841 1470.19 69.9893 1470.21C70.0877 1470.52 70.1861 1470.83 70.2846 1471.14C70.4469 1471.41 70.6006 1471.69 70.7353 1471.98C71.5469 1473.73 71.9268 1475.68 71.8405 1477.6C71.9199 1478.23 71.9734 1478.86 71.9907 1479.5C72.0736 1482.5 71.2637 1485.36 69.6094 1487.86C67.9032 1490.45 65.5322 1492.53 63.0334 1494.33C60.3775 1496.23 57.5575 1497.85 54.273 1498.31C50.7847 1498.8 47.2412 1498.24 43.7961 1497.68C43.2918 1497.6 42.9154 1495.68 43.4403 1495.77C44.0448 1495.86 44.6509 1495.96 45.2605 1496.05C43.1761 1495.47 41.4216 1494.14 40.5496 1491.69C38.5429 1486.06 42.4664 1479.72 45.5316 1475.27C45.7613 1474.94 46.5746 1476.61 46.2465 1477.08C44.7459 1479.26 43.411 1481.56 42.3282 1483.98C41.4855 1485.86 40.7309 1488.02 40.9105 1490.11C41.0245 1491.43 41.5771 1492.39 42.3904 1493.06C41.6185 1491.11 41.653 1488.81 42.3593 1486.87C42.9413 1485.28 46.4037 1478.04 48.6831 1481.21C48.9232 1481.54 49.1649 1482.16 49.0751 1482.57C49.0026 1482.91 48.8506 1483.06 48.5968 1482.71C47.1825 1480.75 44.2382 1486.23 43.7857 1487.1C42.9223 1488.75 42.2713 1490.86 43.038 1492.55C42.6374 1490.93 43.4334 1489.34 44.7286 1488.05C44.9928 1487.79 45.2622 1487.53 45.5333 1487.28C46.9304 1485.3 49.139 1483.78 51.4461 1482.79C52.0229 1482.41 52.6083 1482.06 53.1972 1481.74C54.7324 1480.9 56.4057 1480.25 58.1377 1480C58.2983 1479.95 58.4572 1479.9 58.6178 1479.85C59.6609 1479.55 61.1874 1478.93 62.1717 1479.69C62.3358 1479.82 62.4757 1479.97 62.5948 1480.15C63.5791 1480.57 63.9987 1481.77 64.0937 1482.76C64.13 1483.14 64.111 1483.53 64.0506 1483.93C64.2889 1484.75 64.3009 1485.67 64.1887 1486.52C64.446 1486.16 64.686 1485.79 64.9036 1485.4C65.1333 1484.65 65.2749 1483.88 65.3267 1483.11C65.2749 1482.9 65.2456 1482.69 65.23 1482.55C65.078 1481.28 64.6809 1480.07 64.054 1478.96C63.4462 1477.88 62.5154 1476.48 61.3774 1475.91C59.6367 1475.02 57.8338 1476.99 55.9964 1476.61C55.5544 1476.52 55.1503 1475.06 55.4611 1474.74C56.72 1473.47 58.3415 1472.83 60.0701 1472.47C60.4638 1472.39 60.8887 1472.29 61.329 1472.2C61.3791 1472.14 61.4326 1472.08 61.4948 1472.03C62.5464 1471.17 64.7033 1470.84 65.9898 1471.08C66.3318 1471.14 66.6409 1471.26 66.9189 1471.42C66.9189 1471.35 66.9241 1471.29 66.9362 1471.23C67.0087 1470.89 67.1607 1470.74 67.4145 1471.09C67.8549 1471.7 68.2451 1472.34 68.5871 1473C69.3642 1473.63 69.6577 1474.7 69.6957 1475.81C69.8649 1476.41 69.9962 1477.02 70.0894 1477.64C70.1447 1477.23 70.1861 1476.81 70.212 1476.39C70.2328 1476.07 70.3346 1476.02 70.4573 1476.1C70.4797 1475.84 70.497 1475.58 70.5004 1475.31C70.5073 1474.84 70.4573 1474.37 70.3605 1473.91C70.2897 1473.64 70.2138 1473.37 70.1378 1473.1C69.9478 1472.54 69.6923 1472.01 69.3711 1471.51C68.3004 1470.17 66.7428 1469.2 64.8536 1468.84C63.8451 1468.64 62.8262 1468.65 61.8471 1468.86C61.0786 1469.07 60.3257 1469.38 59.609 1469.73C59.2274 1469.92 58.5695 1468.09 59.053 1467.8C59.7092 1467.41 60.3896 1467.14 61.0786 1466.97C60.8748 1466.97 60.6728 1466.97 60.469 1466.97C59.2326 1466.97 57.5886 1467.13 56.7355 1466.03C56.5542 1465.8 56.4161 1465.57 56.309 1465.35C56.2572 1465.36 56.2037 1465.36 56.1518 1465.36C55.4697 1465.47 54.7824 1465.53 54.1418 1465.46C54.0261 1465.47 53.9104 1465.47 53.7929 1465.48C52.6428 1465.52 51.4772 1465.54 50.7882 1464.47C50.543 1464.09 50.1803 1463.25 50.4739 1462.81C51.8519 1460.75 54.3956 1460.2 56.6682 1459.71C59.6039 1459.07 62.5758 1458.61 65.5667 1458.32C68.5939 1457.66 71.6471 1457.12 74.7226 1456.71C75.4911 1456.61 76.2647 1456.52 77.0401 1456.43C70.5591 1456.42 64.0885 1456.88 57.8407 1458.73C53.1108 1460.13 48.6192 1462.21 44.1846 1464.34C41.1971 1465.78 38.2252 1467.25 35.2947 1468.8C35.7247 1468.86 36.1357 1469.01 36.5191 1469.27C36.5605 1469.25 36.6037 1469.23 36.6451 1469.22C36.576 1468.82 36.6037 1468.47 36.7936 1468.43L40.0522 1467.8C40.8155 1467.66 41.7515 1467.33 42.4509 1467.82C42.4975 1467.86 42.5406 1467.89 42.5821 1467.93C42.6235 1467.91 42.665 1467.89 42.7064 1467.88C43.2521 1467.66 43.4766 1469.44 43.3436 1469.75C43.3609 1470.15 43.3022 1470.54 43.1675 1470.87C42.7306 1471.93 41.6323 1472.81 40.61 1473.56C38.1699 1476.02 34.9493 1477.83 32.0879 1479.61C27.2216 1482.65 22.2603 1485.53 17.2195 1488.27C11.2601 1493.49 5.59078 1499.03 0.240938 1504.88C-0.031908 1505.18 -0.548243 1504.06 -0.555151 1503.41C-0.752014 1503.66 -0.948875 1503.91 -1.14401 1504.15C-1.46521 1504.86 -1.77777 1505.57 -2.07652 1506.29L-4.48551 1512.99C-4.71518 1513.63 -5.44565 1511.87 -5.3075 1511.42C-5.10718 1510.77 -4.89823 1510.12 -4.68237 1509.47C-5.31959 1510.55 -5.94299 1511.63 -6.54049 1512.73C-6.54567 1512.77 -6.55085 1512.8 -6.55948 1512.83L-11.3049 1530.46C-11.4103 1530.86 -11.6917 1530.5 -11.8126 1530.34C-12.0717 1530.01 -12.1494 1529.47 -12.1511 1529.06C-12.1511 1528.99 -12.1494 1528.93 -12.1494 1528.86C-12.1891 1528.77 -12.2271 1528.69 -12.2616 1528.6C-12.2685 1528.62 -12.2754 1528.64 -12.2823 1528.66C-12.5103 1529.35 -13.1751 1527.58 -13.1285 1527.26C-13.1199 1527.2 -13.1112 1527.15 -13.1026 1527.09L-13.0991 1527.08C-12.55 1523.42 -11.4517 1519.96 -10.0219 1516.62C-11.2169 1517.81 -12.5828 1518.8 -14.1508 1519.46C-14.6361 1519.67 -15.1524 1519.85 -15.6359 1520.08C-15.5133 1520.17 -15.3855 1520.35 -15.3406 1520.42C-15.1144 1520.8 -15.0022 1521.34 -15.0816 1521.78L-16.0227 1526.9C-15.8155 1527.27 -15.6273 1527.87 -15.6169 1527.98C-15.275 1531.54 -16.1039 1535 -17.0381 1538.41C-18.0328 1542.04 -19.2174 1545.83 -18.6182 1549.63C-18.4041 1550.99 -19.2882 1550.13 -19.4178 1549.31C-19.9082 1546.19 -19.4696 1543.16 -18.7391 1540.15C-18.8514 1540.05 -18.9584 1539.9 -18.9999 1539.83C-19.2261 1539.46 -19.3383 1538.91 -19.2589 1538.48L-15.907 1520.23C-16.3008 1520.44 -16.6651 1520.7 -16.9604 1521.05C-17.8221 1522.07 -17.9171 1523.65 -18.1606 1524.91C-19.176 1530.16 -20.3641 1535.42 -21.1688 1540.7C-21.5729 1543.35 -21.8544 1546.37 -20.6041 1548.84C-19.7856 1550.46 -18.4628 1551.75 -16.8395 1552.45C-16.7532 1550.24 -16.6669 1548.03 -16.5788 1545.82C-16.634 1545.58 -16.6565 1545.33 -16.6461 1545.14C-16.5322 1543.02 -16.4165 1540.9 -16.3025 1538.78C-16.28 1538.36 -16.059 1538.41 -15.8241 1538.64C-15.5271 1538.94 -15.4166 1539.61 -15.4321 1540.01C-15.4494 1540.45 -15.4667 1540.89 -15.484 1541.32C-15.2128 1541.26 -14.7103 1542.48 -14.7569 1542.85C-14.8001 1543.19 -14.8416 1543.53 -14.883 1543.87C-14.902 1544.04 -14.9227 1544.22 -14.94 1544.39C-14.9452 1547.49 -14.7759 1550.59 -14.4444 1553.67C-14.2665 1554.17 -14.1992 1554.8 -14.2112 1555.06C-14.2182 1555.21 -14.2233 1555.36 -14.2302 1555.51C-14.2233 1555.57 -14.2164 1555.62 -14.2095 1555.68C-14.1905 1555.84 -14.194 1556.01 -14.2561 1556.12C-14.7069 1568.98 -12.0578 1581.91 -6.49041 1593.52C-3.49947 1599.76 0.308287 1605.54 4.72044 1610.86C5.9068 1612.29 7.13288 1613.69 8.3935 1615.06C7.62331 1613.98 6.90839 1612.87 6.25736 1611.71C5.97933 1611.21 5.93098 1609.44 6.56129 1610.57C8.09648 1613.29 10.0202 1615.77 12.2444 1617.94C11.6141 1617.1 11.027 1616.26 10.4623 1615.53C9.09288 1613.76 7.63022 1612.02 6.33507 1610.2C5.6754 1609.42 5.02783 1608.62 4.40097 1607.81C4.25073 1607.62 3.68259 1606.16 4.16612 1606.09C4.52013 1606.04 4.86032 1606.05 5.1867 1606.1C5.23505 1605.96 5.29549 1605.81 5.3732 1605.68C5.43882 1605.56 5.59942 1605.63 5.66159 1605.7C5.88608 1605.96 6.1123 1606.22 6.33679 1606.47C6.36615 1606.49 6.39551 1606.5 6.42314 1606.52C6.42314 1606.46 6.42314 1606.4 6.42832 1606.34C6.44213 1606.17 6.48013 1605.97 6.54575 1605.79C6.7547 1605.95 6.96365 1606.11 7.17433 1606.27C8.76478 1607.48 10.4174 1608.6 12.0994 1609.67C15.9037 1614.19 19.3056 1619.05 21.0912 1624.75C21.1102 1624.81 21.3347 1626.01 20.9306 1625.8C19.0068 1624.83 17.1919 1623.69 15.4996 1622.39C16.4563 1623.46 17.3473 1624.58 18.0968 1625.8C19.7235 1628.48 20.6698 1631.75 19.7943 1634.85C19.5076 1635.86 19.0483 1636.81 18.6459 1637.77C18.5337 1638.04 18.1002 1638.79 18.1624 1639.12C18.228 1639.46 18.8411 1639.94 19.0759 1640.18C20.5818 1641.75 22.0876 1643.33 23.5934 1644.9C26.0525 1641.26 29.9069 1638.73 34.1999 1637.91C34.2033 1637.57 34.2655 1637.2 34.528 1637.35C34.7732 1637.48 35.0201 1637.61 35.2653 1637.75C35.4242 1637.73 35.5814 1637.7 35.7402 1637.69C36.0027 1637.67 36.2376 1637.96 36.412 1638.36C42.0001 1641.27 47.8646 1643.61 53.9328 1645.34C54.1469 1645.4 54.3335 1645.68 54.4699 1646.04C63.232 1650.05 73.0182 1650.34 82.4953 1649.63C82.6023 1649.62 82.7094 1649.61 82.8165 1649.6C81.8063 1649.43 80.7908 1649.2 79.772 1648.9C77.591 1648.69 75.4099 1648.46 73.2323 1648.22C71.502 1648.02 69.763 1647.77 68.1053 1647.22C67.7288 1647.1 67.3679 1646.94 67.007 1646.77C67.2988 1647.56 67.5475 1648.68 66.9931 1648.54C65.6065 1648.18 64.2198 1647.81 62.8331 1647.45C62.6984 1647.42 62.5827 1647.32 62.4843 1647.19C62.3116 1647.1 62.1406 1647.01 61.9731 1646.9C61.6157 1646.68 60.6089 1644.44 61.3653 1644.33C61.7003 1644.29 62.0336 1644.27 62.3617 1644.27C62.4515 1644.14 62.5568 1644.03 62.6725 1643.93C62.6898 1643.94 62.707 1643.96 62.726 1643.98C63.4272 1644.51 64.1663 1644.96 64.9347 1645.32C66.7877 1646.28 68.853 1646.94 70.7664 1647.45C73.3636 1648.13 77.3129 1648.96 79.4594 1646.78C79.6563 1646.58 79.7461 1646.24 79.6425 1645.97C81.0758 1645.84 82.5074 1645.69 83.9355 1645.53C83.9338 1645.46 83.9355 1645.39 83.9407 1645.33C82.7249 1645.16 81.5144 1644.94 80.3142 1644.68C80.347 1645.1 80.2901 1645.42 80.126 1645.41C79.8307 1645.4 79.5371 1645.39 79.2418 1645.38C77.8241 1643.52 75.8537 1642.15 73.8229 1641.01C77.7826 1642.44 81.9461 1643.32 86.1528 1643.72C86.1476 1643.75 86.1407 1643.77 86.1373 1643.79C85.6468 1644.38 85.4828 1645.15 85.9559 1645.86C85.9766 1646.26 86.2754 1646.66 86.7158 1646.61C86.7278 1646.61 86.7416 1646.61 86.7537 1646.61C88.0886 1647.45 90.1367 1647.41 91.5734 1647.36C93.6612 1647.29 95.9631 1647.01 97.8489 1646.05C98.1649 1645.89 98.4533 1645.68 98.6916 1645.44C99.1423 1645.21 99.5654 1644.95 99.9384 1644.63C100.299 1644.33 100.21 1643.62 99.783 1643.42C99.7605 1643.41 99.7381 1643.4 99.7156 1643.39C99.6776 1643.3 99.6224 1643.21 99.5499 1643.15C99.2632 1642.9 98.9506 1642.7 98.6173 1642.53C98.828 1642.44 99.037 1642.36 99.2477 1642.28C99.3599 1642.23 99.4825 1642.29 99.5999 1642.42C101.102 1641.89 102.605 1641.36 104.105 1640.83C102.425 1641.04 100.747 1641.26 99.0663 1641.47C98.0371 1641.6 97.0044 1641.72 95.97 1641.84C94.8752 1641.69 93.732 1641.7 92.7546 1641.73C91.9171 1641.75 90.7463 1641.76 89.6981 1641.98C88.9313 1642.02 88.1749 1642.13 87.5084 1642.39C86.7848 1642.4 86.0613 1642.39 85.3377 1642.36C77.9484 1642.06 67.9481 1639.55 65.6462 1631.42C64.5479 1627.54 65.5201 1623.51 67.3851 1620.04C67.5665 1619.7 67.9567 1620.5 67.9947 1620.59C68.1381 1620.94 68.2952 1621.49 68.1001 1621.85C66.5545 1624.73 65.287 1628.54 66.4975 1631.76C67.7495 1635.09 71.3328 1637.15 74.512 1638.41C69.7924 1634.01 68.4126 1626.75 70.1067 1620.7C72.4242 1612.41 79.3299 1606.85 85.8281 1601.78C86.5448 1601.22 87.6828 1604.29 87.0197 1604.8C86.5396 1605.18 86.0595 1605.55 85.5777 1605.93C85.8989 1606.66 86.0785 1607.6 85.7573 1607.9C83.521 1610.06 81.2364 1612.17 79.0605 1614.39C77.0729 1616.41 75.2321 1618.63 74.1752 1621.29C73.4223 1623.18 73.0096 1625.21 72.9785 1627.23C73.1063 1626.68 73.2824 1626.13 73.5035 1625.59C73.6192 1624.03 74.2149 1622.53 75.1975 1621.07C77.1126 1618.22 79.551 1615.67 81.7441 1613.03C82.1292 1612.57 83.1757 1614.88 82.6973 1615.45C81.3711 1617.04 80.0328 1618.63 78.71 1620.22C82.2 1618.54 86.5465 1618.48 90.2938 1619.2C93.3072 1619.77 96.5572 1620.6 99.0508 1622.47C101.322 1624.17 102.681 1627.01 102.755 1629.84C102.77 1630.45 102.7 1631.01 102.556 1631.53C103.244 1630.13 103.541 1628.56 103.23 1627.03C103.171 1626.8 103.112 1626.57 103.054 1626.34C102.973 1626.03 102.641 1624.83 103.149 1624.69C103.649 1624.54 104.022 1625.78 104.107 1626.04C104.273 1626.55 104.406 1627.06 104.503 1627.58L104.846 1628.92C105.014 1628.51 105.16 1628.09 105.281 1627.66C105.47 1627 106.001 1627.71 106.157 1627.99C106.468 1628.55 106.742 1629.46 106.559 1630.1C106.528 1630.22 106.494 1630.32 106.459 1630.43C106.59 1631.96 106.26 1633.25 105.625 1634.35C110.813 1631.46 114.962 1626.8 117.098 1621.21C117.337 1620.58 117.793 1621.21 117.974 1621.54C118.259 1622.05 118.604 1623.05 118.376 1623.65C116.632 1628.22 113.645 1632.21 109.833 1635.16C110.196 1635.02 110.557 1634.88 110.913 1634.73C117.152 1632 121.775 1626.21 123.165 1619.57C123.32 1618.83 123.956 1619.66 124.103 1619.92C124.457 1620.56 124.686 1621.46 124.533 1622.19C124.491 1622.39 124.446 1622.58 124.4 1622.78H124.401C124.479 1622.66 124.615 1622.65 124.816 1622.76C125.187 1622.96 125.384 1623.79 125.441 1624.16C125.624 1625.34 125.506 1626.43 125.197 1627.46C124.921 1628.87 124.455 1630.23 123.819 1631.51C126.836 1630.11 129.851 1628.72 132.868 1627.32C133.003 1627.24 133.136 1627.16 133.269 1627.07C133.21 1626.65 133.227 1626.27 133.346 1626.1C134.224 1624.89 135.455 1624.1 136.933 1623.84C137.04 1623.82 137.144 1623.86 137.239 1623.93C137.204 1623.83 137.175 1623.74 137.149 1623.64C136.792 1623.39 136.517 1623 136.318 1622.53C136.223 1623.13 135.674 1622.43 135.569 1622.24C135.27 1621.71 135.134 1621.04 135.224 1620.43C135.868 1616.19 137.845 1612.3 140.812 1609.28C140.819 1609.11 140.857 1608.95 140.939 1608.82C142.763 1605.96 144.585 1603.11 146.409 1600.25C147.35 1597.89 148.425 1595.59 149.641 1593.36C149.823 1593.03 150.154 1593.53 150.334 1593.86C149.531 1595.37 148.8 1596.91 148.215 1598.54C147.312 1601.07 146.557 1603.76 144.866 1605.9C144.651 1606.17 144.647 1606.48 144.761 1606.74C144.602 1606.99 144.445 1607.24 144.286 1607.48C144.723 1607.32 145.188 1607.23 145.688 1607.28C147.265 1607.43 148.066 1608.81 148.346 1610.24C148.657 1611.82 148.293 1613.49 147.574 1615.04C148.928 1613.96 150.396 1612.98 151.774 1611.95C152.014 1613.18 153.069 1614.17 154.637 1614.15C157.597 1614.11 159.382 1610.52 160.267 1608.14C160.814 1606.67 161.287 1604.35 160.422 1603C160.65 1602.67 160.873 1602.33 161.087 1601.99C163.287 1598.48 164.763 1594.43 164.927 1590.26C164.959 1589.49 165.187 1587.74 164.679 1587.08C164.273 1586.56 163.323 1586.58 162.759 1586.62C161.268 1586.74 159.837 1587.24 158.346 1586.91C158.341 1586.91 158.338 1586.92 158.333 1586.92C158.265 1586.97 158.174 1586.92 158.072 1586.81C157.849 1586.65 157.666 1586.26 157.55 1585.83C157.364 1585.28 157.284 1584.68 157.523 1584.41C157.545 1584.38 157.569 1584.35 157.599 1584.34C158.528 1583.66 159.545 1583.15 160.641 1582.81C160.99 1582.7 161.36 1583.41 161.531 1584.11C162.878 1583.95 164.14 1584.02 165.01 1585.37C165.881 1586.72 166.022 1588.49 166.084 1590.05C166.152 1591.73 166.027 1593.41 165.732 1595.07C165.009 1599.13 163.246 1602.82 160.871 1606.1C160.881 1606.09 160.89 1606.08 160.9 1606.07C160.935 1606.03 160.973 1606.01 161.014 1606.01C163.617 1602.25 165.95 1598.32 167.994 1594.24C168.013 1594.24 168.031 1594.25 168.051 1594.25C168.3 1594.73 168.637 1595.15 169.105 1595.39C170.358 1596.06 171.522 1594.99 172.218 1594.04C172.819 1593.22 173.871 1591.36 174.503 1589.46C174.879 1588.69 175.161 1587.98 175.32 1587.53C176.009 1585.6 176.757 1582.58 176.08 1580.29C176.211 1579.84 176.333 1579.37 176.453 1578.91C176.442 1578.89 176.432 1578.87 176.422 1578.85C176.226 1579.07 175.862 1578.58 175.753 1578.39C175.48 1577.89 175.266 1577.15 175.408 1576.58L176.323 1572.9C176.466 1572.32 176.948 1572.96 177.073 1573.19C177.085 1573.21 177.095 1573.23 177.107 1573.25C177.254 1573.38 177.394 1573.57 177.442 1573.66C177.456 1573.68 177.468 1573.71 177.482 1573.74C177.515 1573.51 177.549 1573.28 177.579 1573.05C177.627 1572.66 177.77 1572.55 177.972 1572.66C177.924 1571.89 177.964 1571.13 178.11 1570.36C178.62 1565.51 181.334 1560.95 182.574 1556.21C182.839 1555.19 182.991 1554.21 183.056 1553.23C182.94 1552.98 182.858 1552.76 182.847 1552.7C182.633 1551.47 182.329 1550.27 181.942 1549.09C182.25 1551.21 182.369 1553.34 182.163 1555.49C182.139 1555.74 182.084 1555.87 182.008 1555.91C181.982 1556.08 181.954 1556.25 181.923 1556.41C181.825 1556.95 181.376 1556.45 181.246 1556.25C180.934 1555.78 180.773 1555.11 180.796 1554.55C180.808 1554.23 180.813 1553.91 180.816 1553.6C179.918 1550.11 179.14 1546.6 178.483 1543.07C178.371 1543.17 178.252 1543.27 178.124 1543.37C176.632 1544.45 175.817 1543.29 175.206 1541.92C173.717 1538.58 172.786 1535.02 172.134 1531.43C171.8 1529.6 171.545 1527.76 171.308 1525.91C171.106 1524.33 170.604 1522.45 170.921 1520.85C171.187 1519.52 172.317 1518.94 173.496 1519.67C173.66 1519.77 173.814 1519.88 173.959 1520.01C173.956 1519.56 174.044 1519.23 174.358 1519.56C175.195 1520.44 175.917 1521.38 176.542 1522.38C176.58 1522.31 176.644 1522.28 176.732 1522.28C176.504 1521.85 176.346 1521.35 176.361 1520.86C176.368 1520.64 176.484 1519.94 176.848 1520.37C176.898 1520.42 176.948 1520.48 176.997 1520.55V1520.54C176.997 1520.54 177.002 1520.55 177.003 1520.55C177.014 1520.57 177.024 1520.58 177.036 1520.59C177.04 1520.58 177.045 1520.57 177.05 1520.56C176.202 1518.52 175.593 1516.39 175.624 1514.16C175.66 1511.65 176.701 1509.03 178.882 1507.71C177.73 1505.65 176.651 1503.54 175.646 1501.39C173.128 1502.49 170.32 1502.65 167.72 1501.98C168.309 1503.03 168.756 1504.17 169.043 1505.37C169.107 1505.64 169.4 1506.66 168.961 1506.79C168.83 1506.83 168.706 1506.75 168.595 1506.61C168.497 1506.98 168.226 1507.09 167.861 1506.45C167.747 1506.25 167.63 1506.05 167.513 1505.85C167.459 1505.84 167.395 1505.81 167.323 1505.73C167.298 1505.7 167.276 1505.67 167.252 1505.64C167.138 1505.65 167.019 1505.57 166.903 1505.39C166.782 1505.19 166.658 1505.01 166.535 1504.82C165.844 1504 165.181 1503.17 164.546 1502.31C164.964 1503.04 165.375 1503.78 165.777 1504.52C165.853 1504.61 165.922 1504.73 165.981 1504.84L167.122 1507.07C167.336 1507.49 167.727 1508.42 167.468 1508.88C167.207 1509.34 166.905 1508.96 166.718 1508.6C160.524 1496.52 152.394 1485.52 142.687 1476.04C142.262 1475.62 142.052 1474.9 142.019 1474.32C142.015 1474.27 142.015 1474.2 142.021 1474.12C137.961 1470.22 132.229 1467.93 127.235 1465.65C127.487 1465.94 127.662 1466.34 127.779 1466.68C127.845 1466.88 128.035 1467.66 127.719 1467.75C127.522 1467.8 127.358 1467.53 127.245 1467.27C127.206 1467.24 127.194 1467.23 127.121 1467.2C126.981 1467.13 126.857 1467.12 126.707 1467.15C126.37 1467.2 126.152 1466.5 126.09 1466.27C126.028 1466.05 125.976 1465.8 125.993 1465.56C126 1465.46 126.019 1465.23 126.152 1465.21C126.19 1465.2 126.227 1465.2 126.265 1465.2C122.452 1463.45 118.647 1461.67 114.814 1459.96C112.933 1459.13 111.032 1458.32 109.101 1457.6C109.586 1457.85 110.051 1458.16 110.495 1458.52C110.876 1458.83 111.149 1460.7 110.633 1460.29C109.523 1459.39 108.243 1458.84 106.88 1458.65C107.108 1459.22 107.252 1459.96 106.949 1459.95C106.72 1459.94 106.499 1459.92 106.281 1459.88C106.252 1460.02 106.195 1460.09 106.103 1460.05C106.034 1460.03 105.967 1460 105.898 1459.98C105.887 1459.98 105.877 1459.99 105.865 1459.99C105.792 1460.03 105.703 1459.98 105.608 1459.87C102.071 1458.54 98.3255 1458.09 94.5661 1458.55C94.0083 1458.62 93.5783 1456.67 94.01 1456.62C95.9787 1456.38 97.949 1456.38 99.8883 1456.63C99.5119 1456.44 99.1268 1456.27 98.7227 1456.14C95.6834 1455.17 92.3005 1456.33 89.3941 1454.87C88.6274 1454.96 87.8641 1455.07 87.1026 1455.21C86.3928 1455.34 85.7539 1452.74 86.3617 1452.63C90.7307 1451.84 95.2102 1451.78 99.593 1452.52C104.297 1453.3 108.785 1454.99 113.142 1456.88C117.513 1458.79 121.826 1460.83 126.159 1462.82C129.832 1464.5 133.58 1466.1 137.033 1468.21C140.544 1470.36 143.606 1473.07 145.619 1476.7C145.662 1476.78 145.711 1476.87 145.759 1476.98C151.132 1482.63 155.979 1488.75 160.244 1495.27C160.244 1495.26 160.244 1495.26 160.244 1495.25C160.251 1495.02 160.363 1494.33 160.731 1494.75C161.45 1495.57 162.147 1496.41 162.826 1497.26C162.86 1497.29 162.893 1497.32 162.928 1497.34C162.981 1497.35 163.045 1497.39 163.119 1497.47C163.135 1497.48 163.151 1497.5 163.166 1497.52C166.587 1500.02 171.269 1500.52 175.17 1498.69C175.401 1498.59 175.682 1499.09 175.743 1499.22C177.098 1502.17 178.592 1505.04 180.222 1507.84C180.414 1508.17 180.967 1509.66 180.39 1509.9C178.259 1510.78 177.01 1512.93 176.812 1515.18C176.579 1517.8 177.964 1520.29 179.114 1522.55C179.254 1522.82 179.468 1523.32 179.528 1523.76C179.632 1523.96 179.737 1524.17 179.836 1524.38C180.787 1525.48 181.467 1526.84 181.897 1528.23C182.863 1531.36 182.455 1534.61 181.749 1537.74C181.713 1537.9 181.645 1537.97 181.569 1537.98C181.787 1538.4 181.963 1538.83 182.117 1539.19C182.725 1540.61 183.222 1542.09 183.616 1543.59L183.621 1543.59ZM85.0355 1465.95C85.07 1465.93 85.1028 1465.92 85.1357 1465.9C85.0804 1465.81 85.0321 1465.7 84.9889 1465.58C84.9854 1465.58 84.9837 1465.59 84.982 1465.59C84.9716 1465.6 84.9612 1465.6 84.9526 1465.61C84.9664 1465.76 84.9578 1465.89 84.9215 1466C84.9595 1465.98 84.9992 1465.97 85.0372 1465.95L85.0355 1465.95ZM44.0499 1491.5C43.8462 1491.85 43.708 1492.22 43.8203 1492.52C43.8773 1492.67 44.0258 1492.82 44.2002 1492.94C44.0966 1492.47 44.0448 1491.98 44.0499 1491.5ZM47.5883 1493.97C47.8663 1493.98 48.1443 1493.98 48.4224 1493.97C48.2756 1493.88 48.134 1493.78 47.9941 1493.67C47.8611 1493.78 47.7264 1493.88 47.5883 1493.97ZM48.279 1487.63C48.2929 1487.68 48.3067 1487.74 48.3205 1487.8C48.4569 1487.61 48.5968 1487.42 48.7401 1487.23C48.5847 1487.36 48.431 1487.49 48.279 1487.63ZM56.7044 1483.51C56.3902 1483.6 56.0776 1483.71 55.7719 1483.85C55.8134 1483.93 55.8531 1484.01 55.8876 1484.1C55.9498 1484.13 56.0085 1484.16 56.0655 1484.2C56.2106 1484.12 56.3573 1484.05 56.5059 1483.99C56.815 1483.85 57.1344 1483.73 57.4539 1483.65C57.3797 1483.45 57.1638 1483.38 56.7044 1483.51ZM58.3346 1483.24C58.3502 1483.32 58.364 1483.41 58.3761 1483.5C58.7473 1483.5 59.0979 1483.57 59.4087 1483.74C59.9976 1483.72 60.5605 1483.9 60.9854 1484.39C61.0475 1484.47 61.1062 1484.54 61.1615 1484.62C61.329 1484.24 61.4862 1483.85 61.626 1483.46C60.583 1483.22 59.4433 1483.17 58.3346 1483.23V1483.24ZM63.2044 1475.38C62.9091 1474.94 62.5844 1474.51 62.2304 1474.1C62.1579 1474.11 62.0871 1474.12 62.0146 1474.13C62.0336 1474.39 62.0146 1474.6 61.9507 1474.69C62.2304 1474.94 62.4946 1475.23 62.745 1475.52C62.916 1475.72 63.0783 1475.92 63.2372 1476.12C63.1906 1475.85 63.1733 1475.57 63.2044 1475.38ZM65.2507 1474.16C65.2335 1474.13 65.2162 1474.07 65.1989 1474C65.1523 1473.99 65.1074 1473.98 65.0608 1473.98C65.1402 1474.06 65.2162 1474.15 65.2905 1474.24C65.2766 1474.21 65.2663 1474.19 65.2525 1474.16H65.2507ZM66.7151 1474.74C66.665 1474.69 66.6132 1474.65 66.5597 1474.61C66.7151 1474.89 66.8636 1475.16 67.0035 1475.45C66.912 1475.21 66.817 1474.98 66.7151 1474.74V1474.74ZM67.3213 1478.11C67.3592 1478.3 67.3972 1478.49 67.4318 1478.68C67.4421 1478.63 67.4525 1478.58 67.4629 1478.54C67.418 1478.39 67.3713 1478.25 67.323 1478.11H67.3213ZM68.5093 1486.59C68.7252 1486.29 68.9272 1485.98 69.1224 1485.67C68.9238 1485.98 68.7183 1486.29 68.5093 1486.59ZM62.5482 1464.83C61.8574 1464.9 61.1667 1464.97 60.4742 1465.03C61.664 1465.02 62.8521 1464.97 64.0402 1464.89C63.5429 1464.87 63.0455 1464.86 62.5482 1464.83ZM64.7983 1461.63C66.1988 1461.35 67.5993 1461.08 68.9998 1460.81C70.0739 1460.6 71.148 1460.39 72.2238 1460.18C69.7199 1460.48 67.2366 1460.96 64.7983 1461.63V1461.63ZM40.1558 1471.47C40.2595 1471.36 40.3613 1471.25 40.4615 1471.14C39.662 1471.58 38.8831 1472.06 38.1199 1472.57C37.961 1472.86 37.79 1473.15 37.6139 1473.42C38.4842 1472.8 39.3321 1472.15 40.1558 1471.47ZM27.617 1474.9C27.9451 1474.7 28.2732 1474.51 28.6048 1474.32C28.5893 1474.22 28.5772 1474.13 28.5754 1474.05C28.2318 1474.28 27.8881 1474.51 27.5428 1474.73C27.5687 1474.79 27.5928 1474.84 27.617 1474.9ZM20.7147 1479.61C20.8201 1479.55 20.9271 1479.49 21.0325 1479.43C21.0584 1479.35 21.0998 1479.28 21.1603 1479.24C21.6524 1478.87 22.148 1478.51 22.6488 1478.16C22.6402 1478.08 22.635 1478.01 22.6367 1477.94L19.499 1479.99C19.8979 1479.84 20.3037 1479.72 20.7147 1479.61ZM14.9211 1482.44C14.2942 1482.77 13.6535 1483.07 12.9973 1483.34C12.8229 1483.55 12.6502 1483.75 12.4758 1483.95C13.2788 1483.43 14.0939 1482.92 14.9228 1482.44L14.9211 1482.44ZM7.20023 1487.46C7.30902 1487.61 7.41263 1487.8 7.50243 1488.01C8.01704 1487.51 8.54892 1487.03 9.09461 1486.56C9.09979 1486.42 9.13087 1486.31 9.19822 1486.25C9.22412 1486.23 9.25175 1486.22 9.27938 1486.2L9.28284 1486.19C9.6403 1485.92 9.99949 1485.66 10.3621 1485.39C10.1204 1484.93 9.94595 1484.24 10.1566 1484C10.7645 1483.29 11.3706 1482.59 11.9785 1481.88C11.9819 1481.76 11.9958 1481.66 12.0251 1481.61C12.3014 1481.12 12.6105 1480.65 12.9438 1480.21C10.8647 1479.69 8.91156 1478.76 7.16742 1477.43C6.53193 1476.95 5.94479 1476.42 5.38701 1475.85C4.88622 1475.33 4.64791 1475.08 3.90709 1475.37C3.54445 1475.5 3.17316 1475.86 2.85542 1476.07C1.66388 1476.87 0.470613 1477.68 -0.720928 1478.48C2.23202 1481.18 4.88449 1484.19 7.20023 1487.46V1487.46ZM-16.4424 1529.17L-17.8273 1536.71C-17.1504 1534.24 -16.5097 1531.74 -16.4268 1529.2C-16.432 1529.19 -16.4372 1529.18 -16.4424 1529.17ZM-15.7223 1551.19C-15.7775 1551.72 -15.8276 1552.25 -15.8794 1552.78C-15.7482 1552.82 -15.6152 1552.85 -15.4805 1552.88C-15.5737 1552.31 -15.6549 1551.75 -15.7223 1551.19ZM6.5302 1608.3C6.37478 1608.23 6.21764 1608.17 6.05531 1608.12C6.08294 1608.21 6.11921 1608.29 6.16411 1608.38C7.94451 1610.5 9.84925 1612.51 11.8645 1614.4C10.0858 1612.37 8.30888 1610.34 6.5302 1608.3ZM10.4796 1609.42C9.99431 1608.86 9.5056 1608.31 9.01517 1607.76C8.71642 1607.43 7.74074 1606.6 7.41263 1607.16C7.58877 1607.3 7.76146 1607.44 7.93069 1607.59C9.20167 1608.72 10.3725 1609.98 11.5364 1611.21C13.0112 1612.78 14.4358 1614.39 15.8121 1616.04C14.1751 1613.72 12.3308 1611.53 10.4796 1609.42ZM19.9221 1623.54C19.8392 1623.32 19.7546 1623.1 19.6648 1622.88C19.6389 1622.96 19.5992 1623.01 19.5422 1623.01C19.3246 1623.01 19.1122 1622.99 18.9015 1622.97C19.2382 1623.17 19.5784 1623.36 19.9204 1623.54H19.9221ZM18.8445 1621.07C18.772 1620.92 18.7012 1620.77 18.6252 1620.62C18.5786 1620.79 18.4853 1620.92 18.3023 1620.73C18.0968 1620.51 17.8913 1620.29 17.6858 1620.07C17.7946 1620.59 17.7963 1621.07 17.4648 1620.81C15.8121 1619.55 14.2217 1618.21 12.6917 1616.81C14.2735 1618.86 16.1489 1621.02 18.8428 1621.07H18.8445ZM72.0857 1621.5C70.3847 1625.94 70.2915 1630.91 73.4517 1634.59C71.654 1630.51 71.1031 1625.86 72.0857 1621.5ZM74.7727 1631.66C74.6466 1631.01 74.5758 1630.35 74.5655 1629.69C74.4377 1629.67 74.322 1629.56 74.2253 1629.43C73.9611 1630.41 73.9162 1631.42 74.1942 1632.39C74.3444 1632.91 74.6156 1633.4 74.9488 1633.86C74.828 1633.13 74.7675 1632.4 74.771 1631.66L74.7727 1631.66ZM78.8205 1637.33C78.5701 1637.33 78.3214 1637.32 78.0745 1637.3C78.0227 1637.3 77.9726 1637.29 77.9225 1637.29C77.9277 1637.3 77.9329 1637.32 77.9381 1637.34C78.1988 1637.56 78.4976 1637.74 78.8412 1637.87C79.0519 1637.95 79.2712 1638.01 79.4957 1638.06C79.2574 1637.83 79.0329 1637.59 78.8222 1637.34L78.8205 1637.33ZM84.7661 1628.75C84.5054 1628.83 84.2532 1628.94 84.0046 1629.05C84.065 1629.14 84.1237 1629.23 84.1824 1629.33C84.2066 1629.37 84.2256 1629.42 84.2498 1629.46C84.5951 1629.33 84.9336 1629.21 85.2548 1629.1C85.8437 1628.89 86.5292 1628.66 87.2563 1628.47C86.436 1628.36 85.5846 1628.47 84.7678 1628.75H84.7661ZM100.802 1634.94C100.759 1634.72 100.734 1634.51 100.74 1634.33C100.109 1634.91 99.3754 1635.43 98.5966 1635.92C99.3202 1635.64 100.073 1635.31 100.8 1634.94H100.802ZM96.5451 1637.31C96.5434 1637.24 96.5451 1637.18 96.5486 1637.11C96.419 1637.19 96.2895 1637.26 96.16 1637.33C96.2878 1637.32 96.4173 1637.31 96.5451 1637.31ZM91.3973 1631.47C91.475 1631.42 91.5544 1631.37 91.6321 1631.33C91.6701 1631.3 91.7064 1631.28 91.7444 1631.25C91.6287 1631.23 91.5113 1631.2 91.3921 1631.18C91.3956 1631.28 91.3973 1631.37 91.3973 1631.47ZM90.4406 1628.07C91.2661 1628.13 92.0431 1628.35 92.6838 1628.84C93.0655 1629.13 93.3797 1629.48 93.6284 1629.87C93.6319 1629.87 93.6353 1629.87 93.6388 1629.86C93.7735 1629.75 93.9306 1629.56 94.0774 1629.45C93.979 1629.35 93.884 1629.25 93.8184 1629.2C92.8151 1628.4 91.5631 1627.96 90.2351 1627.76C90.3059 1627.86 90.375 1627.97 90.4406 1628.07V1628.07ZM89.0488 1631.3C89.0833 1631.4 89.1144 1631.5 89.1403 1631.6C89.2473 1631.48 89.344 1631.36 89.4338 1631.24C89.3061 1631.26 89.1783 1631.28 89.0505 1631.3H89.0488ZM98.5189 1624.73C95.951 1623.2 92.6786 1622.32 89.6048 1621.94C89.9778 1622.66 90.128 1623.83 89.9692 1624.22C90.7393 1624.39 91.5026 1624.57 92.259 1624.76C93.454 1625.05 94.7146 1625.35 95.6627 1626.19C96.7351 1627.14 97.2756 1628.7 97.3602 1630.1C97.4621 1631.8 96.7333 1633.08 95.6644 1634.12C96.6487 1633.59 97.6106 1633.02 98.5362 1632.39C99.9039 1631.46 101.399 1630.23 101.403 1628.42C101.405 1626.78 99.8037 1625.49 98.5224 1624.73L98.5189 1624.73ZM95.2724 1628.54C95.49 1628.95 95.6575 1629.37 95.7525 1629.79C95.8595 1629.52 95.8992 1629.26 95.9631 1628.99C95.939 1628.98 95.9096 1628.96 95.8733 1628.94C95.7145 1628.86 95.5729 1628.71 95.4175 1628.62C95.3691 1628.59 95.3207 1628.57 95.2707 1628.54H95.2724ZM117.95 1646.01C117.881 1645.75 117.837 1645.48 117.827 1645.24C117.784 1645.2 117.741 1645.15 117.699 1645.09C117.369 1645.22 117.038 1645.35 116.705 1645.48C117.133 1645.62 117.549 1645.8 117.951 1646.01L117.95 1646.01ZM124.681 1634.48C123.517 1633.36 121.41 1634.9 120.483 1635.63C120.222 1635.84 119.872 1636.12 119.519 1636.46C117.972 1637.62 116.119 1639.64 117.482 1640.94C119.198 1642.57 121.749 1640.22 122.971 1639.1C123.698 1638.43 124.645 1637.59 124.98 1636.62C125.208 1635.97 125.222 1635 124.681 1634.48V1634.48ZM141.053 1625.64C141.202 1625.64 141.35 1625.64 141.497 1625.63C141.468 1625.41 141.47 1625.2 141.511 1625.06C141.33 1625.14 141.148 1625.22 140.965 1625.3C141 1625.41 141.031 1625.53 141.055 1625.64H141.053ZM137.418 1620.91C137.379 1621.05 137.358 1621.21 137.327 1621.37L137.579 1621.37C137.885 1621.34 138.173 1621.24 138.448 1621.1C138.346 1620.94 138.27 1620.78 138.253 1620.73C138.061 1620.26 137.855 1619.54 138.113 1619.06C138.6 1618.14 139.097 1617.22 139.627 1616.32C138.643 1617.71 137.886 1619.26 137.418 1620.91ZM140.912 1618.17C140.824 1618.36 140.739 1618.56 140.66 1618.76C141.112 1618.46 141.54 1618.14 141.941 1617.78C142.67 1616.76 143.25 1615.65 143.67 1614.49C142.609 1615.59 141.717 1616.85 140.912 1618.17ZM146.616 1611.58C146.633 1611.71 146.643 1611.8 146.643 1611.84C146.642 1612.04 146.633 1612.25 146.621 1612.45C146.759 1612.11 146.882 1611.76 146.985 1611.41C146.883 1611.49 146.763 1611.55 146.617 1611.58L146.616 1611.58ZM152.238 1616.19C152.194 1615.55 151.418 1615.15 150.921 1615.65C150.639 1615.93 150.36 1616.22 150.092 1616.52C149.729 1616.74 149.393 1617 149.099 1617.31C147.579 1618.33 146.122 1619.85 147.003 1621.04C147.075 1621.38 147.419 1621.66 147.768 1621.66C149.949 1622.67 152.955 1619.18 152.238 1616.97C152.24 1616.91 152.235 1616.85 152.223 1616.8C152.245 1616.6 152.252 1616.4 152.238 1616.2V1616.19ZM164.342 1604.84C164.019 1605.36 163.693 1605.87 163.359 1606.38C163.724 1605.94 164.083 1605.5 164.442 1605.06C164.408 1604.99 164.373 1604.92 164.342 1604.84V1604.84ZM182.851 1545.01C182.901 1545.19 182.953 1545.37 183.004 1545.56C182.915 1545 182.795 1544.44 182.65 1543.89C182.721 1544.26 182.788 1544.64 182.851 1545.01V1545.01ZM173.717 1523.68C173.75 1524.19 173.788 1524.71 173.833 1525.22C173.862 1525.19 173.899 1525.16 173.942 1525.15C173.983 1524.74 174.033 1524.34 174.09 1523.94C173.978 1523.84 173.854 1523.76 173.717 1523.69V1523.68ZM176.161 1533.37C175.967 1533.08 175.84 1532.65 175.786 1532.48C175.605 1531.92 175.422 1531.36 175.24 1530.79C175.403 1532.38 175.783 1533.92 176.373 1535.39C176.318 1534.72 176.247 1534.04 176.161 1533.37ZM176.475 1540.7C176.446 1540.62 176.416 1540.55 176.387 1540.47C175.021 1538.85 174.551 1535.59 174.277 1534.1C174.189 1533.63 174.114 1533.15 174.049 1532.67C173.246 1529.19 172.738 1525.64 172.534 1522.06C171.56 1522.69 172.191 1524.73 172.301 1525.64C172.476 1527.08 172.662 1528.51 172.885 1529.95C173.286 1532.51 173.793 1535.05 174.572 1537.53C174.803 1538.27 175.463 1541.2 176.409 1541.28C176.517 1541.29 176.622 1541.27 176.727 1541.25C176.622 1541.04 176.537 1540.85 176.473 1540.7H176.475ZM101.971 1455.44C101.389 1455.31 100.805 1455.2 100.218 1455.1C101.601 1455.92 102.89 1456.95 104.347 1457.55C104.257 1457.11 104.276 1456.69 104.468 1456.67C105.28 1456.6 106.071 1456.64 106.836 1456.79C105.238 1456.26 103.62 1455.79 101.973 1455.44H101.971ZM178.404 1537.89C178.444 1537.92 178.483 1537.96 178.521 1538C178.518 1537.89 178.518 1537.79 178.521 1537.69C178.458 1537.59 178.401 1537.47 178.352 1537.34C178.369 1537.53 178.388 1537.71 178.404 1537.89ZM176.993 1529.27C177.005 1529.32 177.019 1529.37 177.031 1529.43C177.437 1531.11 177.762 1532.8 178.01 1534.51C177.834 1532.73 177.471 1530.99 176.991 1529.27H176.993ZM177.269 1525.99C177.983 1527.82 178.561 1529.69 179 1531.6C178.609 1529.66 178.081 1527.76 177.269 1525.99ZM180.131 1538.83C180.131 1538.83 180.124 1538.83 180.12 1538.83C180.103 1539.12 180.072 1539.4 180.032 1539.69C180.229 1539.95 180.419 1540.21 180.601 1540.48C180.445 1539.93 180.288 1539.38 180.131 1538.83V1538.83ZM181.986 1546.01C181.695 1544.8 181.205 1543.65 180.537 1542.6C180.668 1543.09 180.796 1543.57 180.92 1544.06C181.334 1544.88 181.711 1545.71 182.051 1546.56C182.03 1546.38 182.01 1546.19 181.986 1546.01Z" fill="black"/>
<path fill-rule="evenodd" clip-rule="evenodd" d="M75.2269 1646.59C75.037 1646.59 74.8488 1646.58 74.6605 1646.57C75.1043 1646.53 75.5481 1646.48 75.9868 1646.42C76.2268 1646.39 76.4081 1646.27 76.5307 1646.11C76.8865 1646.15 77.2439 1646.18 77.5997 1646.21C76.8744 1646.55 76.0075 1646.6 75.2269 1646.59V1646.59Z" fill="black"/>
<path fill-rule="evenodd" clip-rule="evenodd" d="M174.436 1584.79C174.519 1584.6 174.6 1584.4 174.681 1584.2C174.639 1584.44 174.591 1584.68 174.538 1584.92C174.506 1584.87 174.47 1584.83 174.436 1584.79Z" fill="black"/>
<path fill-rule="evenodd" clip-rule="evenodd" d="M170.913 1593.29C170.702 1593.55 170.472 1593.77 170.219 1593.94C170.112 1594.01 170.046 1594.03 170.058 1594.03C170.025 1594.04 169.913 1594.06 169.904 1594.06C169.851 1594.07 169.868 1594.05 169.861 1594.05C169.773 1593.98 169.706 1593.93 169.642 1593.86C169.913 1593.69 170.167 1593.47 170.402 1593.25C170.574 1593.29 170.745 1593.3 170.913 1593.29Z" fill="black"/>
<path fill-rule="evenodd" clip-rule="evenodd" d="M170.813 1588.77C170.73 1589.14 170.633 1589.59 170.485 1590.03C170.426 1590.09 170.365 1590.14 170.305 1590.2C170.479 1589.54 170.617 1588.88 170.761 1588.22C170.858 1587.98 170.958 1587.75 171.053 1587.51C170.985 1587.94 170.908 1588.36 170.811 1588.77H170.813Z" fill="black"/>
<path fill-rule="evenodd" clip-rule="evenodd" d="M118.241 1463.89C117.219 1462.72 115.858 1462.02 114.309 1461.9C113.693 1461.86 113.427 1459.94 113.753 1459.97C115.463 1460.1 116.965 1460.83 118.103 1462.12C118.406 1462.46 118.578 1462.95 118.604 1463.41C118.614 1463.58 118.549 1464.24 118.241 1463.89Z" fill="black"/>
</g>
<g opacity="0.7">
<path d="M227.137 1090.24C228.918 1088.18 233.603 1083.84 239.013 1078.99C242.304 1076.04 247.067 1080.3 244.501 1083.9C228.424 1106.39 206.838 1136.31 202.391 1141.07L193.027 1151.11L183.663 1141.07C196.372 1127.69 218.444 1100.27 227.137 1090.24Z" fill="#515092"/>
<path d="M191.317 1155.44C189.675 1156.28 187.509 1155.94 185.552 1155.08C184.997 1155.4 183.918 1154.9 183.479 1154.65C180.25 1152.87 178.231 1149.53 179.279 1145.83C180.234 1142.45 183.248 1140.14 186.793 1140.42C190.261 1140.69 194.022 1143.42 195.054 1146.81C195.956 1149.75 194.068 1154.04 191.317 1155.44Z" fill="#BAA4FF"/>
</g>
<g opacity="0.7">
<path d="M220.887 1169.54C222.668 1167.48 227.353 1163.14 232.763 1158.29C236.054 1155.34 240.817 1159.6 238.251 1163.2C229.588 1175.32 219.331 1189.6 211.007 1200.92C203.886 1210.63 192.372 1203.59 200.526 1193.86C208.765 1184.02 216.518 1174.58 220.887 1169.54Z" fill="#515092"/>
<path d="M202.699 1206.78C201.381 1206.38 200.217 1205.54 199.162 1204.52C198.676 1204.05 198.19 1203.57 197.851 1202.99C196.88 1201.33 197.081 1199.11 197.443 1197.25C197.828 1195.24 199.077 1193.47 200.919 1192.39C203.947 1190.62 207.678 1190.93 209.966 1193.4C212.209 1195.81 212.941 1200.15 211.3 1203.21C210.236 1205.18 207.893 1206.46 205.735 1206.91C204.633 1207.14 203.624 1207.06 202.691 1206.77L202.699 1206.78Z" fill="#BAA4FF"/>
</g>
<g opacity="0.7">
<path d="M944.25 1014.17C943.318 1012.81 945.206 1011.27 946.416 1012.38C954.639 1019.96 970.877 1035.79 975.139 1040.7C981.458 1047.99 997.496 1067.92 1006.73 1077.64C1015.96 1087.36 1054.28 1129.03 1054.28 1129.03L1041.73 1138.88C1041.73 1138.88 999.924 1084.93 993.119 1077.64C987.007 1071.09 960.064 1037.3 944.25 1014.17Z" fill="#515092"/>
<path d="M1054.97 1125.85C1053.33 1124.03 1050.49 1123.42 1047.66 1123.55C1047.12 1122.89 1045.54 1123 1044.88 1123.1C1040.04 1123.77 1035.94 1126.96 1035.48 1132.05C1035.07 1136.69 1037.71 1140.99 1042.23 1142.33C1046.66 1143.64 1052.62 1142.05 1055.51 1138.34C1058.02 1135.11 1057.72 1128.91 1054.97 1125.85V1125.85Z" fill="#BAA4FF"/>
</g>
</svg>
