<svg width="334" height="579" viewBox="0 0 334 579" fill="none" xmlns="http://www.w3.org/2000/svg">
<path d="M267.917 515.674C267.917 515.674 273.937 504.965 287.418 504.965C300.899 504.965 304.643 510.319 304.643 510.319C304.643 510.319 308.833 511.312 312.006 516.072C315.179 520.832 315.971 527.175 316.766 528.761C317.561 530.348 319.144 539.864 315.179 547.007C311.215 554.145 300.108 562.078 293.761 562.87C287.414 563.661 281.071 561.283 278.689 559.696C276.311 558.11 270.464 556.33 268.378 554.936C265.999 553.349 258.857 544.625 260.444 535.9C262.031 527.175 262.031 525.588 262.822 522.415C263.613 519.241 267.909 515.674 267.909 515.674H267.917Z" fill="#5D13D1"/>
<path d="M317.459 531.604C317.254 530.21 316.982 529.195 316.766 528.765C316.435 528.1 316.1 526.6 315.592 524.734C315.277 525.041 315.002 525.395 314.781 525.761C314.707 525.828 314.628 525.895 314.549 525.954C314.537 525.962 314.514 525.986 314.486 526.009C314.466 526.025 314.447 526.041 314.423 526.057L314.431 526.049C314.396 526.08 314.348 526.104 314.309 526.135C314.132 526.249 313.955 526.36 313.77 526.462C313.423 526.655 313.124 527.017 312.899 527.328C312.73 527.564 312.569 527.832 312.431 528.112C311.691 528.738 310.966 529.419 310.246 530.12C306.71 533.537 303.608 537.348 300.942 541.483C300.513 542.148 300.099 542.825 299.694 543.506C299.422 543.518 299.064 543.841 298.859 544.061C298.462 544.495 298.08 544.939 297.706 545.392C297.678 545.373 297.654 545.345 297.619 545.329C297.08 545.125 296.288 546.424 296.123 546.715C295.926 547.07 295.745 547.432 295.556 547.79C295.28 548.022 295.032 548.361 294.926 548.503C294.906 548.53 294.887 548.562 294.863 548.589C294.599 548.507 294.284 548.735 294.009 549.046C293.761 548.719 293.209 549.164 292.942 549.479C292.339 550.188 291.729 550.889 291.111 551.586C290.835 551.483 290.394 551.849 290.166 552.117C289.311 553.133 288.422 554.113 287.5 555.066C287.465 555.094 287.429 555.121 287.39 555.157C286.847 555.68 286.303 556.208 285.76 556.731C285.603 556.653 285.362 556.731 285.087 556.952C283.583 558.161 282.173 559.46 280.819 560.83C283.886 562.188 288.819 563.492 293.761 562.874C294.304 562.807 294.887 562.669 295.493 562.503C296.458 556.598 298.308 550.904 301.304 545.672C304.127 540.735 310.765 530.159 317.459 531.608V531.604Z" fill="#240057"/>
<path d="M304.045 535.498C302.785 532.994 299.607 532.592 297.214 533.577C296.422 533.903 295.71 534.36 295.056 534.903C295.111 534.754 295.162 534.584 295.194 534.423C295.363 534.061 295.544 533.699 295.706 533.332C295.871 532.958 296.324 531.939 295.757 531.722C295.217 531.513 294.426 532.817 294.261 533.108C293.564 534.34 292.843 535.577 292.083 536.785C292.359 536.274 292.619 535.75 292.847 535.218C292.93 535.025 293.213 534.348 293.06 534.057C293.083 533.982 293.115 533.915 293.135 533.84C293.217 533.561 293.418 532.765 292.859 532.931C292.394 533.069 291.977 533.695 291.749 534.167C291.69 534.096 291.599 534.061 291.442 534.108C291.186 534.187 290.946 534.407 290.745 534.671C290.623 534.71 290.497 534.797 290.379 534.907C290.426 534.809 290.473 534.714 290.52 534.616C290.638 534.372 291.064 533.305 290.481 533.313C290.386 533.313 290.296 533.348 290.205 533.399C288.902 535.585 287.284 537.573 285.571 539.447C285.071 539.994 284.54 540.514 284.044 541.065C283.681 541.518 283.323 541.967 282.953 542.412C282.878 542.597 282.823 542.782 282.788 542.971C282.756 543.148 282.705 543.459 282.894 543.569C283.079 543.676 283.347 543.471 283.465 543.365C283.918 542.959 284.366 542.553 284.819 542.148C284.902 542.073 284.981 541.979 285.059 541.892C285.181 541.994 285.398 541.923 285.65 541.742C285.886 541.573 286.103 541.384 286.331 541.203C286.315 541.27 286.288 541.333 286.276 541.4C286.26 541.49 286.241 541.62 286.252 541.738C286.174 541.931 286.115 542.124 286.079 542.321C285.977 542.916 286.288 543.085 286.76 542.715C286.788 542.695 286.811 542.672 286.839 542.648C287.008 542.652 287.193 542.502 287.304 542.42C288.17 541.77 288.969 541.026 289.693 540.211C287.626 542.845 285.17 545.109 281.977 546.502C278.779 547.9 274.901 548.007 271.744 546.605C271.188 546.254 270.649 545.873 270.149 545.416C268.086 543.542 266.747 541.057 266.023 538.396C266.125 538.222 266.196 538.053 266.18 537.943C265.125 531.246 267.377 524.797 271.807 520.017C271.649 520.288 271.492 520.56 271.358 520.859C271.291 521.005 271.263 521.107 271.248 521.194C272.145 519.721 273.448 518.477 274.846 517.501C275.771 516.855 276.815 516.312 277.909 515.954C277.988 515.914 278.071 515.875 278.146 515.835C279.654 515.095 281.051 514.481 282.764 514.741C284.236 514.965 285.772 515.347 287.13 515.965C289.863 517.202 291.111 519.41 291.477 521.93C291.461 521.954 291.442 521.974 291.426 521.997C291.359 522.056 291.296 522.119 291.257 522.163C291.257 522.155 291.257 522.151 291.257 522.143C291.245 521.895 291.079 521.974 290.946 522.064C290.894 522.021 290.847 521.977 290.796 521.934C290.768 521.911 290.733 521.911 290.697 521.914C290.682 521.895 290.67 521.879 290.654 521.855C290.599 521.769 290.512 521.781 290.414 521.844C290.335 521.292 290.241 520.737 290.099 520.182C290.024 519.891 289.571 520.426 289.528 520.493C289.351 520.733 289.127 521.119 289.209 521.434C289.607 523.009 289.717 524.568 289.611 526.104L289.402 526.978C289.457 526.553 289.504 526.123 289.532 525.694C289.556 525.36 289.493 525.159 289.382 525.049C288.611 519.627 281.614 519.135 277.023 521.989C272.909 524.548 269.535 529.454 268.869 534.447C268.747 532.541 269.125 530.506 269.574 528.895C270.618 525.182 272.826 521.816 276.252 519.918C278.087 518.903 280.15 518.367 282.248 518.458C282.453 518.465 282.768 517.769 282.567 517.757C273.866 517.387 268.192 526.722 268.385 534.577C268.405 535.38 268.531 536.199 268.779 536.967C268.791 537.175 268.799 537.388 268.822 537.596C269.121 540.175 270.452 543.349 273.011 544.471C275.771 545.68 278.831 543.912 280.973 542.227C282.437 541.077 283.725 539.719 284.847 538.23V538.242C284.807 538.388 284.764 538.53 284.721 538.667C285.725 537.356 286.717 536.037 287.685 534.699C287.882 534.427 288.075 534.155 288.272 533.884C288.249 533.797 288.26 533.699 288.331 533.612C288.949 532.852 289.359 531.939 289.788 531.065C290.249 530.135 290.78 529.25 291.146 528.277C291.52 527.293 291.788 526.273 292.056 525.253C292.205 524.69 292.402 524.135 292.564 523.576C292.576 523.407 292.583 523.237 292.587 523.064C292.674 519.855 291.465 516.489 288.524 514.879C287.008 514.048 285.185 513.599 283.484 513.339C281.721 513.071 280.28 513.674 278.724 514.434C278.303 514.638 277.886 514.855 277.472 515.076C277.74 514.658 277.945 514.186 278.067 513.8C278.213 513.355 278.382 512.351 277.598 512.709C273.618 514.536 270.015 517.182 267.436 520.757C265.129 523.958 263.85 527.706 263.318 531.576C263.326 527.076 264.846 522.611 267.783 519.135C267.791 519.627 268.637 518.572 268.696 518.233C268.72 518.166 268.743 518.099 268.767 518.032C269.019 517.71 269.31 516.556 268.633 517.249C265.259 520.702 263.137 525.277 262.558 530.029C262.471 530.206 262.405 530.391 262.381 530.525C261.767 533.856 262.019 537.234 263.141 540.431C263.18 540.545 263.334 540.459 263.503 540.282C263.83 541.845 264.334 543.365 265.07 544.778C264.94 545.156 264.905 545.498 265.031 545.719C266.172 547.723 267.818 549.113 269.708 549.975C271.944 551.42 274.594 552.093 277.398 551.782C278.846 551.621 280.224 551.227 281.532 550.66C281.461 550.739 281.406 550.806 281.386 550.829C281.28 550.963 281.173 551.109 281.075 551.259C276.409 553.271 270.905 552.676 266.787 549.574C265.566 548.652 264.499 547.542 263.629 546.286C263.511 546.117 263.066 546.743 263.184 546.912C263.657 547.593 264.184 548.215 264.755 548.794C264.7 548.9 264.665 549.003 264.688 549.073C265.208 550.57 266.188 551.778 267.417 552.68C267.18 552.648 266.944 552.625 266.696 552.621C266.531 552.621 266.354 552.688 266.176 552.798C266.397 553.054 266.61 553.29 266.814 553.507L266.822 553.515C267.023 553.727 267.22 553.924 267.401 554.097C267.409 554.105 267.421 554.113 267.428 554.121C267.606 554.29 267.779 554.444 267.932 554.574C267.944 554.582 267.952 554.59 267.96 554.597C268.117 554.727 268.263 554.838 268.393 554.924C270.48 556.314 276.327 558.098 278.705 559.684C279.685 560.338 281.343 561.121 283.39 561.767C283.28 558.917 283.063 555.783 283.736 555.216C286.052 553.275 288.371 551.33 290.532 549.219C291.733 548.046 292.887 546.821 293.985 545.55C294.162 545.345 294.339 545.136 294.58 545.018C294.879 544.869 295.221 544.876 295.56 544.872C295.631 544.872 295.702 544.872 295.773 544.872C296.556 544.841 296.808 544.353 297.174 543.758C297.34 543.49 298.359 542.073 298.096 541.75C298.115 541.774 298.139 541.797 298.159 541.821C298.509 542.25 299.521 540.809 299.607 540.671C299.647 540.608 299.69 540.538 299.733 540.467C299.832 540.581 299.938 540.687 300.033 540.805C300.604 541.522 301.564 540.018 302.017 538.817C302.139 538.786 302.257 538.762 302.387 538.707C303.155 538.384 304.494 536.356 304.056 535.486L304.045 535.498ZM274.212 553.901C273.673 553.904 273.133 553.889 272.598 553.83C269.822 553.527 267.094 552.109 265.688 549.688C268.917 552.436 273.267 553.704 277.539 552.948C276.445 553.361 275.334 553.7 274.212 553.901Z" fill="#240057"/>
<path d="M294.974 522.096C294.914 522.108 294.855 522.115 294.796 522.131C294.741 522.147 294.686 522.167 294.631 522.186C294.611 522.194 294.592 522.202 294.576 522.214C294.462 522.269 294.344 522.285 294.229 522.277C294.355 523.781 294.111 525.364 293.804 526.769C293.403 528.612 292.792 530.549 291.714 532.132C291.745 532.136 291.765 532.151 291.804 532.147C292.324 532.108 292.851 531.238 293.064 530.765C293.296 530.494 293.493 530.175 293.56 530.061C294.761 528.009 295.911 525.596 295.434 523.159C295.371 522.828 295.261 522.348 294.977 522.1L294.974 522.096Z" fill="#240057"/>
<path d="M302.568 524.434C302.202 523.879 301.557 523.218 300.816 523.458C300.407 523.592 300.08 523.871 299.804 524.202C299.596 524.399 299.411 524.627 299.253 524.848C298.871 525.383 298.588 525.982 298.419 526.615C298.222 527.356 298.253 528.096 298.426 528.84C298.576 529.486 298.942 530.159 299.564 530.454C300.407 530.852 301.202 530.439 301.781 529.797C303.037 528.399 303.679 526.112 302.568 524.438V524.434Z" fill="#240057"/>
<path d="M298.611 552.672C297.6 555.743 296.926 558.928 296.607 562.153C297.202 561.944 297.816 561.696 298.442 561.413C298.391 560.173 298.379 558.932 298.426 557.692C298.607 555.96 298.903 554.243 299.328 552.562C300.529 548.822 302.253 545.258 304.466 541.987C304.683 541.719 304.899 541.447 305.131 541.187C305.222 541.085 305.32 540.884 305.391 540.675C305.557 540.451 305.718 540.223 305.887 540.002C306.285 539.486 306.297 538.506 305.635 539.368C305.151 539.998 304.69 540.648 304.242 541.301C301.541 544.664 299.718 548.554 298.615 552.668L298.611 552.672Z" fill="#240057"/>
<path d="M302.982 547.022C303.037 546.916 303.092 546.81 303.147 546.703C303.249 546.514 303.301 546.361 303.316 546.235C303.462 545.908 303.616 545.585 303.773 545.266C303.856 545.101 304.029 544.672 303.753 544.617C303.497 544.565 303.171 545.215 303.096 545.365C302.808 545.947 302.541 546.538 302.289 547.133C300.005 551.507 298.816 556.354 298.836 561.232C299.143 561.09 299.45 560.936 299.761 560.779C299.741 560.051 299.749 559.318 299.785 558.594C299.765 559.314 299.769 560.039 299.796 560.763C300.115 560.602 300.434 560.444 300.757 560.263C300.497 555.743 301.23 551.211 302.978 547.018L302.982 547.022Z" fill="#240057"/>
<path d="M296.399 529.112C296.379 529.072 296.344 529.061 296.297 529.069L296.198 529.104C296.127 529.147 296.068 529.206 296.009 529.265C295.997 529.273 295.982 529.277 295.97 529.289C295.93 529.328 295.891 529.368 295.852 529.407C295.761 529.51 295.686 529.62 295.619 529.734C295.529 529.899 295.446 530.073 295.411 530.262C295.387 530.38 295.363 530.494 295.34 530.612L295.328 530.746C295.32 530.801 295.336 530.844 295.371 530.88C295.383 530.907 295.403 530.919 295.434 530.915C295.482 530.931 295.529 530.919 295.572 530.884L295.682 530.805C295.722 530.766 295.761 530.726 295.8 530.687C295.867 530.612 295.926 530.533 295.978 530.447C296.037 530.36 296.088 530.265 296.131 530.171C296.194 530.017 296.257 529.864 296.316 529.714C296.356 529.632 296.387 529.545 296.407 529.454C296.43 529.384 296.442 529.313 296.442 529.238C296.45 529.183 296.434 529.139 296.399 529.104V529.112Z" fill="#240057"/>
<path d="M270.791 514.906C272.736 513.694 274.547 512.28 276.457 511.02C276.433 510.993 276.402 510.973 276.346 510.981C276.173 511.012 276 511.052 275.827 511.091C275.807 511.048 275.768 511.028 275.705 511.04C275.146 511.17 274.606 511.367 274.09 511.611C273.925 511.674 273.764 511.753 273.602 511.823C273.559 511.898 273.496 511.965 273.409 512.024C273.142 512.201 272.874 512.383 272.606 512.571C271.752 513.257 271.094 514.15 270.437 515.044C270.464 515.103 270.511 515.154 270.547 515.209C270.586 515.095 270.657 514.989 270.787 514.906H270.791Z" fill="#240057"/>
<path d="M282.599 515.308C277.051 516.001 272.46 519.725 269.602 524.395C266.578 529.34 265.149 536.1 268.145 541.38C268.334 541.711 269.252 540.502 269.039 540.128C266.318 535.333 267.295 529.214 270.086 524.671C272.677 520.45 277.004 517.324 281.965 516.706C282.402 516.65 282.941 515.265 282.603 515.308H282.599Z" fill="#240057"/>
<path d="M332.814 490.173C328.719 486.078 314.754 492.996 298.103 506.425C299.403 506.843 300.466 507.311 301.336 507.772C312.624 499.425 321.687 495.476 324.601 498.39C327.515 501.303 323.447 510.638 314.837 522.167C310.163 528.423 304.171 535.337 297.253 542.254C290.623 548.885 283.996 554.668 277.949 559.251C266.062 568.26 256.412 572.626 253.392 569.602C250.53 566.74 254.29 557.94 262.342 546.924C261.838 545.873 261.389 544.754 261.034 543.589C247.86 560.027 241.12 573.764 245.171 577.815C249.341 581.985 263.755 574.732 280.811 560.81C286.717 555.991 292.934 550.377 299.159 544.152C305.383 537.927 311.037 531.663 315.872 525.738C329.759 508.709 336.987 494.33 332.822 490.165L332.814 490.173Z" fill="#240057"/>
<path d="M332.814 490.173C328.719 486.078 314.754 492.996 298.103 506.425C299.403 506.843 300.466 507.311 301.336 507.772C312.624 499.425 321.687 495.476 324.601 498.39C327.515 501.303 323.447 510.638 314.837 522.167C310.911 527.419 306.049 533.136 300.497 538.931C299.438 540.038 298.359 541.144 297.253 542.254C290.623 548.885 283.996 554.668 277.949 559.251C277.874 559.306 277.803 559.358 277.728 559.417C283.095 556.302 289.288 551.924 295.883 546.538C297.729 545.03 299.611 543.435 301.509 541.778C306.824 536.329 311.651 530.915 315.872 525.742C318.412 522.627 320.723 519.607 322.79 516.717C332.019 503.799 336.228 493.574 332.822 490.173H332.814Z" fill="#5D13D1"/>
<g opacity="0.7">
<path d="M36.2003 9.20467C37.5391 7.65723 41.0628 4.38848 45.1314 0.743034C47.6061 -1.47669 51.1878 1.72832 49.2578 4.43488C37.1682 21.3523 20.9346 43.8509 17.5905 47.4326L10.5489 54.9785L3.50719 47.4326C13.0642 37.3714 29.6628 16.7506 36.2003 9.20467Z" fill="#515092"/>
<path d="M9.26238 58.2356C8.02791 58.8674 6.39935 58.6124 4.92727 57.9691C4.50998 58.2067 3.69859 57.8299 3.36824 57.6445C0.939877 56.3057 -0.578584 53.7904 0.209621 51.0085C0.928278 48.47 3.19437 46.7313 5.86035 46.94C8.46838 47.1428 11.2966 49.2003 12.0733 51.7446C12.7513 53.9585 11.3314 57.1808 9.26238 58.2356Z" fill="#BAA4FF"/>
</g>
<g opacity="0.7">
<path d="M66.8553 87.2046C68.1941 85.6572 71.7179 82.3885 75.7864 78.743C78.2611 76.5233 81.8428 79.7283 79.9129 82.4348C73.3986 91.5456 65.6846 102.285 59.4254 110.804C54.0702 118.101 45.4115 112.81 51.5433 105.49C57.7388 98.0946 63.5692 90.995 66.8553 87.2046Z" fill="#515092"/>
<path d="M53.1773 115.209C52.1863 114.908 51.3112 114.276 50.5172 113.511C50.152 113.158 49.7869 112.792 49.5319 112.358C48.8016 111.106 48.9523 109.437 49.2247 108.04C49.5145 106.527 50.4534 105.2 51.8386 104.389C54.1162 103.056 56.9213 103.288 58.6426 105.142C60.3291 106.956 60.8797 110.225 59.6453 112.52C58.8455 114.004 57.0836 114.966 55.4608 115.302C54.632 115.476 53.8728 115.418 53.1715 115.203L53.1773 115.209Z" fill="#BAA4FF"/>
</g>
<path opacity="0.7" d="M259.291 76.169C259.291 75.4755 258.866 74.905 257.993 74.5247C257.613 74.357 257.187 74.2563 256.74 74.2004C256.695 73.8648 256.46 73.574 255.89 73.3727C252.555 72.1982 246.502 73.8201 246.055 77.9474C245.764 80.6207 246.592 83.0143 249.4 83.7414C252.589 84.5691 257.545 83.3946 259.391 80.4417C260.287 79.01 260.141 77.3994 259.302 76.169H259.291Z" fill="#A079FF"/>
<path opacity="0.7" d="M202.794 23.7493C202.67 22.8694 201.912 21.6467 200.985 21.441C200.929 21.3268 200.884 21.2125 200.816 21.0982C199.018 17.9328 194.902 17.5557 191.714 18.3671C188.435 19.2013 185.303 21.7039 185.021 25.3035C184.761 28.5831 186.988 32.2741 189.724 33.9768C192.958 35.9765 197.537 34.8224 200.25 32.4341C203.077 29.9429 203.292 27.3032 202.783 23.7607L202.794 23.7493Z" fill="#A079FF"/>
</svg>
