<svg width="1436" height="678" viewBox="0 0 1436 678" fill="none" xmlns="http://www.w3.org/2000/svg">
<g opacity="0.5">
<path d="M708.597 450.6C710.124 448.836 714.142 445.108 718.782 440.951C721.604 438.42 725.688 442.075 723.487 445.161C709.701 464.453 691.188 490.11 687.375 494.195L679.345 502.8L671.315 494.195C682.213 482.721 701.142 459.206 708.597 450.6Z" fill="#515092"/>
<path d="M677.878 506.514C676.47 507.234 674.613 506.944 672.934 506.21C672.458 506.481 671.533 506.051 671.156 505.84C668.387 504.313 666.655 501.445 667.554 498.272C668.374 495.378 670.958 493.395 673.998 493.633C676.972 493.864 680.197 496.21 681.083 499.112C681.856 501.637 680.237 505.311 677.878 506.514Z" fill="#BAA4FF"/>
</g>
<g opacity="0.5">
<path d="M63.2501 59.1681C62.3176 57.8117 64.2058 56.2704 65.4157 57.3801C73.6388 64.9559 89.877 80.7856 94.1389 85.7025C100.458 92.9931 116.496 112.923 125.729 122.641C134.962 132.359 173.28 174.03 173.28 174.03L160.725 183.879C160.725 183.879 118.924 129.932 112.119 122.641C106.007 116.09 79.0644 82.2961 63.2501 59.1681Z" fill="#515092"/>
<path d="M173.973 170.847C172.331 169.028 169.487 168.419 166.659 168.55C166.12 167.887 164.54 168.003 163.885 168.095C159.037 168.774 154.937 171.956 154.482 177.051C154.066 181.69 156.71 185.991 161.234 187.331C165.657 188.642 171.622 187.046 174.512 183.339C177.025 180.11 176.724 173.906 173.973 170.854V170.847Z" fill="#BAA4FF"/>
</g>
<g opacity="0.5">
<path d="M1417.74 69.2399C1419.52 67.1822 1424.21 62.8356 1429.62 57.9881C1432.91 55.0364 1437.67 59.2982 1435.11 62.8973C1426.44 75.0123 1416.19 89.2929 1407.86 100.622C1400.74 110.325 1389.23 103.288 1397.38 93.5547C1405.62 83.7209 1413.37 74.2802 1417.74 69.2399Z" fill="#515092"/>
<path d="M1399.55 106.479C1398.24 106.078 1397.07 105.238 1396.02 104.221C1395.53 103.751 1395.05 103.266 1394.71 102.687C1393.74 101.023 1393.94 98.8032 1394.3 96.9459C1394.68 94.9344 1395.93 93.1696 1397.77 92.0907C1400.8 90.3181 1404.53 90.6263 1406.82 93.0925C1409.07 95.5047 1409.8 99.8513 1408.16 102.903C1407.09 104.876 1404.75 106.156 1402.59 106.602C1401.49 106.834 1400.48 106.757 1399.55 106.471L1399.55 106.479Z" fill="#BAA4FF"/>
</g>
<path opacity="0.5" d="M357.709 51.169C357.709 50.4755 358.134 49.905 359.007 49.5247C359.387 49.357 359.813 49.2563 360.26 49.2004C360.305 48.8648 360.54 48.574 361.11 48.3727C364.445 47.1982 370.498 48.8201 370.945 52.9474C371.236 55.6207 370.408 58.0143 367.6 58.7414C364.411 59.5691 359.455 58.3946 357.609 55.4417C356.713 54.01 356.859 52.3994 357.698 51.169H357.709Z" fill="#A079FF"/>
<path opacity="0.5" d="M380.206 5.74929C380.33 4.86939 381.088 3.64671 382.015 3.44102C382.071 3.32675 382.116 3.21249 382.184 3.09822C383.982 -0.0671501 388.098 -0.444268 391.286 0.367071C394.565 1.20127 397.697 3.70386 397.979 7.30346C398.239 10.5831 396.012 14.2741 393.276 15.9768C390.042 17.9765 385.463 16.8224 382.75 14.4341C379.923 11.9429 379.708 9.3032 380.217 5.76073L380.206 5.74929Z" fill="#A079FF"/>
<path d="M68.2021 627.261C68.2021 627.261 83.2666 636.732 100.427 627.415C117.587 618.098 118.652 608.694 118.652 608.694C118.652 608.694 123.299 604.536 124.049 596.283C124.798 588.031 121.422 579.41 121.338 576.841C121.253 574.271 116.691 561.064 106.708 554.713C96.7278 548.367 77.1066 545.945 68.4807 549.324C59.8548 552.703 53.4245 560.114 51.489 563.78C49.5586 567.443 43.3461 573.749 41.6532 576.966C39.7227 580.629 36.6615 596.671 44.7113 606.68C52.7611 616.69 53.8577 618.71 57.0583 622.202C60.2589 625.695 68.1921 627.266 68.1921 627.266L68.2021 627.261Z" fill="#5D13D1"/>
<path d="M120.254 572.743C120.957 574.659 121.313 576.14 121.334 576.836C121.373 577.911 121.984 580.052 122.627 582.779C122.014 582.605 121.418 582.345 120.885 582.031C120.743 581.998 120.597 581.967 120.456 581.946C120.435 581.944 120.389 581.931 120.337 581.919C120.301 581.913 120.265 581.907 120.224 581.903L120.24 581.907C120.173 581.892 120.097 581.894 120.025 581.882C119.72 581.859 119.419 581.841 119.112 581.838C118.538 581.832 117.907 581.578 117.406 581.337C117.027 581.153 116.637 580.924 116.268 580.664C114.893 580.378 113.5 580.012 112.099 579.618C105.236 577.711 98.653 575.004 92.4028 571.584C91.3967 571.034 90.4024 570.457 89.4154 569.871C89.0615 570.043 88.3823 569.88 87.9693 569.741C87.1638 569.464 86.3701 569.162 85.5811 568.844C85.5596 568.888 85.5486 568.94 85.5144 568.984C84.9693 569.618 83.0639 568.511 82.6521 568.254C82.1566 567.939 81.6757 567.603 81.1875 567.278C80.6761 567.173 80.1264 566.913 79.8931 566.806C79.849 566.785 79.8022 566.758 79.753 566.739C79.4744 567.027 78.9156 566.954 78.3499 566.749C78.26 567.336 77.2508 567.151 76.6924 566.935C75.4358 566.449 74.1746 565.979 72.9061 565.519C72.626 565.84 71.8116 565.678 71.3359 565.495C69.5463 564.793 67.7361 564.16 65.9048 563.584C65.8407 563.573 65.7765 563.562 65.7019 563.545C64.6484 563.254 63.5921 562.957 62.5386 562.666C62.3926 562.876 62.0324 562.941 61.5292 562.851C58.7793 562.352 56.0872 561.672 53.4162 560.864C56.3815 557.015 61.7605 551.947 68.4774 549.319C69.2153 549.028 70.0523 548.801 70.9384 548.593C76.248 555.443 82.5383 561.412 89.9686 566.001C96.9743 570.335 112.733 579.209 120.252 572.738L120.254 572.743Z" fill="#240057"/>
<path d="M100.488 577.058C100.615 581.116 96.8484 583.823 93.1209 584.225C91.8877 584.356 90.665 584.267 89.4575 584.027C89.6311 584.179 89.8132 584.359 89.9649 584.543C90.4307 584.887 90.9116 585.223 91.3702 585.578C91.8392 585.939 93.1203 586.925 92.5483 587.592C92.0059 588.23 90.0978 587.118 89.686 586.862C87.9472 585.775 86.1756 584.699 84.3729 583.686C85.0775 584.147 85.7702 584.634 86.4282 585.153C86.6668 585.341 87.4957 586.007 87.5016 586.484C87.5834 586.563 87.6697 586.626 87.7465 586.708C88.0449 587.007 88.8502 587.88 88.0242 588.056C87.3376 588.202 86.3737 587.693 85.7565 587.25C85.7303 587.381 85.6395 587.489 85.4064 587.537C85.0262 587.614 84.5681 587.499 84.1302 587.302C83.9476 587.336 83.7274 587.313 83.5008 587.255C83.629 587.347 83.7544 587.435 83.8826 587.528C84.2017 587.757 85.4804 588.821 84.7332 589.214C84.6129 589.279 84.4732 589.296 84.3225 589.294C81.1534 587.413 77.7194 586 74.244 584.799C73.2293 584.448 72.1935 584.153 71.1811 583.795C70.4071 583.469 69.6408 583.145 68.8622 582.834C68.6391 582.65 68.441 582.453 68.2653 582.237C68.1028 582.033 67.8226 581.673 67.987 581.402C68.1491 581.138 68.6314 581.214 68.8552 581.268C69.7118 581.471 70.5635 581.677 71.4201 581.88C71.577 581.918 71.7426 581.984 71.9027 582.04C71.9873 581.825 72.3119 581.766 72.7578 581.822C73.1755 581.875 73.5818 581.965 73.9977 582.038C73.9313 581.964 73.8527 581.903 73.7914 581.826C73.7088 581.721 73.5939 581.57 73.5274 581.411C73.2938 581.22 73.0853 581.015 72.9041 580.789C72.3629 580.103 72.6418 579.672 73.499 579.817C73.5477 579.823 73.5941 579.837 73.6455 579.848C73.8583 579.726 74.1972 579.788 74.3947 579.817C75.9463 580.046 77.478 580.441 78.9634 580.977C74.5118 579.053 69.8198 577.869 64.792 578.302C59.7565 578.732 54.7465 581.277 51.6958 585.244C51.2313 586.074 50.8087 586.933 50.4878 587.86C49.1569 591.671 49.17 595.759 50.0873 599.647C50.3374 599.797 50.5446 599.964 50.6007 600.115C53.8863 609.369 61.2102 616.022 70.1519 619.045C69.7637 618.808 69.3754 618.571 68.9982 618.282C68.8123 618.143 68.7065 618.032 68.6266 617.933C70.787 619.186 73.3057 619.869 75.7598 620.146C77.3838 620.329 79.0874 620.299 80.7283 619.999C80.8557 619.995 80.9882 619.988 81.1106 619.986C83.5417 619.886 85.7454 619.702 87.7459 618.187C89.4651 616.884 91.1558 615.337 92.4576 613.611C95.0813 610.149 95.1435 606.475 93.868 603.014C93.8316 602.995 93.793 602.983 93.7566 602.964C93.6306 602.935 93.5069 602.899 93.4268 602.871C93.4322 602.881 93.435 602.886 93.4404 602.896C93.5968 603.22 93.3319 603.234 93.0989 603.211C93.0637 603.302 93.0335 603.389 92.9983 603.48C92.9795 603.529 92.9344 603.553 92.8866 603.573C92.8801 603.609 92.876 603.637 92.8723 603.678C92.862 603.826 92.7435 603.871 92.5747 603.859C92.8554 604.615 93.1188 605.387 93.3221 606.192C93.4282 606.614 92.4818 606.246 92.3804 606.19C91.9889 606.007 91.4366 605.671 91.3241 605.213C90.7418 602.933 89.8046 600.873 88.608 598.991L87.7383 598.023C88.1024 598.526 88.4591 599.04 88.7908 599.567C89.0522 599.977 89.1108 600.276 89.0466 600.492C91.8113 607.927 83.2456 613.389 75.4291 612.928C68.4231 612.514 60.7375 608.602 56.4401 602.707C57.6018 605.217 59.4898 607.546 61.174 609.286C65.0682 613.291 70.2064 616.049 75.8782 616.098C78.9157 616.123 81.9119 615.378 84.5206 613.813C84.7757 613.661 85.6583 614.331 85.4109 614.484C74.5907 620.969 60.917 613.008 55.7339 602.876C55.2038 601.84 54.7982 600.71 54.5833 599.562C54.4541 599.288 54.3172 599.012 54.2031 598.73C52.8016 595.24 52.3023 590.281 54.7844 587.084C57.4623 583.638 62.5782 583.774 66.4692 584.439C69.1281 584.89 71.7058 585.729 74.1627 586.848L74.1545 586.833C74.0037 586.675 73.8507 586.524 73.7003 586.379C75.8844 587.354 78.059 588.347 80.217 589.381C80.6554 589.591 81.0887 589.804 81.5271 590.013C81.5568 590.14 81.6399 590.257 81.79 590.318C83.102 590.858 84.2545 591.738 85.4049 592.554C86.6335 593.419 87.9223 594.179 89.0605 595.164C90.2169 596.158 91.2625 597.271 92.3081 598.384C92.8877 598.997 93.5219 599.568 94.1138 600.168C94.2458 600.375 94.3729 600.586 94.4976 600.803C96.8256 604.828 97.6136 609.948 94.9828 614.031C93.6274 616.136 91.6172 617.967 89.6317 619.474C87.5715 621.033 85.3209 621.263 82.8161 621.37C82.1383 621.401 81.4574 621.414 80.7788 621.419C81.408 621.765 81.9952 622.225 82.4172 622.632C82.9101 623.097 83.8195 624.258 82.5746 624.344C76.2451 624.769 69.8308 623.891 64.0773 621.123C58.9281 618.643 54.7088 614.756 51.3573 610.197C54.4776 615.92 59.4979 620.553 65.6394 622.948C65.3093 622.316 67.1161 623.074 67.4253 623.465C67.5016 623.533 67.578 623.602 67.6543 623.671C68.1982 623.908 69.3663 625.175 68.0254 624.761C61.3439 622.698 55.4806 618.341 51.4594 612.692C51.2267 612.526 51.0136 612.337 50.8911 612.183C47.8071 608.367 45.7931 603.893 45.0119 599.048C44.9831 598.875 45.2384 598.88 45.5764 598.988C44.9121 596.773 44.5032 594.49 44.4635 592.182C44.0369 591.79 43.7551 591.379 43.763 591.011C43.8314 587.671 44.9657 584.764 46.7754 582.361C48.6234 578.976 51.531 576.287 55.3143 574.746C57.2702 573.95 59.2964 573.499 61.3522 573.317C61.2075 573.266 61.0911 573.219 61.0497 573.202C60.8219 573.105 60.5859 572.993 60.3572 572.871C53.0278 573.535 46.4323 578.095 43.3343 584.891C42.4174 586.907 41.8266 589.058 41.587 591.258C41.5537 591.555 40.5547 591.066 40.588 590.769C40.7187 589.575 40.9603 588.419 41.287 587.287C41.1434 587.19 41.0275 587.084 41.0086 586.978C40.6361 584.714 41.0486 582.498 41.9892 580.501C41.7102 580.705 41.4258 580.898 41.1128 581.075C40.9023 581.189 40.6306 581.226 40.3288 581.208C40.4326 580.73 40.54 580.282 40.6509 579.865L40.6555 579.85C40.7642 579.44 40.8787 579.054 40.9895 578.708C40.9941 578.693 41.0037 578.674 41.0083 578.659C41.1168 578.321 41.2312 578.006 41.3368 577.734C41.3464 577.716 41.351 577.701 41.3556 577.685C41.4663 577.411 41.5755 577.17 41.681 576.97C43.3767 573.758 49.5864 567.447 51.5169 563.784C52.3131 562.274 53.8815 560.132 56.0413 557.895C57.8711 561.599 59.7615 565.738 61.0104 565.995C65.2988 566.865 69.5949 567.738 73.8049 568.931C76.1444 569.594 78.4591 570.356 80.7363 571.215C81.1033 571.353 81.4731 571.497 81.8604 571.481C82.3447 571.465 82.7753 571.218 83.209 570.989C83.2993 570.94 83.3895 570.891 83.4797 570.842C84.4988 570.341 85.157 570.788 86.0339 571.292C86.4295 571.518 88.7071 572.617 88.5945 573.211C88.6032 573.167 88.6169 573.121 88.6257 573.077C88.7751 572.289 91.0591 573.424 91.2646 573.539C91.3582 573.592 91.4623 573.652 91.5664 573.713C91.6128 573.499 91.6747 573.29 91.7133 573.075C91.9448 571.768 94.2071 573.019 95.6134 574.234C95.7905 574.19 95.9572 574.138 96.1607 574.119C97.3611 573.999 100.466 575.655 100.512 577.065L100.488 577.058ZM49.7959 574.251C49.1065 574.619 48.4308 575.012 47.79 575.457C44.4663 577.761 41.9728 581.451 41.8571 585.505C44.0673 579.775 48.7291 575.155 54.6893 573.165C53.0103 573.395 51.363 573.731 49.7959 574.251Z" fill="#240057"/>
<path d="M98.2044 600.387C98.1211 600.413 98.0404 600.443 97.9544 600.464C97.8733 600.482 97.7896 600.495 97.7058 600.508C97.6753 600.512 97.6448 600.515 97.6166 600.511C97.4332 600.52 97.2719 600.582 97.132 600.671C96.2529 598.669 94.8483 596.823 93.4859 595.246C91.7012 593.178 89.5856 591.134 87.1185 589.865C87.1559 589.838 87.17 589.805 87.2229 589.782C87.9116 589.473 89.1846 590.216 89.7818 590.671C90.2652 590.856 90.7362 591.126 90.9003 591.225C93.8466 593.006 96.9781 595.284 98.0561 598.715C98.2045 599.18 98.3961 599.867 98.2067 600.379L98.2044 600.387Z" fill="#240057"/>
<path d="M106.256 592.161C106.173 593.121 105.808 594.409 104.7 594.615C104.087 594.727 103.477 594.598 102.898 594.367C102.496 594.261 102.103 594.098 101.75 593.926C100.894 593.508 100.119 592.943 99.4658 592.253C98.7036 591.447 98.2321 590.483 97.9383 589.416C97.6825 588.49 97.6833 587.38 98.2711 586.574C99.0687 585.486 100.367 585.462 101.547 585.879C104.112 586.79 106.51 589.259 106.253 592.156L106.256 592.161Z" fill="#240057"/>
<path d="M81.7027 558.952C78.2922 555.742 75.2338 552.153 72.5992 548.269C73.5002 548.123 74.4535 548.015 75.4463 547.943C76.2383 549.557 77.0804 551.144 77.9977 552.69C79.4256 554.77 80.9879 556.751 82.6911 558.597C86.8047 562.528 91.4625 565.872 96.5404 568.507C97.0011 568.698 97.4645 568.895 97.9397 569.065C98.1258 569.132 98.3898 569.32 98.6243 569.537C98.9899 569.708 99.3532 569.887 99.7211 570.051C100.584 570.433 101.276 571.672 99.8384 571.032C98.7866 570.565 97.7512 570.056 96.7282 569.534C90.9663 567.121 85.9574 563.429 81.7105 558.954L81.7027 558.952Z" fill="#240057"/>
<path d="M91.1706 563.123C91.3142 563.22 91.4578 563.317 91.6015 563.415C91.8624 563.584 92.0337 563.745 92.1408 563.894C92.5521 564.209 92.9707 564.514 93.3915 564.811C93.6111 564.965 94.1282 565.391 93.8155 565.652C93.5251 565.894 92.6601 565.293 92.4615 565.154C91.6929 564.611 90.9439 564.044 90.2123 563.462C84.2823 559.472 79.419 554.124 76.0726 547.901C76.5614 547.869 77.0585 547.852 77.5633 547.838C78.0416 548.779 78.5578 549.705 79.1036 550.603C78.5805 549.7 78.0849 548.775 77.6193 547.833C78.1368 547.819 78.6516 547.799 79.1877 547.806C81.9808 553.739 86.045 559.001 91.1683 563.131L91.1706 563.123Z" fill="#240057"/>
<path d="M95.1696 590.471C95.1718 590.535 95.1349 590.574 95.0693 590.597L94.9195 590.62C94.7993 590.614 94.6834 590.579 94.5674 590.545C94.5469 590.543 94.5241 590.549 94.5009 590.542C94.4236 590.519 94.3463 590.496 94.2689 590.473C94.0829 590.406 93.9115 590.317 93.7474 590.218C93.5178 590.07 93.2928 589.907 93.1171 589.691C93.0054 589.556 92.8964 589.427 92.7847 589.293L92.6772 589.131C92.6291 589.066 92.6192 589 92.6398 588.931C92.6358 588.888 92.6527 588.859 92.6955 588.842C92.7447 588.79 92.813 588.772 92.8927 588.787L93.0874 588.811C93.1647 588.834 93.2421 588.857 93.3194 588.88C93.4563 588.929 93.5859 588.988 93.7109 589.063C93.846 589.133 93.9764 589.217 94.0969 589.308C94.2832 589.46 94.4695 589.612 94.6481 589.761C94.7553 589.839 94.8553 589.928 94.9429 590.029C95.022 590.103 95.086 590.185 95.1377 590.281C95.1858 590.345 95.1957 590.411 95.1751 590.481L95.1696 590.471Z" fill="#240057"/>
<path d="M72.3909 626.252C75.7048 626.451 78.9871 626.999 82.2886 627.283C82.2775 627.334 82.2511 627.381 82.1754 627.409C81.9332 627.489 81.6854 627.558 81.4377 627.628C81.4426 627.697 81.4061 627.749 81.3177 627.777C80.5163 627.998 79.6936 628.121 78.8683 628.166C78.6143 628.2 78.3544 628.212 78.0999 628.233C77.9931 628.168 77.8667 628.126 77.7156 628.111C77.2524 628.07 76.7864 628.025 76.315 627.969C74.7539 627.688 73.2993 627.005 71.8446 626.321C71.8389 626.227 71.8636 626.129 71.8707 626.035C71.9997 626.153 72.1634 626.239 72.3859 626.255L72.3909 626.252Z" fill="#240057"/>
<path d="M87.1437 617.58C79.6032 620.532 71.1854 618.964 64.3196 614.995C57.0528 610.79 50.5613 603.173 50.7262 594.382C50.7382 593.83 52.7413 594.734 52.7292 595.358C52.5804 603.342 58.052 610.456 64.7455 614.31C70.9603 617.892 78.6288 618.881 85.3708 616.239C85.9652 616.007 87.6096 617.398 87.1487 617.577L87.1437 617.58Z" fill="#240057"/>
<path d="M168.435 614.87C166.053 622.912 143.495 623.758 113.019 618.171C114.384 616.741 115.413 615.41 116.203 614.223C136.34 617.046 150.606 615.809 152.302 610.086C153.997 604.364 142.368 595.292 123.439 586.569C113.167 581.835 100.76 577.176 87.1737 573.152C74.1516 569.294 61.7195 566.512 50.854 564.858C29.4976 561.606 14.1961 562.718 12.442 568.654C10.7767 574.276 21.6447 582.878 39.5074 591.336C39.5925 593.023 39.7939 594.756 40.1483 596.485C12.0183 584.666 -6.05586 571.838 -3.69885 563.881C-1.27312 555.692 22.0872 554.961 53.42 560.895C64.2682 562.948 76.0621 565.798 88.2878 569.419C100.513 573.04 112.04 577.107 122.289 581.308C151.735 593.386 170.874 606.693 168.45 614.874L168.435 614.87Z" fill="#240057"/>
<path d="M168.435 614.869C166.053 622.911 143.495 623.758 113.019 618.171C114.384 616.741 115.414 615.41 116.203 614.222C136.34 617.046 150.607 615.808 152.302 610.086C153.997 604.364 142.368 595.292 123.439 586.569C114.813 582.596 104.672 578.68 93.6001 575.139C91.4873 574.463 89.3494 573.8 87.1738 573.152C74.1516 569.294 61.7195 566.512 50.854 564.858C50.7207 564.839 50.5951 564.823 50.4591 564.8C59.4425 565.055 70.3519 566.348 82.4691 568.646C85.8618 569.289 89.3594 570.018 92.9207 570.816C103.453 574.079 113.339 577.634 122.287 581.302C127.672 583.512 132.701 585.758 137.329 588.008C158.005 598.073 170.429 608.18 168.445 614.864L168.435 614.869Z" fill="#5D13D1"/>
</svg>
