<svg width="125" height="718" viewBox="0 0 125 718" fill="none" xmlns="http://www.w3.org/2000/svg">
<g opacity="0.5">
<path d="M30.1411 1.17902C29.615 0.441407 30.6802 -0.396784 31.3629 0.206716C36.0021 4.32644 45.1631 12.9347 47.5675 15.6085C51.1328 19.5732 60.1808 30.4111 65.3896 35.6959C70.5984 40.9807 92.2162 63.6413 92.2162 63.6413L85.1335 68.9973C85.1335 68.9973 61.5504 39.6605 57.7112 35.6959C54.2633 32.1335 39.063 13.7561 30.1411 1.17902Z" fill="#515092"/>
<path d="M92.6073 61.9104C91.6812 60.9214 90.0768 60.5903 88.4811 60.6615C88.1768 60.3011 87.2855 60.364 86.9159 60.4142C84.1811 60.7831 81.868 62.5139 81.6114 65.2842C81.3767 67.8071 82.868 70.1457 85.4202 70.8749C87.9159 71.5874 91.2812 70.7198 92.9117 68.704C94.3291 66.948 94.1595 63.5742 92.6073 61.9146V61.9104Z" fill="#BAA4FF"/>
<path d="M22.0345 665.273C22.0345 665.273 37.0794 674.446 54.2971 665.501C71.5148 656.556 72.6188 647.488 72.6188 647.488C72.6188 647.488 77.2876 643.488 78.0709 635.529C78.8542 627.571 75.5079 619.246 75.4338 616.768C75.3596 614.289 70.8443 601.537 60.8747 595.386C50.9077 589.24 31.2726 586.855 22.623 590.093C13.9734 593.331 7.50596 600.464 5.55361 603.995C3.60629 607.524 -2.63864 613.592 -4.34637 616.69C-6.29369 620.219 -9.42228 635.686 -1.40262 645.362C6.61705 655.037 7.70696 656.988 10.8975 660.365C14.0881 663.742 22.0245 665.278 22.0245 665.278L22.0345 665.273Z" fill="#5D13D1"/>
<path d="M74.2874 612.824C74.9824 614.674 75.3323 616.104 75.3501 616.775C75.3841 617.813 75.986 619.88 76.6177 622.512C76.0044 622.343 75.409 622.09 74.876 621.786C74.7344 621.753 74.5879 621.723 74.4467 621.703C74.4262 621.701 74.3798 621.687 74.3284 621.677C74.2924 621.67 74.2564 621.664 74.2154 621.66L74.2309 621.665C74.164 621.649 74.0874 621.652 74.0155 621.639C73.7107 621.616 73.4086 621.598 73.1019 621.595C72.5267 621.587 71.8957 621.34 71.3954 621.106C71.0169 620.928 70.6269 620.706 70.2589 620.453C68.8834 620.174 67.4901 619.817 66.0883 619.433C59.2245 617.574 52.6439 614.943 46.4003 611.626C45.3951 611.092 44.4021 610.533 43.4163 609.964C43.061 610.13 42.3816 609.97 41.9686 609.835C41.1632 609.566 40.3698 609.272 39.5811 608.963C39.5593 609.006 39.5481 609.055 39.5136 609.098C38.9648 609.707 37.0617 608.634 36.6504 608.385C36.1557 608.08 35.6756 607.755 35.1882 607.439C34.6766 607.336 34.1272 607.084 33.894 606.981C33.85 606.96 33.8032 606.934 33.7541 606.916C33.4737 607.192 32.9145 607.12 32.3488 606.921C32.2561 607.487 31.2463 607.305 30.688 607.095C29.4318 606.623 28.1709 606.166 26.9027 605.719C26.6207 606.027 25.8059 605.869 25.3303 605.691C23.5413 605.008 21.7313 604.393 19.9 603.832C19.8358 603.821 19.7716 603.811 19.697 603.793C18.6432 603.51 17.5868 603.221 16.533 602.937C16.3858 603.138 16.0248 603.201 15.5213 603.112C12.7697 602.623 10.0767 601.96 7.40545 601.172C10.3928 597.468 15.8029 592.594 22.5418 590.078C23.2821 589.8 24.1214 589.583 25.0097 589.384C30.2957 596.009 36.5679 601.784 43.9881 606.233C50.9842 610.434 66.7255 619.04 74.2847 612.819L74.2874 612.824Z" fill="#240057"/>
<path d="M54.5934 616.962C54.7019 620.876 50.916 623.476 47.1802 623.853C45.9442 623.976 44.7197 623.887 43.5113 623.652C43.6844 623.799 43.8661 623.973 44.0172 624.151C44.4823 624.484 44.9624 624.81 45.4202 625.153C45.8883 625.503 47.1672 626.457 46.5911 627.099C46.0448 627.713 44.1385 626.635 43.7271 626.387C41.9903 625.333 40.2205 624.291 38.4193 623.308C39.123 623.755 39.8147 624.226 40.4715 624.729C40.7096 624.911 41.5369 625.556 41.5407 626.016C41.6222 626.092 41.7084 626.154 41.7849 626.233C42.0825 626.522 42.8852 627.367 42.057 627.534C41.3685 627.672 40.4052 627.179 39.789 626.75C39.7621 626.876 39.6707 626.98 39.4369 627.026C39.0557 627.099 38.5974 626.987 38.1596 626.796C37.9765 626.828 37.756 626.805 37.5293 626.748C37.6573 626.837 37.7826 626.922 37.9106 627.012C38.2291 627.234 39.5052 628.264 38.7549 628.641C38.6341 628.703 38.494 628.72 38.3431 628.717C35.1771 626.894 31.7435 625.522 28.2676 624.352C27.2527 624.011 26.2164 623.724 25.2039 623.375C24.43 623.058 23.6639 622.744 22.8853 622.442C22.6627 622.264 22.4652 622.073 22.2901 621.864C22.1282 621.667 21.8493 621.319 22.0152 621.058C22.1787 620.805 22.6615 620.879 22.8855 620.931C23.7427 621.13 24.5949 621.331 25.4521 621.529C25.6091 621.567 25.7747 621.631 25.9348 621.685C26.0205 621.478 26.346 621.422 26.7924 621.477C27.2106 621.529 27.6172 621.618 28.0334 621.689C27.9674 621.617 27.8889 621.558 27.8278 621.484C27.7455 621.383 27.6312 621.236 27.5652 621.083C27.3321 620.898 27.1241 620.7 26.9437 620.481C26.4047 619.818 26.6861 619.403 27.5441 619.545C27.5929 619.551 27.6393 619.565 27.6907 619.575C27.9045 619.458 28.2437 619.52 28.4414 619.548C29.9946 619.773 31.5272 620.158 33.0128 620.68C28.5622 618.811 23.8674 617.656 18.8288 618.059C13.7825 618.46 8.75199 620.9 5.67777 624.717C5.20867 625.516 4.78135 626.343 4.4557 627.236C3.105 630.909 3.09932 634.851 4.00043 638.605C4.25022 638.75 4.45704 638.911 4.51259 639.057C7.76143 647.992 15.0677 654.43 24.0112 657.372C23.6234 657.142 23.2355 656.912 22.859 656.633C22.6734 656.498 22.5679 656.391 22.4883 656.295C24.6467 657.51 27.1668 658.176 29.6238 658.45C31.2499 658.631 32.9566 658.607 34.6018 658.322C34.7294 658.319 34.8622 658.312 34.9848 658.311C37.4206 658.222 39.629 658.05 41.6399 656.595C43.3682 655.343 45.0689 653.855 46.3809 652.195C49.0251 648.863 49.1042 645.319 47.8424 641.978C47.8061 641.959 47.7674 641.948 47.731 641.93C47.6049 641.901 47.4812 641.866 47.4011 641.838C47.4065 641.848 47.4092 641.853 47.4146 641.863C47.5698 642.175 47.3044 642.188 47.0711 642.166C47.0354 642.253 47.0047 642.337 46.969 642.425C46.95 642.472 46.9047 642.495 46.8567 642.514C46.8501 642.549 46.8458 642.576 46.8419 642.615C46.8309 642.759 46.712 642.801 46.543 642.789C46.8207 643.519 47.081 644.265 47.281 645.041C47.3854 645.449 46.439 645.091 46.3376 645.037C45.9463 644.859 45.3945 644.534 45.284 644.091C44.7111 641.891 43.7817 639.901 42.5917 638.083L41.7249 637.146C42.0873 637.633 42.4423 638.129 42.7721 638.639C43.0321 639.035 43.0894 639.323 43.0241 639.532C45.7596 646.711 37.1538 651.954 29.3257 651.487C22.3094 651.068 14.6282 647.272 10.3503 641.574C11.5025 643.998 13.3831 646.251 15.0624 647.933C18.945 651.807 24.0795 654.483 29.761 654.546C32.8037 654.578 35.8086 653.869 38.4291 652.367C38.6854 652.221 39.5664 652.869 39.3179 653.017C28.449 659.241 14.7878 651.522 9.64208 641.735C9.11584 640.734 8.71469 639.644 8.50469 638.535C8.37654 638.271 8.24065 638.004 8.12759 637.732C6.73968 634.362 6.26227 629.577 8.76338 626.501C11.4617 623.185 16.586 623.33 20.4808 623.983C23.1423 624.426 25.7206 625.242 28.1767 626.329L28.1686 626.314C28.0183 626.161 27.8656 626.016 27.7156 625.875C29.8991 626.821 32.0729 627.786 34.23 628.79C34.6682 628.993 35.1013 629.2 35.5395 629.403C35.5687 629.525 35.6514 629.638 35.8015 629.698C37.1133 630.223 38.2638 631.074 39.4125 631.865C40.6392 632.702 41.9268 633.439 43.0625 634.392C44.2164 635.355 45.2587 636.431 46.301 637.508C46.8788 638.101 47.5115 638.653 48.1017 639.234C48.233 639.434 48.3593 639.637 48.4833 639.847C50.7969 643.736 51.5628 648.677 48.9086 652.607C47.5412 654.634 45.5191 656.394 43.5232 657.841C41.4522 659.34 39.1966 659.554 36.6869 659.651C36.0078 659.679 35.3257 659.689 34.6458 659.692C35.2746 660.028 35.8607 660.473 36.2816 660.866C36.7732 661.317 37.6789 662.439 36.4314 662.518C30.0888 662.911 23.6673 662.045 17.9164 659.359C12.7696 656.952 8.56068 653.191 5.22424 648.784C8.32376 654.313 13.3316 658.796 19.4729 661.124C19.1451 660.513 20.9516 661.25 21.2595 661.627C21.3357 661.694 21.4118 661.76 21.488 661.827C22.0317 662.057 23.1961 663.282 21.8547 662.879C15.171 660.87 9.31741 656.651 5.31512 651.19C5.08276 651.03 4.87016 650.847 4.74806 650.698C1.67624 647.009 -0.320764 642.688 -1.08114 638.012C-1.10919 637.846 -0.853442 637.85 -0.51539 637.956C-1.17071 635.817 -1.56982 633.614 -1.599 631.388C-2.02457 631.009 -2.30502 630.611 -2.29533 630.257C-2.21155 627.035 -1.0619 624.235 0.761999 621.922C2.62877 618.662 5.55377 616.078 9.3508 614.602C11.3138 613.84 13.3456 613.41 15.4058 613.241C15.2611 613.191 15.1447 613.145 15.1033 613.129C14.8756 613.035 14.6396 612.927 14.4111 612.808C7.06581 613.427 0.437819 617.807 -2.69679 624.353C-3.62453 626.295 -4.22625 628.367 -4.47631 630.489C-4.51107 630.775 -5.50956 630.3 -5.4748 630.014C-5.33844 628.863 -5.09109 627.748 -4.75864 626.658C-4.90207 626.564 -5.01764 626.462 -5.0361 626.359C-5.39886 624.174 -4.97544 622.038 -4.02411 620.115C-4.30447 620.31 -4.59023 620.496 -4.90461 620.665C-5.116 620.775 -5.38843 620.81 -5.6906 620.792C-5.58444 620.331 -5.47483 619.899 -5.36178 619.497L-5.35712 619.482C-5.2464 619.088 -5.12989 618.715 -5.01731 618.382C-5.01265 618.367 -5.00295 618.35 -4.99829 618.335C-4.88803 618.009 -4.77199 617.706 -4.6649 617.444C-4.65521 617.426 -4.65055 617.412 -4.64589 617.397C-4.53377 617.132 -4.42323 616.9 -4.31661 616.708C-2.60325 613.615 3.64632 607.546 5.59698 604.018C6.4015 602.564 7.98251 600.502 10.1564 598.35C11.9724 601.929 13.8471 605.927 15.097 606.177C19.3889 607.03 23.6886 607.884 27.9005 609.046C30.241 609.693 32.5563 610.434 34.8336 611.27C35.2006 611.404 35.5703 611.543 35.9584 611.529C36.4437 611.515 36.8761 611.278 37.3117 611.058C37.4023 611.011 37.4928 610.964 37.5834 610.917C38.6066 610.437 39.2639 610.87 40.1401 611.358C40.5353 611.578 42.8119 612.645 42.6963 613.217C42.7053 613.175 42.7193 613.13 42.7282 613.088C42.8815 612.328 45.1643 613.429 45.3696 613.541C45.4632 613.593 45.5672 613.651 45.6712 613.709C45.7187 613.504 45.7816 613.303 45.8213 613.095C46.0591 611.835 48.3197 613.048 49.7229 614.224C49.9005 614.182 50.0677 614.133 50.2717 614.114C51.4747 614.002 54.578 615.608 54.6167 616.968L54.5934 616.962ZM3.82493 614.109C3.1327 614.461 2.45399 614.838 1.81005 615.266C-1.53009 617.479 -4.04489 621.031 -4.17937 624.94C-1.93896 619.42 2.75216 614.977 8.73192 613.075C7.04894 613.292 5.39718 613.612 3.82493 614.109Z" fill="#240057"/>
<path d="M52.1995 639.39C52.1157 639.414 52.0346 639.444 51.9481 639.463C51.8666 639.48 51.7824 639.493 51.6983 639.505C51.6676 639.508 51.637 639.512 51.6087 639.508C51.4245 639.516 51.2623 639.574 51.1214 639.66C50.2482 637.729 48.8466 635.946 47.4861 634.422C45.7039 632.424 43.5894 630.449 41.1183 629.218C41.1559 629.193 41.1703 629.16 41.2235 629.139C41.9165 628.843 43.1911 629.563 43.7885 630.003C44.2731 630.183 44.7447 630.444 44.909 630.54C47.8588 632.265 50.9923 634.469 52.0584 637.779C52.2052 638.227 52.3944 638.89 52.2018 639.382L52.1995 639.39Z" fill="#240057"/>
<path d="M60.2562 631.46C60.1692 632.385 59.7976 633.626 58.6858 633.821C58.0701 633.928 57.4601 633.801 56.8803 633.577C56.4782 633.473 56.0846 633.315 55.7317 633.149C54.8754 632.743 54.1017 632.196 53.4497 631.528C52.6894 630.749 52.2212 629.818 51.9316 628.789C51.6794 627.896 51.6853 626.825 52.2782 626.05C53.0828 625.003 54.3841 624.984 55.5653 625.389C58.132 626.275 60.5243 628.662 60.2535 631.455L60.2562 631.46Z" fill="#240057"/>
<path d="M35.6871 599.422C32.2786 596.319 29.2254 592.851 26.5991 589.1C27.5042 588.963 28.4616 588.861 29.4585 588.795C30.2459 590.353 31.0838 591.884 31.9973 593.377C33.4209 595.385 34.9798 597.299 36.6808 599.083C40.7917 602.883 45.4515 606.119 50.5364 608.674C50.9979 608.859 51.4621 609.05 51.9384 609.215C52.1249 609.281 52.389 609.463 52.6234 609.672C52.9895 609.838 53.3534 610.012 53.7219 610.171C54.5861 610.541 55.2755 611.738 53.8351 611.116C52.7815 610.663 51.7446 610.17 50.7201 609.664C44.9475 607.322 39.9369 603.749 35.6948 599.424L35.6871 599.422Z" fill="#240057"/>
<path d="M45.1687 603.472C45.3126 603.566 45.4564 603.66 45.6003 603.754C45.8616 603.919 46.0329 604.074 46.1398 604.218C46.5515 604.523 46.9706 604.818 47.3921 605.105C47.6119 605.254 48.1294 605.666 47.814 605.916C47.5211 606.148 46.6549 605.567 46.456 605.433C45.6864 604.907 44.9366 604.359 44.2043 603.795C38.2655 599.934 33.4049 594.767 30.0725 588.763C30.5638 588.733 31.0633 588.719 31.5705 588.706C32.0466 589.614 32.5608 590.508 33.1048 591.375C32.5837 590.503 32.0901 589.61 31.6268 588.702C32.1468 588.689 32.6641 588.672 33.2027 588.681C35.9806 594.404 40.0388 599.486 45.1664 603.48L45.1687 603.472Z" fill="#240057"/>
<path d="M49.1686 629.822C49.1705 629.884 49.1333 629.922 49.0675 629.943L48.9172 629.965C48.7968 629.959 48.6807 629.925 48.5646 629.892C48.5441 629.89 48.5212 629.895 48.498 629.889C48.4206 629.866 48.3432 629.844 48.2658 629.822C48.0796 629.756 47.9082 629.67 47.7441 629.574C47.5146 629.43 47.2898 629.272 47.1146 629.063C47.0032 628.934 46.8945 628.809 46.7832 628.679L46.676 628.523C46.6281 628.46 46.6185 628.396 46.6394 628.329C46.6356 628.288 46.6526 628.26 46.6956 628.244C46.7452 628.193 46.8137 628.177 46.8935 628.191L47.0886 628.215C47.166 628.238 47.2434 628.26 47.3208 628.282C47.4578 628.33 47.5875 628.388 47.7125 628.46C47.8475 628.528 47.9779 628.61 48.0983 628.697C48.2844 628.844 48.4705 628.992 48.6488 629.136C48.756 629.212 48.8558 629.298 48.9432 629.396C49.0222 629.467 49.086 629.547 49.1374 629.639C49.1854 629.701 49.195 629.765 49.174 629.832L49.1686 629.822Z" fill="#240057"/>
<path d="M26.39 664.293C29.7046 664.495 32.986 665.034 36.2878 665.318C36.2765 665.367 36.2498 665.413 36.174 665.439C35.9313 665.516 35.6831 665.582 35.435 665.649C35.4395 665.715 35.4028 665.765 35.3142 665.793C34.5114 666.003 33.6878 666.119 32.8619 666.161C32.6076 666.193 32.3475 666.203 32.0928 666.223C31.9863 666.159 31.86 666.119 31.7089 666.104C31.2456 666.063 30.7796 666.018 30.3082 665.963C28.7477 665.686 27.2954 665.022 25.8432 664.358C25.8379 664.267 25.8631 664.173 25.8705 664.081C25.9991 664.196 26.1624 664.28 26.385 664.295L26.39 664.293Z" fill="#240057"/>
<path d="M41.1427 656.006C33.5688 658.83 25.1361 657.294 18.2705 653.448C11.0041 649.373 4.53067 642.011 4.73654 633.536C4.7511 633.004 6.75532 633.882 6.74029 634.482C6.55431 642.18 12.0074 649.053 18.7008 652.789C24.9154 656.26 32.5995 657.236 39.3714 654.708C39.9684 654.486 41.6108 655.832 41.1478 656.004L41.1427 656.006Z" fill="#240057"/>
<path d="M122.435 653.606C120.012 661.357 97.4203 662.109 66.9281 656.631C68.3019 655.256 69.3388 653.975 70.1345 652.831C90.2864 655.613 104.578 654.46 106.301 648.944C108.025 643.429 96.4218 634.643 77.5079 626.173C67.2428 621.576 54.8412 617.046 41.2545 613.124C28.2323 609.365 15.7961 606.645 4.92348 605.018C-16.447 601.819 -31.7744 602.848 -33.5582 608.57C-35.2515 613.988 -24.4082 622.319 -6.56 630.531C-6.48258 632.158 -6.28878 633.831 -5.94183 635.499C-34.0559 624.016 -52.0957 611.589 -49.699 603.919C-47.2324 596.025 -23.837 595.388 7.5111 601.202C18.3647 603.214 30.1615 605.997 42.3872 609.526C54.6129 613.055 66.1361 617.011 76.3805 621.094C105.81 632.831 124.915 645.724 122.45 653.61L122.435 653.606Z" fill="#240057"/>
<path d="M122.434 653.49C120.015 661.24 97.4167 662 66.9113 656.536C68.2847 655.161 69.3211 653.88 70.1163 652.737C90.2764 655.51 104.571 654.352 106.292 648.838C108.013 643.324 96.4003 634.546 77.4751 626.087C68.8497 622.235 58.7077 618.433 47.6311 614.991C45.5174 614.333 43.3786 613.689 41.2019 613.058C28.1732 609.306 15.7314 606.592 4.85428 604.97C4.72081 604.952 4.59507 604.936 4.4589 604.913C13.4564 605.181 24.3789 606.455 36.5072 608.701C39.9031 609.33 43.4037 610.042 46.9678 610.821C57.5044 613.993 67.3928 617.446 76.3414 621.006C81.7266 623.149 86.7551 625.328 91.3824 627.51C112.053 637.267 124.458 647.044 122.444 653.485L122.434 653.49Z" fill="#5D13D1"/>
</g>
</svg>
